<svg xmlns="http://www.w3.org/2000/svg" xmlns:xlink="http://www.w3.org/1999/xlink" width="500" zoomAndPan="magnify" viewBox="0 0 375 374.999991" height="500" preserveAspectRatio="xMidYMid meet" version="1.0"><defs><g/><clipPath id="e524d4ee1c"><path d="M 139 28 L 373 28 L 373 293 L 139 293 Z M 139 28 " clip-rule="nonzero"/></clipPath><clipPath id="d5f52f1391"><path d="M 399.71875 60.339844 L 368.890625 301.378906 L 122.648438 269.882812 L 153.476562 28.847656 Z M 399.71875 60.339844 " clip-rule="nonzero"/></clipPath><clipPath id="fc98d8acbe"><path d="M 368.9375 301.027344 L 399.765625 59.992188 L 153.519531 28.5 L 122.691406 269.535156 Z M 368.9375 301.027344 " clip-rule="nonzero"/></clipPath><clipPath id="d7e454a851"><path d="M 332.457031 218.28125 L 335.445312 222.15625 C 334.332031 223.015625 333.179688 223.820312 331.988281 224.570312 C 330.796875 225.316406 329.570312 226.003906 328.3125 226.628906 C 327.050781 227.257812 325.765625 227.820312 324.449219 228.320312 C 323.136719 228.820312 321.800781 229.257812 320.445312 229.625 C 319.085938 229.996094 317.714844 230.296875 316.332031 230.53125 C 314.945312 230.765625 313.550781 230.929688 312.148438 231.027344 C 310.746094 231.125 309.34375 231.152344 307.9375 231.113281 C 306.53125 231.074219 305.132812 230.964844 303.738281 230.785156 C 302.34375 230.605469 300.960938 230.359375 299.59375 230.046875 C 298.222656 229.730469 296.871094 229.351562 295.539062 228.902344 C 294.207031 228.457031 292.898438 227.945312 291.613281 227.371094 C 290.332031 226.792969 289.082031 226.15625 287.859375 225.457031 C 286.640625 224.757812 285.457031 224.003906 284.3125 223.1875 C 283.167969 222.371094 282.0625 221.503906 281.003906 220.578125 C 279.941406 219.65625 278.929688 218.683594 277.964844 217.660156 C 276.996094 216.636719 276.085938 215.566406 275.222656 214.453125 L 150.429688 52.671875 L 151.308594 45.800781 L 279.089844 211.457031 C 279.851562 212.445312 280.664062 213.390625 281.519531 214.296875 C 282.375 215.203125 283.269531 216.066406 284.210938 216.886719 C 285.152344 217.703125 286.128906 218.476562 287.144531 219.199219 C 288.160156 219.921875 289.207031 220.589844 290.289062 221.210938 C 291.371094 221.828125 292.480469 222.394531 293.617188 222.90625 C 294.753906 223.414062 295.910156 223.867188 297.09375 224.265625 C 298.273438 224.660156 299.46875 225 300.683594 225.277344 C 301.898438 225.554688 303.125 225.773438 304.359375 225.929688 C 305.59375 226.089844 306.835938 226.1875 308.078125 226.222656 C 309.324219 226.257812 310.570312 226.234375 311.8125 226.148438 C 313.054688 226.0625 314.289062 225.914062 315.519531 225.707031 C 316.746094 225.5 317.960938 225.230469 319.164062 224.902344 C 320.367188 224.578125 321.550781 224.191406 322.714844 223.746094 C 323.878906 223.304688 325.019531 222.804688 326.136719 222.25 C 327.25 221.691406 328.335938 221.082031 329.394531 220.421875 C 330.449219 219.757812 331.46875 219.046875 332.457031 218.28125 Z M 288.792969 203.960938 C 289.308594 204.632812 289.859375 205.273438 290.4375 205.890625 C 291.019531 206.503906 291.628906 207.089844 292.265625 207.644531 C 292.902344 208.203125 293.566406 208.722656 294.257812 209.214844 C 294.945312 209.703125 295.65625 210.160156 296.390625 210.578125 C 297.125 211 297.878906 211.382812 298.648438 211.730469 C 299.417969 212.074219 300.207031 212.382812 301.007812 212.652344 C 301.808594 212.921875 302.621094 213.148438 303.445312 213.339844 C 304.269531 213.527344 305.101562 213.675781 305.9375 213.785156 C 306.777344 213.890625 307.617188 213.957031 308.464844 213.980469 C 309.308594 214.003906 310.152344 213.988281 310.996094 213.929688 C 311.839844 213.871094 312.675781 213.769531 313.511719 213.628906 C 314.34375 213.488281 315.167969 213.308594 315.984375 213.085938 C 316.800781 212.863281 317.605469 212.601562 318.394531 212.300781 C 319.183594 212 319.957031 211.660156 320.714844 211.285156 C 321.472656 210.90625 322.210938 210.492188 322.925781 210.042969 C 323.644531 209.59375 324.335938 209.113281 325.003906 208.59375 L 327.992188 212.46875 C 327.199219 213.082031 326.375 213.65625 325.519531 214.191406 C 324.667969 214.726562 323.792969 215.21875 322.890625 215.667969 C 321.992188 216.113281 321.070312 216.519531 320.132812 216.875 C 319.191406 217.234375 318.234375 217.542969 317.265625 217.808594 C 316.296875 218.070312 315.316406 218.289062 314.324219 218.457031 C 313.332031 218.621094 312.335938 218.742188 311.332031 218.8125 C 310.328125 218.878906 309.324219 218.902344 308.320312 218.871094 C 307.316406 218.84375 306.316406 218.765625 305.316406 218.636719 C 304.320312 218.507812 303.332031 218.332031 302.351562 218.109375 C 301.371094 217.882812 300.40625 217.613281 299.453125 217.292969 C 298.5 216.972656 297.566406 216.605469 296.648438 216.195312 C 295.730469 215.78125 294.835938 215.328125 293.964844 214.828125 C 293.089844 214.328125 292.246094 213.785156 291.425781 213.203125 C 290.605469 212.621094 289.816406 212 289.058594 211.339844 C 288.296875 210.679688 287.574219 209.984375 286.882812 209.25 C 286.191406 208.519531 285.539062 207.753906 284.925781 206.960938 L 152.628906 35.46875 L 153.507812 28.609375 Z M 302.804688 238.105469 C 306.078125 238.535156 309.363281 238.636719 312.65625 238.410156 C 315.953125 238.183594 319.191406 237.636719 322.378906 236.769531 C 325.566406 235.898438 328.636719 234.722656 331.589844 233.242188 C 334.546875 231.765625 337.324219 230.007812 339.933594 227.976562 L 342.921875 231.847656 C 341.492188 232.957031 340.011719 233.992188 338.480469 234.953125 C 336.949219 235.914062 335.375 236.800781 333.757812 237.609375 C 332.140625 238.414062 330.488281 239.140625 328.796875 239.785156 C 327.109375 240.429688 325.394531 240.988281 323.648438 241.464844 C 321.90625 241.941406 320.144531 242.328125 318.363281 242.632812 C 316.582031 242.933594 314.789062 243.148438 312.988281 243.273438 C 311.183594 243.398438 309.378906 243.433594 307.574219 243.382812 C 305.769531 243.332031 303.96875 243.191406 302.175781 242.960938 C 300.386719 242.730469 298.609375 242.414062 296.847656 242.011719 C 295.085938 241.605469 293.351562 241.117188 291.636719 240.542969 C 289.925781 239.964844 288.246094 239.308594 286.597656 238.566406 C 284.949219 237.828125 283.339844 237.007812 281.773438 236.109375 C 280.207031 235.210938 278.6875 234.234375 277.214844 233.1875 C 275.742188 232.140625 274.324219 231.019531 272.960938 229.832031 C 271.597656 228.644531 270.296875 227.390625 269.058594 226.074219 C 267.820312 224.757812 266.648438 223.382812 265.542969 221.953125 L 148.230469 69.863281 L 149.109375 62.992188 L 269.414062 218.957031 C 271.429688 221.578125 273.675781 223.980469 276.164062 226.15625 C 278.652344 228.332031 281.328125 230.242188 284.195312 231.882812 C 287.058594 233.527344 290.058594 234.875 293.191406 235.921875 C 296.324219 236.96875 299.527344 237.695312 302.804688 238.105469 Z M 296.585938 286.730469 C 299.808594 287.148438 303.042969 287.410156 306.289062 287.511719 C 309.539062 287.609375 312.785156 287.550781 316.023438 287.328125 C 319.265625 287.105469 322.492188 286.726562 325.695312 286.183594 C 328.898438 285.640625 332.070312 284.945312 335.207031 284.089844 C 338.339844 283.234375 341.425781 282.222656 344.464844 281.0625 C 347.5 279.902344 350.472656 278.59375 353.378906 277.136719 C 356.285156 275.679688 359.113281 274.085938 361.863281 272.347656 C 364.613281 270.613281 367.273438 268.742188 369.839844 266.742188 L 372.828125 270.609375 C 371.480469 271.65625 370.105469 272.667969 368.710938 273.644531 C 367.3125 274.621094 365.894531 275.5625 364.449219 276.46875 C 363.007812 277.378906 361.542969 278.25 360.054688 279.082031 C 358.570312 279.917969 357.066406 280.71875 355.539062 281.476562 C 354.015625 282.238281 352.472656 282.960938 350.914062 283.648438 C 349.351562 284.332031 347.777344 284.980469 346.183594 285.585938 C 344.59375 286.195312 342.984375 286.761719 341.367188 287.292969 C 339.746094 287.820312 338.113281 288.308594 336.472656 288.757812 C 334.828125 289.207031 333.175781 289.613281 331.511719 289.980469 C 329.847656 290.347656 328.175781 290.671875 326.496094 290.957031 C 324.816406 291.242188 323.132812 291.488281 321.441406 291.6875 C 319.75 291.890625 318.054688 292.050781 316.355469 292.167969 C 314.65625 292.289062 312.953125 292.363281 311.25 292.398438 C 309.550781 292.433594 307.847656 292.425781 306.144531 292.378906 C 304.441406 292.328125 302.742188 292.238281 301.042969 292.105469 C 299.34375 291.972656 297.652344 291.796875 295.960938 291.582031 C 294.273438 291.367188 292.589844 291.109375 290.914062 290.808594 C 289.238281 290.511719 287.570312 290.171875 285.910156 289.789062 C 284.25 289.410156 282.597656 288.988281 280.960938 288.523438 C 279.320312 288.0625 277.695312 287.558594 276.078125 287.019531 C 274.464844 286.476562 272.863281 285.894531 271.277344 285.273438 C 269.691406 284.652344 268.121094 283.992188 266.566406 283.292969 C 265.015625 282.59375 263.480469 281.859375 261.960938 281.085938 C 260.445312 280.3125 258.945312 279.5 257.46875 278.652344 C 255.988281 277.804688 254.535156 276.921875 253.097656 276.003906 C 251.664062 275.082031 250.253906 274.128906 248.867188 273.140625 C 247.476562 272.152344 246.117188 271.128906 244.777344 270.074219 C 243.441406 269.019531 242.128906 267.929688 240.84375 266.808594 C 239.5625 265.6875 238.304688 264.539062 237.078125 263.355469 C 235.847656 262.171875 234.652344 260.960938 233.484375 259.71875 C 232.3125 258.480469 231.175781 257.210938 230.070312 255.910156 C 228.964844 254.613281 227.890625 253.292969 226.847656 251.941406 L 139.4375 138.621094 L 140.3125 131.753906 L 230.714844 248.949219 C 232.695312 251.53125 234.796875 254.007812 237.023438 256.382812 C 239.246094 258.753906 241.582031 261.011719 244.03125 263.152344 C 246.480469 265.292969 249.027344 267.308594 251.671875 269.195312 C 254.320312 271.082031 257.050781 272.835938 259.871094 274.453125 C 262.691406 276.070312 265.585938 277.542969 268.550781 278.875 C 271.515625 280.207031 274.539062 281.386719 277.621094 282.417969 C 280.703125 283.445312 283.828125 284.324219 286.996094 285.042969 C 290.164062 285.761719 293.363281 286.324219 296.585938 286.730469 Z M 298.144531 274.550781 C 300.96875 274.921875 303.800781 275.152344 306.648438 275.238281 C 309.496094 275.328125 312.339844 275.277344 315.179688 275.085938 C 318.023438 274.890625 320.847656 274.558594 323.65625 274.085938 C 326.464844 273.613281 329.246094 273.003906 331.992188 272.257812 C 334.742188 271.507812 337.445312 270.625 340.109375 269.609375 C 342.769531 268.59375 345.375 267.449219 347.925781 266.175781 C 350.476562 264.902344 352.953125 263.503906 355.367188 261.984375 C 357.777344 260.464844 360.109375 258.828125 362.359375 257.078125 L 365.347656 260.945312 C 364.160156 261.867188 362.949219 262.757812 361.714844 263.621094 C 360.480469 264.484375 359.226562 265.316406 357.953125 266.117188 C 356.679688 266.917969 355.386719 267.683594 354.078125 268.421875 C 352.765625 269.160156 351.4375 269.863281 350.09375 270.535156 C 348.746094 271.207031 347.382812 271.847656 346.007812 272.449219 C 344.628906 273.054688 343.238281 273.625 341.835938 274.164062 C 340.429688 274.699219 339.011719 275.199219 337.582031 275.667969 C 336.152344 276.132812 334.714844 276.566406 333.265625 276.960938 C 331.8125 277.355469 330.355469 277.714844 328.886719 278.039062 C 327.417969 278.363281 325.941406 278.652344 324.460938 278.902344 C 322.976562 279.152344 321.492188 279.367188 320 279.546875 C 318.503906 279.726562 317.007812 279.867188 315.511719 279.972656 C 314.011719 280.074219 312.507812 280.144531 311.007812 280.175781 C 309.503906 280.203125 308 280.199219 306.5 280.15625 C 304.996094 280.113281 303.496094 280.03125 301.996094 279.914062 C 300.5 279.796875 299.003906 279.644531 297.511719 279.453125 C 296.023438 279.261719 294.539062 279.035156 293.058594 278.769531 C 291.578125 278.507812 290.105469 278.207031 288.640625 277.871094 C 287.175781 277.535156 285.71875 277.164062 284.273438 276.753906 C 282.828125 276.347656 281.390625 275.902344 279.964844 275.425781 C 278.542969 274.945312 277.128906 274.433594 275.730469 273.886719 C 274.328125 273.335938 272.945312 272.753906 271.574219 272.136719 C 270.203125 271.523438 268.847656 270.871094 267.507812 270.191406 C 266.167969 269.507812 264.847656 268.792969 263.542969 268.042969 C 262.238281 267.296875 260.953125 266.515625 259.6875 265.703125 C 258.421875 264.890625 257.175781 264.050781 255.949219 263.179688 C 254.726562 262.304688 253.523438 261.402344 252.34375 260.472656 C 251.164062 259.539062 250.003906 258.578125 248.871094 257.589844 C 247.738281 256.601562 246.628906 255.585938 245.546875 254.542969 C 244.464844 253.5 243.40625 252.429688 242.375 251.332031 C 241.34375 250.238281 240.339844 249.117188 239.363281 247.972656 C 238.386719 246.828125 237.441406 245.660156 236.519531 244.46875 L 141.632812 121.453125 L 142.511719 114.566406 L 240.386719 241.476562 C 242.125 243.738281 243.96875 245.910156 245.917969 247.988281 C 247.871094 250.066406 249.917969 252.046875 252.066406 253.921875 C 254.210938 255.796875 256.445312 257.5625 258.765625 259.214844 C 261.085938 260.871094 263.480469 262.40625 265.953125 263.820312 C 268.425781 265.238281 270.960938 266.53125 273.5625 267.695312 C 276.164062 268.859375 278.8125 269.894531 281.515625 270.796875 C 284.21875 271.699219 286.957031 272.464844 289.734375 273.09375 C 292.511719 273.726562 295.316406 274.21875 298.140625 274.570312 Z M 299.703125 262.371094 C 302.128906 262.6875 304.566406 262.882812 307.015625 262.957031 C 309.460938 263.03125 311.90625 262.984375 314.351562 262.816406 C 316.792969 262.648438 319.222656 262.359375 321.636719 261.953125 C 324.050781 261.542969 326.441406 261.015625 328.804688 260.371094 C 331.167969 259.722656 333.492188 258.960938 335.78125 258.085938 C 338.066406 257.207031 340.304688 256.222656 342.496094 255.121094 C 344.6875 254.023438 346.816406 252.820312 348.890625 251.511719 C 350.960938 250.199219 352.960938 248.789062 354.894531 247.28125 L 357.875 251.226562 C 356.84375 252.027344 355.792969 252.800781 354.726562 253.546875 C 353.65625 254.292969 352.570312 255.015625 351.464844 255.710938 C 350.363281 256.402344 349.242188 257.070312 348.105469 257.707031 C 346.96875 258.347656 345.816406 258.957031 344.648438 259.539062 C 343.484375 260.125 342.304688 260.675781 341.109375 261.199219 C 339.914062 261.726562 338.710938 262.21875 337.492188 262.683594 C 336.273438 263.148438 335.046875 263.585938 333.808594 263.988281 C 332.566406 264.394531 331.320312 264.765625 330.0625 265.109375 C 328.804688 265.453125 327.539062 265.765625 326.265625 266.046875 C 324.996094 266.328125 323.714844 266.574219 322.429688 266.792969 C 321.144531 267.011719 319.855469 267.199219 318.5625 267.351562 C 317.269531 267.507812 315.972656 267.628906 314.671875 267.71875 C 313.371094 267.808594 312.070312 267.867188 310.769531 267.894531 C 309.464844 267.921875 308.164062 267.917969 306.859375 267.878906 C 305.558594 267.839844 304.257812 267.773438 302.957031 267.671875 C 301.660156 267.570312 300.363281 267.4375 299.070312 267.269531 C 297.78125 267.105469 296.492188 266.90625 295.210938 266.679688 C 293.925781 266.449219 292.648438 266.191406 291.378906 265.898438 C 290.109375 265.609375 288.847656 265.285156 287.59375 264.933594 C 286.339844 264.578125 285.09375 264.195312 283.859375 263.777344 C 282.625 263.363281 281.402344 262.917969 280.1875 262.445312 C 278.972656 261.96875 277.773438 261.464844 276.585938 260.929688 C 275.394531 260.394531 274.222656 259.832031 273.058594 259.242188 C 271.898438 258.648438 270.753906 258.027344 269.621094 257.378906 C 268.492188 256.730469 267.378906 256.054688 266.28125 255.351562 C 265.183594 254.648438 264.105469 253.917969 263.042969 253.164062 C 261.980469 252.40625 260.9375 251.625 259.914062 250.816406 C 258.890625 250.007812 257.886719 249.175781 256.90625 248.320312 C 255.921875 247.460938 254.960938 246.582031 254.023438 245.675781 C 253.085938 244.773438 252.167969 243.84375 251.273438 242.894531 C 250.378906 241.945312 249.511719 240.972656 248.664062 239.980469 C 247.816406 238.988281 246.996094 237.976562 246.199219 236.945312 L 143.832031 104.246094 L 144.710938 97.375 L 250.082031 233.976562 C 253.074219 237.871094 256.417969 241.433594 260.113281 244.667969 C 263.808594 247.898438 267.789062 250.734375 272.046875 253.175781 C 276.304688 255.617188 280.757812 257.613281 285.414062 259.171875 C 290.066406 260.726562 294.828125 261.808594 299.695312 262.417969 Z M 347.410156 237.667969 L 350.398438 241.542969 C 349.523438 242.214844 348.636719 242.867188 347.730469 243.5 C 346.824219 244.128906 345.90625 244.738281 344.972656 245.324219 C 344.035156 245.910156 343.089844 246.472656 342.125 247.011719 C 341.164062 247.550781 340.1875 248.066406 339.203125 248.558594 C 338.214844 249.050781 337.214844 249.515625 336.207031 249.957031 C 335.195312 250.402344 334.175781 250.820312 333.144531 251.210938 C 332.113281 251.601562 331.074219 251.96875 330.027344 252.3125 C 328.976562 252.652344 327.921875 252.96875 326.859375 253.257812 C 325.792969 253.546875 324.726562 253.808594 323.648438 254.046875 C 322.570312 254.28125 321.488281 254.492188 320.402344 254.675781 C 319.316406 254.859375 318.226562 255.015625 317.132812 255.148438 C 316.035156 255.277344 314.941406 255.378906 313.839844 255.457031 C 312.742188 255.535156 311.640625 255.582031 310.539062 255.605469 C 309.4375 255.625 308.335938 255.621094 307.234375 255.589844 C 306.132812 255.558594 305.03125 255.5 303.933594 255.414062 C 302.832031 255.328125 301.738281 255.214844 300.644531 255.074219 C 299.550781 254.933594 298.460938 254.769531 297.378906 254.574219 C 296.292969 254.382812 295.214844 254.160156 294.140625 253.914062 C 293.066406 253.667969 291.996094 253.394531 290.9375 253.097656 C 289.875 252.796875 288.824219 252.472656 287.777344 252.125 C 286.734375 251.773438 285.695312 251.398438 284.671875 250.996094 C 283.644531 250.59375 282.628906 250.167969 281.621094 249.71875 C 280.617188 249.265625 279.621094 248.789062 278.640625 248.289062 C 277.65625 247.789062 276.6875 247.265625 275.730469 246.71875 C 274.773438 246.171875 273.832031 245.597656 272.902344 245.003906 C 271.976562 244.410156 271.0625 243.792969 270.164062 243.15625 C 269.265625 242.515625 268.382812 241.855469 267.515625 241.171875 C 266.648438 240.492188 265.800781 239.789062 264.96875 239.0625 C 264.136719 238.339844 263.324219 237.597656 262.527344 236.832031 C 261.730469 236.066406 260.957031 235.285156 260.199219 234.484375 C 259.441406 233.679688 258.703125 232.859375 257.988281 232.023438 C 257.269531 231.183594 256.574219 230.328125 255.898438 229.453125 L 146.066406 87.070312 L 146.945312 80.199219 L 259.742188 226.453125 C 260.992188 228.074219 262.320312 229.632812 263.726562 231.121094 C 265.132812 232.613281 266.605469 234.03125 268.148438 235.375 C 269.695312 236.722656 271.300781 237.988281 272.96875 239.175781 C 274.636719 240.363281 276.359375 241.464844 278.132812 242.484375 C 279.910156 243.5 281.730469 244.429688 283.597656 245.269531 C 285.464844 246.105469 287.371094 246.851562 289.308594 247.503906 C 291.25 248.15625 293.21875 248.710938 295.210938 249.167969 C 297.207031 249.625 299.21875 249.984375 301.25 250.242188 C 303.28125 250.503906 305.316406 250.660156 307.363281 250.722656 C 309.410156 250.78125 311.453125 250.738281 313.492188 250.597656 C 315.535156 250.453125 317.566406 250.210938 319.582031 249.871094 C 321.601562 249.53125 323.597656 249.089844 325.574219 248.550781 C 327.546875 248.011719 329.492188 247.378906 331.40625 246.648438 C 333.320312 245.921875 335.191406 245.097656 337.023438 244.1875 C 338.859375 243.273438 340.640625 242.269531 342.375 241.183594 C 344.113281 240.09375 345.789062 238.921875 347.410156 237.667969 Z M 347.410156 237.667969 " clip-rule="nonzero"/></clipPath><linearGradient x1="-38.518351" gradientTransform="matrix(0.081978, -0.640966, -0.639496, -0.0817899, 368.951316, 300.916072)" y1="1.029832" x2="344.607048" gradientUnits="userSpaceOnUse" y2="467.293215" id="e585e93946"><stop stop-opacity="1" stop-color="rgb(0%, 76.098633%, 100%)" offset="0"/><stop stop-opacity="1" stop-color="rgb(0%, 76.098633%, 100%)" offset="0.25"/><stop stop-opacity="1" stop-color="rgb(0%, 76.098633%, 100%)" offset="0.3125"/><stop stop-opacity="1" stop-color="rgb(0%, 76.098633%, 100%)" offset="0.320312"/><stop stop-opacity="1" stop-color="rgb(0%, 75.852966%, 100%)" offset="0.324219"/><stop stop-opacity="1" stop-color="rgb(0%, 75.6073%, 100%)" offset="0.328125"/><stop stop-opacity="1" stop-color="rgb(0%, 75.105286%, 100%)" offset="0.332031"/><stop stop-opacity="1" stop-color="rgb(0%, 74.603271%, 100%)" offset="0.335938"/><stop stop-opacity="1" stop-color="rgb(0%, 74.101257%, 100%)" offset="0.339844"/><stop stop-opacity="1" stop-color="rgb(0%, 73.600769%, 100%)" offset="0.34375"/><stop stop-opacity="1" stop-color="rgb(0%, 73.098755%, 100%)" offset="0.347656"/><stop stop-opacity="1" stop-color="rgb(0%, 72.596741%, 100%)" offset="0.351562"/><stop stop-opacity="1" stop-color="rgb(0%, 72.094727%, 100%)" offset="0.355469"/><stop stop-opacity="1" stop-color="rgb(0%, 71.592712%, 100%)" offset="0.359375"/><stop stop-opacity="1" stop-color="rgb(0%, 71.090698%, 100%)" offset="0.363281"/><stop stop-opacity="1" stop-color="rgb(0%, 70.588684%, 100%)" offset="0.367188"/><stop stop-opacity="1" stop-color="rgb(0%, 70.08667%, 100%)" offset="0.371094"/><stop stop-opacity="1" stop-color="rgb(0%, 69.584656%, 100%)" offset="0.375"/><stop stop-opacity="1" stop-color="rgb(0%, 69.082642%, 100%)" offset="0.378906"/><stop stop-opacity="1" stop-color="rgb(0%, 68.580627%, 100%)" offset="0.382812"/><stop stop-opacity="1" stop-color="rgb(0%, 68.078613%, 100%)" offset="0.386719"/><stop stop-opacity="1" stop-color="rgb(0%, 67.576599%, 100%)" offset="0.390625"/><stop stop-opacity="1" stop-color="rgb(0%, 67.074585%, 100%)" offset="0.394531"/><stop stop-opacity="1" stop-color="rgb(0%, 66.572571%, 100%)" offset="0.398438"/><stop stop-opacity="1" stop-color="rgb(0%, 66.070557%, 100%)" offset="0.402344"/><stop stop-opacity="1" stop-color="rgb(0%, 65.568542%, 100%)" offset="0.40625"/><stop stop-opacity="1" stop-color="rgb(0%, 65.066528%, 100%)" offset="0.410156"/><stop stop-opacity="1" stop-color="rgb(0%, 64.564514%, 100%)" offset="0.414062"/><stop stop-opacity="1" stop-color="rgb(0%, 64.0625%, 100%)" offset="0.417969"/><stop stop-opacity="1" stop-color="rgb(0%, 63.560486%, 100%)" offset="0.421875"/><stop stop-opacity="1" stop-color="rgb(0%, 63.058472%, 100%)" offset="0.425781"/><stop stop-opacity="1" stop-color="rgb(0%, 62.556458%, 100%)" offset="0.429687"/><stop stop-opacity="1" stop-color="rgb(0%, 62.054443%, 100%)" offset="0.433594"/><stop stop-opacity="1" stop-color="rgb(0%, 61.552429%, 100%)" offset="0.4375"/><stop stop-opacity="1" stop-color="rgb(0%, 61.050415%, 100%)" offset="0.441406"/><stop stop-opacity="1" stop-color="rgb(0%, 60.548401%, 100%)" offset="0.445312"/><stop stop-opacity="1" stop-color="rgb(0%, 60.046387%, 100%)" offset="0.449219"/><stop stop-opacity="1" stop-color="rgb(0%, 59.544373%, 100%)" offset="0.453125"/><stop stop-opacity="1" stop-color="rgb(0%, 59.042358%, 100%)" offset="0.457031"/><stop stop-opacity="1" stop-color="rgb(0%, 58.540344%, 100%)" offset="0.460937"/><stop stop-opacity="1" stop-color="rgb(0%, 58.03833%, 100%)" offset="0.464844"/><stop stop-opacity="1" stop-color="rgb(0%, 57.536316%, 100%)" offset="0.46875"/><stop stop-opacity="1" stop-color="rgb(0%, 57.034302%, 100%)" offset="0.472656"/><stop stop-opacity="1" stop-color="rgb(0%, 56.532288%, 100%)" offset="0.476562"/><stop stop-opacity="1" stop-color="rgb(0%, 56.030273%, 100%)" offset="0.480469"/><stop stop-opacity="1" stop-color="rgb(0%, 55.528259%, 100%)" offset="0.484375"/><stop stop-opacity="1" stop-color="rgb(0%, 55.026245%, 100%)" offset="0.488281"/><stop stop-opacity="1" stop-color="rgb(0%, 54.524231%, 100%)" offset="0.492187"/><stop stop-opacity="1" stop-color="rgb(0%, 54.022217%, 100%)" offset="0.496094"/><stop stop-opacity="1" stop-color="rgb(0%, 53.520203%, 100%)" offset="0.5"/><stop stop-opacity="1" stop-color="rgb(0%, 53.018188%, 100%)" offset="0.503906"/><stop stop-opacity="1" stop-color="rgb(0%, 52.516174%, 100%)" offset="0.507812"/><stop stop-opacity="1" stop-color="rgb(0%, 52.01416%, 100%)" offset="0.511719"/><stop stop-opacity="1" stop-color="rgb(0%, 51.512146%, 100%)" offset="0.515625"/><stop stop-opacity="1" stop-color="rgb(0%, 51.010132%, 100%)" offset="0.519531"/><stop stop-opacity="1" stop-color="rgb(0%, 50.508118%, 100%)" offset="0.523438"/><stop stop-opacity="1" stop-color="rgb(0%, 50.006104%, 100%)" offset="0.527344"/><stop stop-opacity="1" stop-color="rgb(0%, 49.504089%, 100%)" offset="0.53125"/><stop stop-opacity="1" stop-color="rgb(0%, 49.002075%, 100%)" offset="0.535156"/><stop stop-opacity="1" stop-color="rgb(0%, 48.500061%, 100%)" offset="0.539062"/><stop stop-opacity="1" stop-color="rgb(0%, 47.998047%, 100%)" offset="0.542969"/><stop stop-opacity="1" stop-color="rgb(0%, 47.496033%, 100%)" offset="0.546875"/><stop stop-opacity="1" stop-color="rgb(0%, 46.994019%, 100%)" offset="0.550781"/><stop stop-opacity="1" stop-color="rgb(0%, 46.49353%, 100%)" offset="0.554688"/><stop stop-opacity="1" stop-color="rgb(0%, 45.991516%, 100%)" offset="0.558594"/><stop stop-opacity="1" stop-color="rgb(0%, 45.489502%, 100%)" offset="0.5625"/><stop stop-opacity="1" stop-color="rgb(0%, 44.987488%, 100%)" offset="0.566406"/><stop stop-opacity="1" stop-color="rgb(0%, 44.485474%, 100%)" offset="0.570312"/><stop stop-opacity="1" stop-color="rgb(0%, 43.983459%, 100%)" offset="0.574219"/><stop stop-opacity="1" stop-color="rgb(0%, 43.481445%, 100%)" offset="0.578125"/><stop stop-opacity="1" stop-color="rgb(0%, 42.979431%, 100%)" offset="0.582031"/><stop stop-opacity="1" stop-color="rgb(0%, 42.477417%, 100%)" offset="0.585938"/><stop stop-opacity="1" stop-color="rgb(0%, 41.975403%, 100%)" offset="0.589844"/><stop stop-opacity="1" stop-color="rgb(0%, 41.473389%, 100%)" offset="0.59375"/><stop stop-opacity="1" stop-color="rgb(0%, 40.971375%, 100%)" offset="0.597656"/><stop stop-opacity="1" stop-color="rgb(0%, 40.46936%, 100%)" offset="0.601562"/><stop stop-opacity="1" stop-color="rgb(0%, 39.967346%, 100%)" offset="0.605469"/><stop stop-opacity="1" stop-color="rgb(0%, 39.465332%, 100%)" offset="0.609375"/><stop stop-opacity="1" stop-color="rgb(0%, 38.963318%, 100%)" offset="0.613281"/><stop stop-opacity="1" stop-color="rgb(0%, 38.461304%, 100%)" offset="0.617187"/><stop stop-opacity="1" stop-color="rgb(0%, 37.95929%, 100%)" offset="0.621094"/><stop stop-opacity="1" stop-color="rgb(0%, 37.457275%, 100%)" offset="0.625"/><stop stop-opacity="1" stop-color="rgb(0%, 36.955261%, 100%)" offset="0.628906"/><stop stop-opacity="1" stop-color="rgb(0%, 36.453247%, 100%)" offset="0.632812"/><stop stop-opacity="1" stop-color="rgb(0%, 35.951233%, 100%)" offset="0.636719"/><stop stop-opacity="1" stop-color="rgb(0%, 35.449219%, 100%)" offset="0.640625"/><stop stop-opacity="1" stop-color="rgb(0%, 34.947205%, 100%)" offset="0.644531"/><stop stop-opacity="1" stop-color="rgb(0%, 34.44519%, 100%)" offset="0.648437"/><stop stop-opacity="1" stop-color="rgb(0%, 33.943176%, 100%)" offset="0.652344"/><stop stop-opacity="1" stop-color="rgb(0%, 33.441162%, 100%)" offset="0.65625"/><stop stop-opacity="1" stop-color="rgb(0%, 32.939148%, 100%)" offset="0.660156"/><stop stop-opacity="1" stop-color="rgb(0%, 32.437134%, 100%)" offset="0.664062"/><stop stop-opacity="1" stop-color="rgb(0%, 31.93512%, 100%)" offset="0.667969"/><stop stop-opacity="1" stop-color="rgb(0%, 31.433105%, 100%)" offset="0.671875"/><stop stop-opacity="1" stop-color="rgb(0%, 30.931091%, 100%)" offset="0.675781"/><stop stop-opacity="1" stop-color="rgb(0%, 30.429077%, 100%)" offset="0.679688"/><stop stop-opacity="1" stop-color="rgb(0%, 29.927063%, 100%)" offset="0.683594"/><stop stop-opacity="1" stop-color="rgb(0%, 29.425049%, 100%)" offset="0.6875"/><stop stop-opacity="1" stop-color="rgb(0%, 28.923035%, 100%)" offset="0.691406"/><stop stop-opacity="1" stop-color="rgb(0%, 28.421021%, 100%)" offset="0.695312"/><stop stop-opacity="1" stop-color="rgb(0%, 27.919006%, 100%)" offset="0.699219"/><stop stop-opacity="1" stop-color="rgb(0%, 27.416992%, 100%)" offset="0.703125"/><stop stop-opacity="1" stop-color="rgb(0%, 26.914978%, 100%)" offset="0.707031"/><stop stop-opacity="1" stop-color="rgb(0%, 26.412964%, 100%)" offset="0.710938"/><stop stop-opacity="1" stop-color="rgb(0%, 25.91095%, 100%)" offset="0.714844"/><stop stop-opacity="1" stop-color="rgb(0%, 25.408936%, 100%)" offset="0.71875"/><stop stop-opacity="1" stop-color="rgb(0%, 24.906921%, 100%)" offset="0.722656"/><stop stop-opacity="1" stop-color="rgb(0%, 24.404907%, 100%)" offset="0.726562"/><stop stop-opacity="1" stop-color="rgb(0%, 23.902893%, 100%)" offset="0.730469"/><stop stop-opacity="1" stop-color="rgb(0%, 23.400879%, 100%)" offset="0.734375"/><stop stop-opacity="1" stop-color="rgb(0%, 22.898865%, 100%)" offset="0.738281"/><stop stop-opacity="1" stop-color="rgb(0%, 22.396851%, 100%)" offset="0.742187"/><stop stop-opacity="1" stop-color="rgb(0%, 21.894836%, 100%)" offset="0.746094"/><stop stop-opacity="1" stop-color="rgb(0%, 21.392822%, 100%)" offset="0.75"/><stop stop-opacity="1" stop-color="rgb(0%, 20.890808%, 100%)" offset="0.753906"/><stop stop-opacity="1" stop-color="rgb(0%, 20.388794%, 100%)" offset="0.757812"/><stop stop-opacity="1" stop-color="rgb(0%, 19.88678%, 100%)" offset="0.761719"/><stop stop-opacity="1" stop-color="rgb(0%, 19.386292%, 100%)" offset="0.765625"/><stop stop-opacity="1" stop-color="rgb(0%, 19.091797%, 100%)" offset="0.769531"/><stop stop-opacity="1" stop-color="rgb(0%, 18.798828%, 100%)" offset="0.773437"/><stop stop-opacity="1" stop-color="rgb(0%, 18.798828%, 100%)" offset="0.78125"/><stop stop-opacity="1" stop-color="rgb(0%, 18.798828%, 100%)" offset="0.8125"/><stop stop-opacity="1" stop-color="rgb(0%, 18.798828%, 100%)" offset="0.875"/><stop stop-opacity="1" stop-color="rgb(0%, 18.798828%, 100%)" offset="1"/></linearGradient><clipPath id="e4a6272112"><path d="M 6 35 L 198 35 L 198 309 L 6 309 Z M 6 35 " clip-rule="nonzero"/></clipPath><clipPath id="9a82745156"><path d="M -44.253906 78.664062 L 180.535156 28.8125 L 231.523438 258.730469 L 6.734375 308.578125 Z M -44.253906 78.664062 " clip-rule="nonzero"/></clipPath><clipPath id="4023ee8e4d"><path d="M 180.511719 28.820312 L -44.277344 78.667969 L 6.710938 308.582031 L 231.5 258.734375 Z M 180.511719 28.820312 " clip-rule="nonzero"/></clipPath><clipPath id="7d006a48b2"><path d="M 118.457031 87.941406 L 120.953125 84.03125 C 122.074219 84.75 123.164062 85.519531 124.210938 86.34375 C 125.261719 87.167969 126.265625 88.039062 127.230469 88.964844 C 128.195312 89.886719 129.109375 90.855469 129.976562 91.867188 C 130.84375 92.878906 131.660156 93.929688 132.425781 95.023438 C 133.191406 96.117188 133.902344 97.242188 134.554688 98.40625 C 135.207031 99.566406 135.804688 100.757812 136.339844 101.980469 C 136.878906 103.199219 137.355469 104.445312 137.769531 105.710938 C 138.183594 106.976562 138.535156 108.261719 138.824219 109.5625 C 139.113281 110.867188 139.335938 112.179688 139.496094 113.503906 C 139.65625 114.824219 139.75 116.15625 139.78125 117.488281 C 139.808594 118.820312 139.773438 120.152344 139.671875 121.480469 C 139.570312 122.8125 139.402344 124.132812 139.171875 125.445312 C 138.941406 126.757812 138.648438 128.058594 138.289062 129.34375 C 137.929688 130.628906 137.507812 131.890625 137.027344 133.132812 C 136.542969 134.378906 136 135.59375 135.398438 136.785156 C 134.796875 137.976562 134.136719 139.132812 133.421875 140.257812 L 29.253906 303.582031 L 22.84375 305.003906 L 129.507812 137.769531 C 130.140625 136.773438 130.726562 135.746094 131.257812 134.691406 C 131.792969 133.636719 132.273438 132.558594 132.703125 131.457031 C 133.128906 130.355469 133.503906 129.234375 133.820312 128.097656 C 134.140625 126.957031 134.402344 125.804688 134.605469 124.640625 C 134.8125 123.480469 134.957031 122.308594 135.050781 121.128906 C 135.140625 119.949219 135.171875 118.769531 135.144531 117.589844 C 135.117188 116.410156 135.035156 115.230469 134.894531 114.058594 C 134.753906 112.886719 134.554688 111.722656 134.296875 110.566406 C 134.042969 109.414062 133.730469 108.277344 133.363281 107.152344 C 132.996094 106.03125 132.574219 104.925781 132.097656 103.847656 C 131.621094 102.765625 131.09375 101.707031 130.515625 100.679688 C 129.933594 99.648438 129.304688 98.648438 128.628906 97.683594 C 127.949219 96.714844 127.226562 95.78125 126.457031 94.882812 C 125.6875 93.988281 124.875 93.128906 124.023438 92.3125 C 123.167969 91.496094 122.277344 90.722656 121.347656 89.992188 C 120.417969 89.261719 119.453125 88.578125 118.457031 87.941406 Z M 119.710938 131.515625 C 120.140625 130.839844 120.535156 130.140625 120.898438 129.425781 C 121.261719 128.710938 121.585938 127.980469 121.878906 127.230469 C 122.167969 126.484375 122.421875 125.722656 122.636719 124.953125 C 122.851562 124.179688 123.03125 123.398438 123.167969 122.609375 C 123.308594 121.816406 123.410156 121.023438 123.46875 120.222656 C 123.53125 119.425781 123.550781 118.625 123.535156 117.820312 C 123.515625 117.019531 123.460938 116.222656 123.363281 115.425781 C 123.269531 114.628906 123.132812 113.839844 122.960938 113.058594 C 122.785156 112.273438 122.574219 111.5 122.324219 110.738281 C 122.074219 109.976562 121.789062 109.230469 121.464844 108.496094 C 121.144531 107.761719 120.785156 107.046875 120.390625 106.347656 C 120 105.648438 119.574219 104.96875 119.113281 104.3125 C 118.652344 103.65625 118.160156 103.023438 117.640625 102.414062 C 117.117188 101.804688 116.566406 101.222656 115.988281 100.667969 C 115.40625 100.113281 114.804688 99.589844 114.171875 99.09375 C 113.542969 98.597656 112.886719 98.132812 112.210938 97.703125 L 114.707031 93.792969 C 115.511719 94.304688 116.285156 94.855469 117.039062 95.445312 C 117.789062 96.035156 118.507812 96.660156 119.195312 97.320312 C 119.882812 97.980469 120.539062 98.671875 121.160156 99.394531 C 121.78125 100.121094 122.363281 100.871094 122.910156 101.652344 C 123.457031 102.4375 123.964844 103.242188 124.433594 104.074219 C 124.902344 104.902344 125.328125 105.757812 125.710938 106.628906 C 126.09375 107.5 126.433594 108.390625 126.730469 109.296875 C 127.027344 110.203125 127.28125 111.121094 127.484375 112.054688 C 127.691406 112.984375 127.851562 113.921875 127.96875 114.871094 C 128.082031 115.816406 128.148438 116.765625 128.171875 117.71875 C 128.191406 118.671875 128.164062 119.625 128.09375 120.578125 C 128.019531 121.527344 127.902344 122.472656 127.734375 123.410156 C 127.570312 124.351562 127.359375 125.28125 127.101562 126.199219 C 126.847656 127.117188 126.546875 128.019531 126.199219 128.910156 C 125.855469 129.800781 125.46875 130.667969 125.039062 131.519531 C 124.605469 132.371094 124.136719 133.199219 123.625 134.003906 L 13.210938 307.140625 L 6.8125 308.558594 Z M 145.648438 108.046875 C 144.980469 104.988281 144.015625 102.023438 142.757812 99.15625 C 141.5 96.285156 139.972656 93.570312 138.171875 91.003906 C 136.375 88.4375 134.339844 86.074219 132.074219 83.914062 C 129.804688 81.75 127.347656 79.832031 124.699219 78.15625 L 127.191406 74.246094 C 128.636719 75.167969 130.035156 76.15625 131.386719 77.214844 C 132.734375 78.273438 134.03125 79.394531 135.269531 80.578125 C 136.507812 81.761719 137.683594 83.003906 138.800781 84.304688 C 139.917969 85.605469 140.96875 86.957031 141.953125 88.363281 C 142.9375 89.765625 143.847656 91.214844 144.691406 92.707031 C 145.53125 94.199219 146.296875 95.730469 146.988281 97.300781 C 147.679688 98.867188 148.289062 100.46875 148.824219 102.097656 C 149.355469 103.726562 149.808594 105.375 150.179688 107.050781 C 150.550781 108.722656 150.839844 110.410156 151.042969 112.109375 C 151.25 113.8125 151.371094 115.519531 151.40625 117.234375 C 151.445312 118.945312 151.398438 120.65625 151.265625 122.367188 C 151.136719 124.074219 150.921875 125.773438 150.625 127.460938 C 150.324219 129.148438 149.945312 130.820312 149.484375 132.46875 C 149.019531 134.121094 148.476562 135.746094 147.855469 137.34375 C 147.234375 138.941406 146.535156 140.503906 145.757812 142.03125 C 144.984375 143.5625 144.136719 145.046875 143.214844 146.492188 L 45.285156 300.027344 L 38.878906 301.449219 L 139.296875 144 C 140.992188 141.359375 142.410156 138.582031 143.550781 135.664062 C 144.691406 132.746094 145.535156 129.742188 146.078125 126.65625 C 146.625 123.570312 146.859375 120.460938 146.789062 117.332031 C 146.714844 114.199219 146.335938 111.105469 145.648438 108.046875 Z M 190.996094 97.992188 C 190.339844 94.980469 189.53125 92.007812 188.578125 89.078125 C 187.625 86.148438 186.527344 83.269531 185.289062 80.445312 C 184.050781 77.625 182.675781 74.871094 181.164062 72.183594 C 179.652344 69.496094 178.011719 66.890625 176.242188 64.367188 C 174.472656 61.839844 172.582031 59.410156 170.574219 57.074219 C 168.5625 54.734375 166.441406 52.503906 164.210938 50.375 C 161.980469 48.246094 159.648438 46.234375 157.214844 44.335938 C 154.785156 42.441406 152.265625 40.667969 149.660156 39.019531 L 152.148438 35.109375 C 153.511719 35.976562 154.855469 36.878906 156.171875 37.8125 C 157.492188 38.746094 158.789062 39.710938 160.0625 40.707031 C 161.332031 41.703125 162.582031 42.730469 163.800781 43.789062 C 165.023438 44.847656 166.21875 45.933594 167.386719 47.050781 C 168.554688 48.167969 169.695312 49.3125 170.808594 50.488281 C 171.917969 51.660156 173 52.859375 174.054688 54.085938 C 175.105469 55.3125 176.128906 56.5625 177.121094 57.839844 C 178.113281 59.113281 179.070312 60.414062 180 61.738281 C 180.925781 63.058594 181.820312 64.40625 182.683594 65.773438 C 183.542969 67.140625 184.371094 68.527344 185.164062 69.933594 C 185.957031 71.34375 186.714844 72.769531 187.4375 74.214844 C 188.160156 75.660156 188.847656 77.121094 189.5 78.597656 C 190.152344 80.078125 190.765625 81.570312 191.34375 83.082031 C 191.921875 84.589844 192.460938 86.113281 192.964844 87.648438 C 193.46875 89.183594 193.933594 90.730469 194.359375 92.289062 C 194.785156 93.84375 195.175781 95.414062 195.523438 96.992188 C 195.875 98.566406 196.183594 100.152344 196.457031 101.746094 C 196.726562 103.335938 196.960938 104.9375 197.152344 106.539062 C 197.347656 108.144531 197.5 109.753906 197.617188 111.363281 C 197.730469 112.976562 197.804688 114.589844 197.839844 116.203125 C 197.875 117.820312 197.871094 119.433594 197.824219 121.050781 C 197.78125 122.664062 197.695312 124.277344 197.574219 125.890625 C 197.449219 127.5 197.285156 129.105469 197.082031 130.710938 C 196.878906 132.3125 196.636719 133.910156 196.355469 135.5 C 196.074219 137.09375 195.757812 138.675781 195.398438 140.25 C 195.039062 141.828125 194.640625 143.394531 194.203125 144.949219 C 193.769531 146.503906 193.292969 148.050781 192.78125 149.582031 C 192.269531 151.117188 191.722656 152.636719 191.136719 154.140625 C 190.546875 155.648438 189.925781 157.136719 189.265625 158.613281 C 188.605469 160.089844 187.910156 161.546875 187.179688 162.988281 C 186.445312 164.429688 185.679688 165.851562 184.878906 167.257812 C 184.078125 168.660156 183.242188 170.042969 182.375 171.40625 L 109.410156 285.808594 L 103.007812 287.226562 L 178.464844 168.914062 C 180.128906 166.320312 181.664062 163.648438 183.066406 160.898438 C 184.464844 158.152344 185.726562 155.34375 186.851562 152.472656 C 187.972656 149.597656 188.953125 146.679688 189.785156 143.710938 C 190.621094 140.742188 191.304688 137.738281 191.839844 134.703125 C 192.378906 131.667969 192.761719 128.613281 192.996094 125.539062 C 193.230469 122.464844 193.3125 119.386719 193.242188 116.304688 C 193.171875 113.222656 192.949219 110.152344 192.574219 107.09375 C 192.199219 104.03125 191.671875 101 190.996094 97.992188 Z M 179.640625 100.507812 C 179.0625 97.871094 178.359375 95.265625 177.523438 92.695312 C 176.6875 90.128906 175.730469 87.605469 174.644531 85.128906 C 173.5625 82.65625 172.359375 80.242188 171.035156 77.886719 C 169.710938 75.53125 168.273438 73.246094 166.726562 71.03125 C 165.175781 68.816406 163.519531 66.6875 161.761719 64.636719 C 160 62.585938 158.144531 60.628906 156.1875 58.761719 C 154.234375 56.894531 152.191406 55.128906 150.0625 53.464844 C 147.933594 51.800781 145.726562 50.246094 143.441406 48.796875 L 145.929688 44.890625 C 147.136719 45.65625 148.320312 46.449219 149.484375 47.273438 C 150.648438 48.097656 151.792969 48.949219 152.914062 49.828125 C 154.039062 50.707031 155.136719 51.613281 156.21875 52.546875 C 157.296875 53.484375 158.351562 54.441406 159.378906 55.429688 C 160.410156 56.414062 161.417969 57.425781 162.398438 58.457031 C 163.378906 59.492188 164.335938 60.550781 165.265625 61.632812 C 166.195312 62.714844 167.097656 63.820312 167.972656 64.945312 C 168.847656 66.074219 169.691406 67.21875 170.511719 68.386719 C 171.332031 69.554688 172.121094 70.742188 172.878906 71.949219 C 173.640625 73.15625 174.371094 74.378906 175.070312 75.621094 C 175.769531 76.863281 176.4375 78.121094 177.078125 79.398438 C 177.714844 80.671875 178.320312 81.964844 178.894531 83.269531 C 179.472656 84.574219 180.011719 85.890625 180.523438 87.222656 C 181.03125 88.554688 181.511719 89.898438 181.953125 91.253906 C 182.398438 92.609375 182.808594 93.972656 183.183594 95.347656 C 183.5625 96.722656 183.902344 98.105469 184.210938 99.5 C 184.519531 100.890625 184.796875 102.289062 185.035156 103.695312 C 185.273438 105.101562 185.480469 106.511719 185.652344 107.925781 C 185.820312 109.34375 185.957031 110.761719 186.058594 112.183594 C 186.160156 113.605469 186.226562 115.03125 186.253906 116.457031 C 186.285156 117.878906 186.28125 119.304688 186.242188 120.730469 C 186.203125 122.15625 186.128906 123.582031 186.019531 125.003906 C 185.910156 126.425781 185.765625 127.84375 185.589844 129.257812 C 185.410156 130.671875 185.195312 132.082031 184.949219 133.484375 C 184.699219 134.890625 184.417969 136.289062 184.101562 137.679688 C 183.785156 139.066406 183.433594 140.449219 183.046875 141.824219 C 182.664062 143.195312 182.246094 144.558594 181.792969 145.914062 C 181.339844 147.265625 180.855469 148.605469 180.339844 149.933594 C 179.820312 151.265625 179.269531 152.578125 178.6875 153.882812 C 178.105469 155.183594 177.492188 156.472656 176.847656 157.742188 C 176.199219 159.015625 175.523438 160.269531 174.816406 161.507812 C 174.109375 162.75 173.371094 163.96875 172.605469 165.171875 L 93.402344 289.359375 L 86.972656 290.785156 L 168.699219 162.679688 C 170.15625 160.40625 171.5 158.0625 172.726562 155.652344 C 173.953125 153.246094 175.058594 150.78125 176.042969 148.261719 C 177.023438 145.746094 177.882812 143.183594 178.613281 140.582031 C 179.339844 137.980469 179.941406 135.347656 180.410156 132.6875 C 180.878906 130.023438 181.214844 127.347656 181.417969 124.652344 C 181.625 121.957031 181.695312 119.257812 181.632812 116.558594 C 181.566406 113.855469 181.371094 111.164062 181.042969 108.484375 C 180.710938 105.800781 180.25 103.140625 179.65625 100.503906 Z M 168.28125 103.027344 C 167.285156 98.480469 165.847656 94.074219 163.976562 89.808594 C 162.101562 85.542969 159.828125 81.507812 157.152344 77.695312 C 154.476562 73.882812 151.453125 70.367188 148.078125 67.15625 C 144.703125 63.941406 141.046875 61.09375 137.105469 58.605469 L 139.667969 54.679688 C 140.710938 55.34375 141.738281 56.03125 142.746094 56.746094 C 143.757812 57.460938 144.746094 58.199219 145.722656 58.960938 C 146.695312 59.722656 147.648438 60.507812 148.582031 61.320312 C 149.515625 62.128906 150.433594 62.960938 151.324219 63.816406 C 152.21875 64.667969 153.089844 65.546875 153.941406 66.441406 C 154.792969 67.339844 155.621094 68.257812 156.425781 69.195312 C 157.230469 70.132812 158.015625 71.089844 158.773438 72.066406 C 159.53125 73.042969 160.265625 74.035156 160.972656 75.050781 C 161.683594 76.0625 162.367188 77.089844 163.027344 78.136719 C 163.6875 79.183594 164.320312 80.242188 164.925781 81.320312 C 165.53125 82.398438 166.113281 83.488281 166.664062 84.59375 C 167.21875 85.699219 167.746094 86.816406 168.242188 87.949219 C 168.742188 89.078125 169.210938 90.222656 169.652344 91.375 C 170.09375 92.53125 170.507812 93.695312 170.894531 94.871094 C 171.277344 96.042969 171.632812 97.226562 171.960938 98.421875 C 172.285156 99.613281 172.582031 100.8125 172.851562 102.019531 C 173.117188 103.226562 173.355469 104.4375 173.5625 105.65625 C 173.773438 106.875 173.949219 108.097656 174.097656 109.324219 C 174.246094 110.550781 174.363281 111.78125 174.449219 113.015625 C 174.539062 114.246094 174.59375 115.480469 174.621094 116.71875 C 174.648438 117.953125 174.644531 119.1875 174.613281 120.425781 C 174.578125 121.660156 174.511719 122.894531 174.417969 124.125 C 174.324219 125.359375 174.199219 126.589844 174.042969 127.816406 C 173.886719 129.042969 173.703125 130.261719 173.488281 131.480469 C 173.273438 132.699219 173.027344 133.910156 172.753906 135.113281 C 172.480469 136.320312 172.175781 137.515625 171.839844 138.707031 C 171.507812 139.898438 171.144531 141.078125 170.753906 142.253906 C 170.363281 143.425781 169.941406 144.585938 169.492188 145.738281 C 169.042969 146.890625 168.566406 148.03125 168.0625 149.160156 C 167.558594 150.289062 167.027344 151.40625 166.464844 152.507812 C 165.90625 153.609375 165.320312 154.699219 164.707031 155.773438 C 164.09375 156.847656 163.453125 157.90625 162.789062 158.949219 L 77.351562 292.917969 L 70.941406 294.339844 L 158.894531 156.433594 C 161.410156 152.515625 163.511719 148.386719 165.207031 144.050781 C 166.902344 139.710938 168.152344 135.25 168.960938 130.667969 C 169.773438 126.082031 170.121094 121.464844 170.015625 116.8125 C 169.90625 112.15625 169.34375 107.558594 168.324219 103.019531 Z M 130.9375 68.371094 L 133.433594 64.460938 C 134.3125 65.023438 135.179688 65.609375 136.035156 66.214844 C 136.886719 66.820312 137.726562 67.445312 138.546875 68.089844 C 139.371094 68.738281 140.175781 69.402344 140.964844 70.089844 C 141.753906 70.773438 142.527344 71.480469 143.28125 72.203125 C 144.039062 72.925781 144.773438 73.667969 145.492188 74.429688 C 146.210938 75.1875 146.914062 75.964844 147.59375 76.757812 C 148.273438 77.550781 148.933594 78.363281 149.574219 79.1875 C 150.214844 80.015625 150.835938 80.855469 151.433594 81.714844 C 152.035156 82.570312 152.613281 83.441406 153.167969 84.324219 C 153.726562 85.210938 154.261719 86.109375 154.773438 87.019531 C 155.285156 87.929688 155.777344 88.855469 156.246094 89.789062 C 156.710938 90.722656 157.15625 91.671875 157.578125 92.628906 C 157.996094 93.585938 158.394531 94.550781 158.769531 95.527344 C 159.140625 96.503906 159.492188 97.488281 159.816406 98.484375 C 160.140625 99.476562 160.441406 100.476562 160.71875 101.484375 C 160.996094 102.492188 161.246094 103.507812 161.472656 104.527344 C 161.699219 105.550781 161.898438 106.574219 162.074219 107.605469 C 162.253906 108.636719 162.402344 109.671875 162.527344 110.707031 C 162.652344 111.746094 162.753906 112.785156 162.828125 113.828125 C 162.902344 114.871094 162.949219 115.917969 162.972656 116.960938 C 162.996094 118.007812 162.992188 119.050781 162.964844 120.097656 C 162.9375 121.140625 162.882812 122.1875 162.804688 123.230469 C 162.722656 124.269531 162.621094 125.3125 162.488281 126.347656 C 162.359375 127.386719 162.203125 128.417969 162.019531 129.449219 C 161.839844 130.480469 161.632812 131.503906 161.402344 132.523438 C 161.171875 133.542969 160.914062 134.558594 160.632812 135.5625 C 160.351562 136.570312 160.046875 137.570312 159.714844 138.5625 C 159.386719 139.554688 159.03125 140.539062 158.652344 141.515625 C 158.273438 142.488281 157.871094 143.453125 157.445312 144.410156 C 157.019531 145.363281 156.574219 146.308594 156.101562 147.242188 C 155.628906 148.175781 155.132812 149.097656 154.617188 150.003906 C 154.097656 150.914062 153.558594 151.8125 153 152.695312 L 61.320312 296.433594 L 54.914062 297.855469 L 149.089844 150.226562 C 150.132812 148.589844 151.09375 146.902344 151.972656 145.171875 C 152.851562 143.4375 153.640625 141.667969 154.34375 139.855469 C 155.046875 138.046875 155.660156 136.207031 156.183594 134.335938 C 156.707031 132.46875 157.136719 130.574219 157.476562 128.664062 C 157.8125 126.75 158.054688 124.828125 158.203125 122.890625 C 158.351562 120.957031 158.40625 119.015625 158.363281 117.078125 C 158.320312 115.136719 158.183594 113.203125 157.949219 111.273438 C 157.71875 109.347656 157.390625 107.433594 156.96875 105.539062 C 156.550781 103.644531 156.039062 101.773438 155.433594 99.929688 C 154.828125 98.085938 154.136719 96.273438 153.355469 94.496094 C 152.574219 92.71875 151.707031 90.984375 150.753906 89.292969 C 149.800781 87.601562 148.765625 85.960938 147.652344 84.371094 C 146.539062 82.78125 145.351562 81.246094 144.085938 79.773438 C 142.820312 78.300781 141.488281 76.890625 140.082031 75.550781 C 138.679688 74.207031 137.214844 72.9375 135.6875 71.738281 C 134.160156 70.539062 132.578125 69.417969 130.9375 68.371094 Z M 130.9375 68.371094 " clip-rule="nonzero"/></clipPath><linearGradient x1="-59.063956" gradientTransform="matrix(-0.597772, 0.132561, 0.13241, 0.597088, 180.41063, 28.841979)" y1="-23.974157" x2="349.978062" gradientUnits="userSpaceOnUse" y2="473.829736" id="0491c14254"><stop stop-opacity="1" stop-color="rgb(0%, 18.798828%, 100%)" offset="0"/><stop stop-opacity="1" stop-color="rgb(0%, 18.798828%, 100%)" offset="0.25"/><stop stop-opacity="1" stop-color="rgb(0%, 18.798828%, 100%)" offset="0.3125"/><stop stop-opacity="1" stop-color="rgb(0%, 18.798828%, 100%)" offset="0.34375"/><stop stop-opacity="1" stop-color="rgb(0%, 18.798828%, 100%)" offset="0.351562"/><stop stop-opacity="1" stop-color="rgb(0%, 19.168091%, 100%)" offset="0.355469"/><stop stop-opacity="1" stop-color="rgb(0%, 19.538879%, 100%)" offset="0.359375"/><stop stop-opacity="1" stop-color="rgb(0%, 20.074463%, 100%)" offset="0.363281"/><stop stop-opacity="1" stop-color="rgb(0%, 20.611572%, 100%)" offset="0.367188"/><stop stop-opacity="1" stop-color="rgb(0%, 21.147156%, 100%)" offset="0.371094"/><stop stop-opacity="1" stop-color="rgb(0%, 21.682739%, 100%)" offset="0.375"/><stop stop-opacity="1" stop-color="rgb(0%, 22.218323%, 100%)" offset="0.378906"/><stop stop-opacity="1" stop-color="rgb(0%, 22.755432%, 100%)" offset="0.382812"/><stop stop-opacity="1" stop-color="rgb(0%, 23.291016%, 100%)" offset="0.386719"/><stop stop-opacity="1" stop-color="rgb(0%, 23.826599%, 100%)" offset="0.390625"/><stop stop-opacity="1" stop-color="rgb(0%, 24.362183%, 100%)" offset="0.394531"/><stop stop-opacity="1" stop-color="rgb(0%, 24.897766%, 100%)" offset="0.398438"/><stop stop-opacity="1" stop-color="rgb(0%, 25.43335%, 100%)" offset="0.402344"/><stop stop-opacity="1" stop-color="rgb(0%, 25.970459%, 100%)" offset="0.40625"/><stop stop-opacity="1" stop-color="rgb(0%, 26.506042%, 100%)" offset="0.410156"/><stop stop-opacity="1" stop-color="rgb(0%, 27.041626%, 100%)" offset="0.414062"/><stop stop-opacity="1" stop-color="rgb(0%, 27.577209%, 100%)" offset="0.417969"/><stop stop-opacity="1" stop-color="rgb(0%, 28.114319%, 100%)" offset="0.421875"/><stop stop-opacity="1" stop-color="rgb(0%, 28.649902%, 100%)" offset="0.425781"/><stop stop-opacity="1" stop-color="rgb(0%, 29.185486%, 100%)" offset="0.429687"/><stop stop-opacity="1" stop-color="rgb(0%, 29.721069%, 100%)" offset="0.433594"/><stop stop-opacity="1" stop-color="rgb(0%, 30.258179%, 100%)" offset="0.4375"/><stop stop-opacity="1" stop-color="rgb(0%, 30.793762%, 100%)" offset="0.441406"/><stop stop-opacity="1" stop-color="rgb(0%, 31.329346%, 100%)" offset="0.445313"/><stop stop-opacity="1" stop-color="rgb(0%, 31.864929%, 100%)" offset="0.449219"/><stop stop-opacity="1" stop-color="rgb(0%, 32.402039%, 100%)" offset="0.453125"/><stop stop-opacity="1" stop-color="rgb(0%, 32.937622%, 100%)" offset="0.457031"/><stop stop-opacity="1" stop-color="rgb(0%, 33.473206%, 100%)" offset="0.460938"/><stop stop-opacity="1" stop-color="rgb(0%, 34.008789%, 100%)" offset="0.464844"/><stop stop-opacity="1" stop-color="rgb(0%, 34.545898%, 100%)" offset="0.46875"/><stop stop-opacity="1" stop-color="rgb(0%, 35.081482%, 100%)" offset="0.472656"/><stop stop-opacity="1" stop-color="rgb(0%, 35.617065%, 100%)" offset="0.476562"/><stop stop-opacity="1" stop-color="rgb(0%, 36.152649%, 100%)" offset="0.480469"/><stop stop-opacity="1" stop-color="rgb(0%, 36.689758%, 100%)" offset="0.484375"/><stop stop-opacity="1" stop-color="rgb(0%, 37.225342%, 100%)" offset="0.488281"/><stop stop-opacity="1" stop-color="rgb(0%, 37.760925%, 100%)" offset="0.492187"/><stop stop-opacity="1" stop-color="rgb(0%, 38.296509%, 100%)" offset="0.496094"/><stop stop-opacity="1" stop-color="rgb(0%, 38.833618%, 100%)" offset="0.5"/><stop stop-opacity="1" stop-color="rgb(0%, 39.369202%, 100%)" offset="0.503906"/><stop stop-opacity="1" stop-color="rgb(0%, 39.904785%, 100%)" offset="0.507812"/><stop stop-opacity="1" stop-color="rgb(0%, 40.440369%, 100%)" offset="0.511719"/><stop stop-opacity="1" stop-color="rgb(0%, 40.977478%, 100%)" offset="0.515625"/><stop stop-opacity="1" stop-color="rgb(0%, 41.513062%, 100%)" offset="0.519531"/><stop stop-opacity="1" stop-color="rgb(0%, 42.048645%, 100%)" offset="0.523438"/><stop stop-opacity="1" stop-color="rgb(0%, 42.584229%, 100%)" offset="0.527344"/><stop stop-opacity="1" stop-color="rgb(0%, 43.119812%, 100%)" offset="0.53125"/><stop stop-opacity="1" stop-color="rgb(0%, 43.655396%, 100%)" offset="0.535156"/><stop stop-opacity="1" stop-color="rgb(0%, 44.192505%, 100%)" offset="0.539062"/><stop stop-opacity="1" stop-color="rgb(0%, 44.728088%, 100%)" offset="0.542969"/><stop stop-opacity="1" stop-color="rgb(0%, 45.263672%, 100%)" offset="0.546875"/><stop stop-opacity="1" stop-color="rgb(0%, 45.799255%, 100%)" offset="0.550781"/><stop stop-opacity="1" stop-color="rgb(0%, 46.336365%, 100%)" offset="0.554688"/><stop stop-opacity="1" stop-color="rgb(0%, 46.871948%, 100%)" offset="0.558594"/><stop stop-opacity="1" stop-color="rgb(0%, 47.407532%, 100%)" offset="0.5625"/><stop stop-opacity="1" stop-color="rgb(0%, 47.943115%, 100%)" offset="0.566406"/><stop stop-opacity="1" stop-color="rgb(0%, 48.480225%, 100%)" offset="0.570312"/><stop stop-opacity="1" stop-color="rgb(0%, 49.015808%, 100%)" offset="0.574219"/><stop stop-opacity="1" stop-color="rgb(0%, 49.551392%, 100%)" offset="0.578125"/><stop stop-opacity="1" stop-color="rgb(0%, 50.086975%, 100%)" offset="0.582031"/><stop stop-opacity="1" stop-color="rgb(0%, 50.624084%, 100%)" offset="0.585938"/><stop stop-opacity="1" stop-color="rgb(0%, 51.159668%, 100%)" offset="0.589844"/><stop stop-opacity="1" stop-color="rgb(0%, 51.695251%, 100%)" offset="0.59375"/><stop stop-opacity="1" stop-color="rgb(0%, 52.230835%, 100%)" offset="0.597656"/><stop stop-opacity="1" stop-color="rgb(0%, 52.767944%, 100%)" offset="0.601562"/><stop stop-opacity="1" stop-color="rgb(0%, 53.303528%, 100%)" offset="0.605469"/><stop stop-opacity="1" stop-color="rgb(0%, 53.839111%, 100%)" offset="0.609375"/><stop stop-opacity="1" stop-color="rgb(0%, 54.374695%, 100%)" offset="0.613281"/><stop stop-opacity="1" stop-color="rgb(0%, 54.911804%, 100%)" offset="0.617188"/><stop stop-opacity="1" stop-color="rgb(0%, 55.447388%, 100%)" offset="0.621094"/><stop stop-opacity="1" stop-color="rgb(0%, 55.982971%, 100%)" offset="0.625"/><stop stop-opacity="1" stop-color="rgb(0%, 56.518555%, 100%)" offset="0.628906"/><stop stop-opacity="1" stop-color="rgb(0%, 57.055664%, 100%)" offset="0.632812"/><stop stop-opacity="1" stop-color="rgb(0%, 57.591248%, 100%)" offset="0.636719"/><stop stop-opacity="1" stop-color="rgb(0%, 58.126831%, 100%)" offset="0.640625"/><stop stop-opacity="1" stop-color="rgb(0%, 58.662415%, 100%)" offset="0.644531"/><stop stop-opacity="1" stop-color="rgb(0%, 59.199524%, 100%)" offset="0.648438"/><stop stop-opacity="1" stop-color="rgb(0%, 59.735107%, 100%)" offset="0.652344"/><stop stop-opacity="1" stop-color="rgb(0%, 60.270691%, 100%)" offset="0.65625"/><stop stop-opacity="1" stop-color="rgb(0%, 60.806274%, 100%)" offset="0.660156"/><stop stop-opacity="1" stop-color="rgb(0%, 61.341858%, 100%)" offset="0.664062"/><stop stop-opacity="1" stop-color="rgb(0%, 61.877441%, 100%)" offset="0.667969"/><stop stop-opacity="1" stop-color="rgb(0%, 62.414551%, 100%)" offset="0.671875"/><stop stop-opacity="1" stop-color="rgb(0%, 62.950134%, 100%)" offset="0.675781"/><stop stop-opacity="1" stop-color="rgb(0%, 63.485718%, 100%)" offset="0.679688"/><stop stop-opacity="1" stop-color="rgb(0%, 64.021301%, 100%)" offset="0.683594"/><stop stop-opacity="1" stop-color="rgb(0%, 64.558411%, 100%)" offset="0.6875"/><stop stop-opacity="1" stop-color="rgb(0%, 65.093994%, 100%)" offset="0.691406"/><stop stop-opacity="1" stop-color="rgb(0%, 65.629578%, 100%)" offset="0.695312"/><stop stop-opacity="1" stop-color="rgb(0%, 66.165161%, 100%)" offset="0.699219"/><stop stop-opacity="1" stop-color="rgb(0%, 66.702271%, 100%)" offset="0.703125"/><stop stop-opacity="1" stop-color="rgb(0%, 67.237854%, 100%)" offset="0.707031"/><stop stop-opacity="1" stop-color="rgb(0%, 67.773438%, 100%)" offset="0.710938"/><stop stop-opacity="1" stop-color="rgb(0%, 68.309021%, 100%)" offset="0.714844"/><stop stop-opacity="1" stop-color="rgb(0%, 68.84613%, 100%)" offset="0.71875"/><stop stop-opacity="1" stop-color="rgb(0%, 69.381714%, 100%)" offset="0.722656"/><stop stop-opacity="1" stop-color="rgb(0%, 69.917297%, 100%)" offset="0.726562"/><stop stop-opacity="1" stop-color="rgb(0%, 70.452881%, 100%)" offset="0.730469"/><stop stop-opacity="1" stop-color="rgb(0%, 70.98999%, 100%)" offset="0.734375"/><stop stop-opacity="1" stop-color="rgb(0%, 71.525574%, 100%)" offset="0.738281"/><stop stop-opacity="1" stop-color="rgb(0%, 72.061157%, 100%)" offset="0.742188"/><stop stop-opacity="1" stop-color="rgb(0%, 72.596741%, 100%)" offset="0.746094"/><stop stop-opacity="1" stop-color="rgb(0%, 73.13385%, 100%)" offset="0.75"/><stop stop-opacity="1" stop-color="rgb(0%, 73.669434%, 100%)" offset="0.753906"/><stop stop-opacity="1" stop-color="rgb(0%, 74.205017%, 100%)" offset="0.757812"/><stop stop-opacity="1" stop-color="rgb(0%, 74.740601%, 100%)" offset="0.761719"/><stop stop-opacity="1" stop-color="rgb(0%, 75.27771%, 100%)" offset="0.765625"/><stop stop-opacity="1" stop-color="rgb(0%, 75.688171%, 100%)" offset="0.769531"/><stop stop-opacity="1" stop-color="rgb(0%, 76.098633%, 100%)" offset="0.773437"/><stop stop-opacity="1" stop-color="rgb(0%, 76.098633%, 100%)" offset="0.78125"/><stop stop-opacity="1" stop-color="rgb(0%, 76.098633%, 100%)" offset="0.8125"/><stop stop-opacity="1" stop-color="rgb(0%, 76.098633%, 100%)" offset="0.875"/><stop stop-opacity="1" stop-color="rgb(0%, 76.098633%, 100%)" offset="1"/></linearGradient></defs><g clip-path="url(#e524d4ee1c)"><g clip-path="url(#d5f52f1391)"><g clip-path="url(#fc98d8acbe)"><g clip-path="url(#d7e454a851)"><path fill="url(#e585e93946)" d="M 369.070312 321.804688 L 106.265625 288.191406 L 143.191406 -0.523438 L 405.996094 33.089844 Z M 369.070312 321.804688 " fill-rule="nonzero"/></g></g></g></g><g fill="#0d1239" fill-opacity="1"><g transform="translate(49.509303, 338.253736)"><g><path d="M 6.582031 0.355469 C 9.996094 0.355469 12.234375 -1.230469 12.234375 -3.710938 C 12.234375 -6.695312 9.363281 -7.144531 7.011719 -7.496094 C 5.148438 -7.777344 3.449219 -8.058594 3.449219 -9.625 C 3.449219 -10.910156 4.589844 -11.824219 6.472656 -11.824219 C 8.429688 -11.824219 9.699219 -10.796875 9.699219 -9.101562 L 11.863281 -9.101562 C 11.84375 -11.785156 9.699219 -13.578125 6.378906 -13.578125 C 3.152344 -13.578125 1.082031 -11.9375 1.082031 -9.472656 C 1.082031 -6.433594 4.046875 -6.0625 6.378906 -5.726562 C 8.207031 -5.445312 9.882812 -5.183594 9.882812 -3.582031 C 9.882812 -2.257812 8.617188 -1.398438 6.675781 -1.398438 C 4.496094 -1.398438 3.152344 -2.5 3.152344 -4.289062 L 0.933594 -4.269531 C 0.933594 -1.492188 3.171875 0.355469 6.582031 0.355469 Z M 6.582031 0.355469 "/></g></g></g><g fill="#0d1239" fill-opacity="1"><g transform="translate(66.629271, 338.253736)"><g><path d="M 8.019531 0.355469 C 12.273438 0.355469 15.238281 -2.441406 15.238281 -6.601562 C 15.238281 -10.761719 12.273438 -13.578125 8.019531 -13.578125 C 3.765625 -13.578125 0.800781 -10.761719 0.800781 -6.601562 C 0.800781 -2.441406 3.765625 0.355469 8.019531 0.355469 Z M 8.019531 -1.605469 C 5.183594 -1.605469 3.171875 -3.675781 3.171875 -6.601562 C 3.171875 -9.550781 5.183594 -11.601562 8.019531 -11.601562 C 10.875 -11.601562 12.886719 -9.550781 12.886719 -6.601562 C 12.886719 -3.65625 10.875 -1.605469 8.019531 -1.605469 Z M 8.019531 -1.605469 "/></g></g></g><g fill="#0d1239" fill-opacity="1"><g transform="translate(86.639607, 338.253736)"><g><path d="M 1.34375 0 L 3.691406 0 L 3.691406 -5.613281 L 9.550781 -5.613281 L 9.550781 -7.421875 L 3.691406 -7.421875 L 3.691406 -11.171875 L 10.460938 -11.171875 L 10.460938 -13.203125 L 1.34375 -13.203125 Z M 1.34375 0 "/></g></g></g><g fill="#0d1239" fill-opacity="1"><g transform="translate(101.63377, 338.253736)"><g><path d="M 4.699219 0 L 7.050781 0 L 7.050781 -11.246094 L 11.46875 -11.246094 L 11.46875 -13.203125 L 0.296875 -13.203125 L 0.296875 -11.246094 L 4.699219 -11.246094 Z M 4.699219 0 "/></g></g></g><g fill="#0d1239" fill-opacity="1"><g transform="translate(117.336525, 338.253736)"><g><path d="M 4.195312 0 L 7.554688 0 L 10.21875 -10.164062 L 10.386719 -10.164062 L 13.054688 0 L 16.414062 0 L 20.160156 -13.203125 L 17.8125 -13.203125 L 14.714844 -2.164062 L 14.546875 -2.164062 L 11.5625 -13.203125 L 9.046875 -13.203125 L 6.0625 -2.164062 L 5.894531 -2.164062 L 2.796875 -13.203125 L 0.429688 -13.203125 Z M 4.195312 0 "/></g></g></g><g fill="#0d1239" fill-opacity="1"><g transform="translate(141.878203, 338.253736)"><g><path d="M 0.28125 0 L 2.703125 0 L 3.691406 -2.742188 L 9.566406 -2.742188 L 10.554688 0 L 13 0 L 8.375 -13.203125 L 4.90625 -13.203125 Z M 4.195312 -4.496094 L 6.546875 -11.171875 L 6.714844 -11.171875 L 9.0625 -4.496094 Z M 4.195312 -4.496094 "/></g></g></g><g fill="#0d1239" fill-opacity="1"><g transform="translate(159.091405, 338.253736)"><g><path d="M 1.34375 0 L 3.691406 0 L 3.691406 -5.054688 L 5.855469 -5.054688 L 9.941406 0 L 12.609375 0 L 8.167969 -5.222656 L 8.578125 -5.242188 C 10.890625 -5.425781 12.457031 -6.917969 12.457031 -9.082031 C 12.457031 -11.601562 10.5 -13.203125 7.460938 -13.203125 L 1.34375 -13.203125 Z M 3.691406 -6.65625 L 3.691406 -11.453125 L 7.085938 -11.453125 C 8.894531 -11.453125 10.089844 -10.574219 10.089844 -9.0625 C 10.089844 -7.589844 8.878906 -6.65625 7.085938 -6.65625 Z M 3.691406 -6.65625 "/></g></g></g><g fill="#0d1239" fill-opacity="1"><g transform="translate(176.341902, 338.253736)"><g><path d="M 1.34375 0 L 11.117188 0 L 11.117188 -1.902344 L 3.617188 -1.902344 L 3.617188 -5.96875 L 10.386719 -5.96875 L 10.386719 -7.570312 L 3.617188 -7.570312 L 3.617188 -11.320312 L 10.929688 -11.320312 L 10.929688 -13.203125 L 1.34375 -13.203125 Z M 1.34375 0 "/></g></g></g><g fill="#0d1239" fill-opacity="1"><g transform="translate(192.137909, 338.253736)"><g/></g></g><g fill="#0030ff" fill-opacity="1"><g transform="translate(200.67907, 338.253736)"><g><path d="M 1.34375 0 L 11.117188 0 L 11.117188 -1.902344 L 3.617188 -1.902344 L 3.617188 -5.96875 L 10.386719 -5.96875 L 10.386719 -7.570312 L 3.617188 -7.570312 L 3.617188 -11.320312 L 10.929688 -11.320312 L 10.929688 -13.203125 L 1.34375 -13.203125 Z M 1.34375 0 "/></g></g></g><g fill="#0030ff" fill-opacity="1"><g transform="translate(216.475073, 338.253736)"><g><path d="M 1.324219 0 L 3.542969 0 L 3.542969 -10.164062 L 3.691406 -10.164062 L 9.792969 0 L 12.402344 0 L 12.402344 -13.203125 L 10.203125 -13.203125 L 10.203125 -3.019531 L 10.050781 -3.019531 L 3.933594 -13.203125 L 1.324219 -13.203125 Z M 1.324219 0 "/></g></g></g><g fill="#0030ff" fill-opacity="1"><g transform="translate(234.173103, 338.253736)"><g><path d="M 8.039062 0.390625 C 12.308594 0.390625 15.179688 -2.703125 14.957031 -7.125 L 6.601562 -7.125 L 6.601562 -5.652344 L 12.683594 -5.652344 C 12.515625 -3.246094 10.613281 -1.566406 8.09375 -1.566406 C 5.242188 -1.566406 3.171875 -3.710938 3.171875 -6.601562 C 3.171875 -9.53125 5.222656 -11.617188 8.019531 -11.601562 C 9.996094 -11.601562 11.75 -10.371094 12.179688 -8.691406 L 14.34375 -9.101562 C 13.78125 -11.695312 11.132812 -13.578125 8.039062 -13.578125 C 3.84375 -13.578125 0.820312 -10.707031 0.820312 -6.601562 C 0.820312 -2.519531 3.84375 0.390625 8.039062 0.390625 Z M 8.039062 0.390625 "/></g></g></g><g fill="#0030ff" fill-opacity="1"><g transform="translate(253.922362, 338.253736)"><g><path d="M 1.34375 0 L 3.691406 0 L 3.691406 -13.203125 L 1.34375 -13.203125 Z M 1.34375 0 "/></g></g></g><g fill="#0030ff" fill-opacity="1"><g transform="translate(262.912034, 338.253736)"><g><path d="M 1.324219 0 L 3.542969 0 L 3.542969 -10.164062 L 3.691406 -10.164062 L 9.792969 0 L 12.402344 0 L 12.402344 -13.203125 L 10.203125 -13.203125 L 10.203125 -3.019531 L 10.050781 -3.019531 L 3.933594 -13.203125 L 1.324219 -13.203125 Z M 1.324219 0 "/></g></g></g><g fill="#0030ff" fill-opacity="1"><g transform="translate(280.610061, 338.253736)"><g><path d="M 1.34375 0 L 11.117188 0 L 11.117188 -1.902344 L 3.617188 -1.902344 L 3.617188 -5.96875 L 10.386719 -5.96875 L 10.386719 -7.570312 L 3.617188 -7.570312 L 3.617188 -11.320312 L 10.929688 -11.320312 L 10.929688 -13.203125 L 1.34375 -13.203125 Z M 1.34375 0 "/></g></g></g><g fill="#0030ff" fill-opacity="1"><g transform="translate(296.406067, 338.253736)"><g><path d="M 1.34375 0 L 11.117188 0 L 11.117188 -1.902344 L 3.617188 -1.902344 L 3.617188 -5.96875 L 10.386719 -5.96875 L 10.386719 -7.570312 L 3.617188 -7.570312 L 3.617188 -11.320312 L 10.929688 -11.320312 L 10.929688 -13.203125 L 1.34375 -13.203125 Z M 1.34375 0 "/></g></g></g><g fill="#0030ff" fill-opacity="1"><g transform="translate(312.202074, 338.253736)"><g><path d="M 1.34375 0 L 3.691406 0 L 3.691406 -5.054688 L 5.855469 -5.054688 L 9.941406 0 L 12.609375 0 L 8.167969 -5.222656 L 8.578125 -5.242188 C 10.890625 -5.425781 12.457031 -6.917969 12.457031 -9.082031 C 12.457031 -11.601562 10.5 -13.203125 7.460938 -13.203125 L 1.34375 -13.203125 Z M 3.691406 -6.65625 L 3.691406 -11.453125 L 7.085938 -11.453125 C 8.894531 -11.453125 10.089844 -10.574219 10.089844 -9.0625 C 10.089844 -7.589844 8.878906 -6.65625 7.085938 -6.65625 Z M 3.691406 -6.65625 "/></g></g></g><g clip-path="url(#e4a6272112)"><g clip-path="url(#9a82745156)"><g clip-path="url(#4023ee8e4d)"><g clip-path="url(#7d006a48b2)"><path fill="url(#0491c14254)" d="M 188.917969 -5.273438 L 255.671875 295.742188 L 15.769531 348.945312 L -50.984375 47.925781 Z M 188.917969 -5.273438 " fill-rule="nonzero"/></g></g></g></g></svg>