<svg xmlns="http://www.w3.org/2000/svg" xmlns:xlink="http://www.w3.org/1999/xlink" width="500" zoomAndPan="magnify" viewBox="0 0 375 374.999991" height="500" preserveAspectRatio="xMidYMid meet" version="1.0"><defs><g/><clipPath id="5884c88745"><path d="M 136 22 L 370 22 L 370 285 L 136 285 Z M 136 22 " clip-rule="nonzero"/></clipPath><clipPath id="a80a4b634c"><path d="M 396.394531 53.785156 L 365.757812 293.332031 L 120.257812 261.933594 L 150.894531 22.386719 Z M 396.394531 53.785156 " clip-rule="nonzero"/></clipPath><clipPath id="b609c1de1d"><path d="M 365.75 293.402344 L 396.386719 53.855469 L 150.886719 22.453125 L 120.25 262.003906 Z M 365.75 293.402344 " clip-rule="nonzero"/></clipPath><clipPath id="c59fc9d558"><path d="M 329.347656 211.148438 L 332.328125 215 C 331.21875 215.851562 330.070312 216.652344 328.882812 217.394531 C 327.695312 218.136719 326.472656 218.820312 325.21875 219.441406 C 323.964844 220.0625 322.683594 220.625 321.371094 221.121094 C 320.0625 221.617188 318.730469 222.046875 317.378906 222.414062 C 316.027344 222.78125 314.660156 223.082031 313.277344 223.3125 C 311.894531 223.546875 310.503906 223.710938 309.109375 223.804688 C 307.710938 223.902344 306.308594 223.929688 304.910156 223.886719 C 303.507812 223.847656 302.113281 223.738281 300.722656 223.558594 C 299.332031 223.382812 297.957031 223.136719 296.589844 222.824219 C 295.222656 222.511719 293.875 222.132812 292.546875 221.6875 C 291.21875 221.242188 289.914062 220.734375 288.636719 220.160156 C 287.359375 219.589844 286.109375 218.957031 284.894531 218.261719 C 283.675781 217.566406 282.496094 216.8125 281.355469 216.003906 C 280.210938 215.191406 279.113281 214.328125 278.054688 213.410156 C 276.996094 212.492188 275.984375 211.523438 275.023438 210.503906 C 274.058594 209.488281 273.148438 208.425781 272.289062 207.320312 L 147.8125 46.484375 L 148.6875 39.65625 L 276.144531 204.34375 C 276.90625 205.324219 277.710938 206.265625 278.566406 207.164062 C 279.417969 208.066406 280.3125 208.925781 281.25 209.738281 C 282.1875 210.554688 283.164062 211.320312 284.175781 212.039062 C 285.1875 212.757812 286.234375 213.421875 287.3125 214.039062 C 288.390625 214.65625 289.496094 215.21875 290.628906 215.726562 C 291.761719 216.234375 292.917969 216.683594 294.09375 217.078125 C 295.273438 217.472656 296.46875 217.808594 297.675781 218.085938 C 298.886719 218.363281 300.109375 218.578125 301.339844 218.738281 C 302.574219 218.894531 303.808594 218.992188 305.050781 219.027344 C 306.292969 219.0625 307.53125 219.039062 308.769531 218.953125 C 310.007812 218.871094 311.242188 218.722656 312.464844 218.519531 C 313.691406 218.3125 314.902344 218.046875 316.101562 217.722656 C 317.296875 217.398438 318.476562 217.015625 319.640625 216.574219 C 320.800781 216.132812 321.9375 215.636719 323.046875 215.085938 C 324.160156 214.535156 325.242188 213.929688 326.296875 213.269531 C 327.347656 212.613281 328.367188 211.90625 329.347656 211.148438 Z M 285.8125 196.898438 C 286.328125 197.5625 286.875 198.199219 287.453125 198.8125 C 288.035156 199.425781 288.640625 200.007812 289.277344 200.558594 C 289.914062 201.113281 290.574219 201.632812 291.261719 202.117188 C 291.949219 202.605469 292.660156 203.058594 293.390625 203.476562 C 294.121094 203.894531 294.871094 204.277344 295.640625 204.621094 C 296.410156 204.964844 297.195312 205.269531 297.992188 205.539062 C 298.792969 205.804688 299.601562 206.035156 300.425781 206.222656 C 301.246094 206.410156 302.074219 206.558594 302.910156 206.664062 C 303.746094 206.769531 304.585938 206.835938 305.429688 206.863281 C 306.269531 206.886719 307.113281 206.871094 307.953125 206.8125 C 308.792969 206.753906 309.628906 206.65625 310.460938 206.515625 C 311.289062 206.375 312.113281 206.195312 312.925781 205.976562 C 313.738281 205.753906 314.539062 205.496094 315.328125 205.195312 C 316.117188 204.898438 316.886719 204.5625 317.640625 204.1875 C 318.394531 203.8125 319.128906 203.402344 319.84375 202.957031 C 320.558594 202.507812 321.25 202.027344 321.917969 201.515625 L 324.898438 205.367188 C 324.105469 205.976562 323.28125 206.546875 322.433594 207.078125 C 321.582031 207.609375 320.710938 208.097656 319.8125 208.542969 C 318.914062 208.988281 317.996094 209.386719 317.0625 209.742188 C 316.125 210.097656 315.171875 210.40625 314.203125 210.667969 C 313.238281 210.929688 312.257812 211.144531 311.273438 211.3125 C 310.285156 211.476562 309.289062 211.59375 308.289062 211.664062 C 307.289062 211.730469 306.289062 211.75 305.289062 211.722656 C 304.285156 211.691406 303.289062 211.613281 302.292969 211.488281 C 301.300781 211.359375 300.3125 211.183594 299.335938 210.960938 C 298.359375 210.738281 297.398438 210.464844 296.445312 210.148438 C 295.496094 209.832031 294.5625 209.464844 293.648438 209.058594 C 292.734375 208.648438 291.84375 208.195312 290.972656 207.699219 C 290.101562 207.199219 289.257812 206.664062 288.441406 206.082031 C 287.625 205.503906 286.835938 204.886719 286.082031 204.226562 C 285.324219 203.570312 284.601562 202.878906 283.914062 202.152344 C 283.222656 201.425781 282.570312 200.664062 281.957031 199.875 L 150 29.386719 L 150.871094 22.570312 Z M 299.796875 230.835938 C 303.0625 231.261719 306.335938 231.363281 309.621094 231.140625 C 312.902344 230.917969 316.132812 230.375 319.308594 229.515625 C 322.488281 228.652344 325.546875 227.484375 328.492188 226.015625 C 331.4375 224.546875 334.207031 222.800781 336.804688 220.78125 L 339.785156 224.632812 C 338.363281 225.734375 336.886719 226.761719 335.359375 227.71875 C 333.835938 228.671875 332.265625 229.550781 330.652344 230.351562 C 329.042969 231.15625 327.394531 231.875 325.710938 232.515625 C 324.027344 233.15625 322.316406 233.710938 320.578125 234.183594 C 318.839844 234.652344 317.082031 235.039062 315.308594 235.339844 C 313.53125 235.640625 311.746094 235.851562 309.949219 235.972656 C 308.152344 236.097656 306.351562 236.132812 304.554688 236.082031 C 302.753906 236.03125 300.960938 235.890625 299.171875 235.660156 C 297.386719 235.433594 295.617188 235.117188 293.859375 234.714844 C 292.105469 234.3125 290.371094 233.824219 288.664062 233.253906 C 286.957031 232.679688 285.28125 232.027344 283.636719 231.289062 C 281.996094 230.550781 280.390625 229.738281 278.828125 228.84375 C 277.265625 227.949219 275.75 226.980469 274.28125 225.9375 C 272.8125 224.894531 271.398438 223.78125 270.042969 222.601562 C 268.683594 221.417969 267.386719 220.175781 266.148438 218.867188 C 264.914062 217.558594 263.742188 216.191406 262.640625 214.765625 L 145.628906 63.566406 L 146.503906 56.738281 L 266.503906 211.789062 C 268.507812 214.398438 270.753906 216.785156 273.234375 218.949219 C 275.714844 221.113281 278.382812 223.011719 281.242188 224.644531 C 284.097656 226.28125 287.089844 227.617188 290.210938 228.660156 C 293.335938 229.703125 296.53125 230.425781 299.796875 230.835938 Z M 293.617188 279.15625 C 296.828125 279.578125 300.054688 279.835938 303.292969 279.9375 C 306.527344 280.039062 309.765625 279.980469 312.996094 279.761719 C 316.226562 279.542969 319.441406 279.164062 322.636719 278.625 C 325.828125 278.089844 328.988281 277.398438 332.117188 276.546875 C 335.242188 275.699219 338.316406 274.699219 341.34375 273.546875 C 344.371094 272.390625 347.332031 271.09375 350.230469 269.648438 C 353.128906 268.199219 355.949219 266.617188 358.6875 264.890625 C 361.429688 263.167969 364.078125 261.3125 366.636719 259.324219 L 369.617188 263.167969 C 368.273438 264.207031 366.90625 265.210938 365.511719 266.179688 C 364.121094 267.152344 362.707031 268.085938 361.265625 268.988281 C 359.828125 269.890625 358.371094 270.753906 356.886719 271.585938 C 355.40625 272.414062 353.90625 273.207031 352.386719 273.960938 C 350.867188 274.71875 349.328125 275.4375 347.773438 276.117188 C 346.21875 276.796875 344.648438 277.4375 343.0625 278.042969 C 341.472656 278.644531 339.875 279.210938 338.257812 279.734375 C 336.644531 280.257812 335.019531 280.746094 333.378906 281.1875 C 331.742188 281.632812 330.09375 282.039062 328.433594 282.402344 C 326.777344 282.765625 325.109375 283.089844 323.4375 283.371094 C 321.761719 283.65625 320.082031 283.894531 318.394531 284.097656 C 316.710938 284.296875 315.019531 284.453125 313.324219 284.570312 C 311.632812 284.6875 309.9375 284.765625 308.238281 284.796875 C 306.542969 284.832031 304.84375 284.824219 303.148438 284.773438 C 301.449219 284.726562 299.753906 284.632812 298.0625 284.5 C 296.367188 284.367188 294.679688 284.195312 292.996094 283.980469 C 291.3125 283.765625 289.632812 283.507812 287.960938 283.210938 C 286.289062 282.910156 284.628906 282.574219 282.972656 282.195312 C 281.316406 281.816406 279.671875 281.394531 278.039062 280.933594 C 276.402344 280.476562 274.78125 279.976562 273.171875 279.4375 C 271.5625 278.894531 269.964844 278.316406 268.386719 277.699219 C 266.804688 277.082031 265.238281 276.425781 263.6875 275.730469 C 262.140625 275.035156 260.609375 274.304688 259.09375 273.535156 C 257.582031 272.765625 256.089844 271.957031 254.613281 271.117188 C 253.140625 270.273438 251.6875 269.394531 250.257812 268.480469 C 248.828125 267.566406 247.421875 266.617188 246.039062 265.632812 C 244.652344 264.648438 243.292969 263.632812 241.960938 262.582031 C 240.625 261.535156 239.320312 260.453125 238.039062 259.335938 C 236.757812 258.222656 235.503906 257.078125 234.28125 255.902344 C 233.054688 254.726562 231.859375 253.523438 230.695312 252.289062 C 229.53125 251.054688 228.394531 249.792969 227.292969 248.503906 C 226.191406 247.214844 225.117188 245.898438 224.078125 244.554688 L 136.890625 131.898438 L 137.761719 125.074219 L 227.933594 241.585938 C 229.90625 244.152344 232.003906 246.613281 234.222656 248.972656 C 236.441406 251.332031 238.773438 253.574219 241.214844 255.703125 C 243.652344 257.832031 246.195312 259.835938 248.832031 261.714844 C 251.472656 263.589844 254.199219 265.335938 257.011719 266.941406 C 259.820312 268.550781 262.707031 270.015625 265.664062 271.339844 C 268.621094 272.664062 271.632812 273.839844 274.707031 274.863281 C 277.78125 275.890625 280.894531 276.761719 284.054688 277.476562 C 287.214844 278.195312 290.402344 278.753906 293.617188 279.15625 Z M 295.164062 267.054688 C 297.980469 267.421875 300.804688 267.652344 303.644531 267.742188 C 306.480469 267.832031 309.316406 267.78125 312.148438 267.59375 C 314.980469 267.402344 317.796875 267.074219 320.597656 266.605469 C 323.398438 266.136719 326.167969 265.53125 328.910156 264.789062 C 331.648438 264.046875 334.34375 263.171875 337 262.160156 C 339.652344 261.152344 342.25 260.015625 344.789062 258.75 C 347.332031 257.484375 349.800781 256.097656 352.207031 254.585938 C 354.609375 253.078125 356.933594 251.453125 359.175781 249.714844 L 362.15625 253.558594 C 360.972656 254.476562 359.765625 255.359375 358.535156 256.21875 C 357.304688 257.074219 356.058594 257.898438 354.789062 258.695312 C 353.519531 259.492188 352.230469 260.253906 350.921875 260.988281 C 349.617188 261.71875 348.292969 262.417969 346.949219 263.085938 C 345.609375 263.753906 344.253906 264.386719 342.878906 264.988281 C 341.507812 265.585938 340.121094 266.152344 338.722656 266.6875 C 337.320312 267.21875 335.90625 267.714844 334.484375 268.179688 C 333.058594 268.640625 331.621094 269.070312 330.175781 269.464844 C 328.730469 269.855469 327.277344 270.214844 325.8125 270.535156 C 324.351562 270.855469 322.878906 271.140625 321.402344 271.390625 C 319.925781 271.640625 318.441406 271.851562 316.953125 272.027344 C 315.464844 272.207031 313.972656 272.34375 312.480469 272.449219 C 310.984375 272.550781 309.488281 272.617188 307.988281 272.648438 C 306.492188 272.679688 304.992188 272.671875 303.496094 272.628906 C 302 272.585938 300.503906 272.503906 299.007812 272.386719 C 297.515625 272.269531 296.023438 272.117188 294.539062 271.925781 C 293.050781 271.734375 291.570312 271.507812 290.09375 271.246094 C 288.621094 270.984375 287.152344 270.683594 285.691406 270.351562 C 284.230469 270.015625 282.78125 269.644531 281.335938 269.238281 C 279.894531 268.832031 278.464844 268.390625 277.042969 267.917969 C 275.621094 267.441406 274.214844 266.929688 272.816406 266.382812 C 271.421875 265.839844 270.039062 265.257812 268.671875 264.648438 C 267.304688 264.035156 265.957031 263.386719 264.621094 262.707031 C 263.285156 262.027344 261.964844 261.316406 260.664062 260.574219 C 259.367188 259.828125 258.082031 259.054688 256.820312 258.246094 C 255.558594 257.441406 254.316406 256.601562 253.097656 255.734375 C 251.875 254.867188 250.675781 253.96875 249.5 253.042969 C 248.320312 252.117188 247.167969 251.160156 246.039062 250.179688 C 244.90625 249.195312 243.800781 248.183594 242.722656 247.148438 C 241.640625 246.109375 240.585938 245.046875 239.558594 243.957031 C 238.527344 242.867188 237.527344 241.753906 236.554688 240.617188 C 235.582031 239.476562 234.636719 238.316406 233.71875 237.132812 L 139.070312 114.839844 L 139.949219 107.992188 L 237.570312 234.160156 C 239.304688 236.410156 241.144531 238.566406 243.089844 240.636719 C 245.035156 242.703125 247.078125 244.667969 249.21875 246.53125 C 251.359375 248.398438 253.585938 250.152344 255.902344 251.796875 C 258.214844 253.441406 260.605469 254.96875 263.070312 256.378906 C 265.535156 257.789062 268.0625 259.070312 270.65625 260.230469 C 273.25 261.390625 275.890625 262.417969 278.585938 263.316406 C 281.28125 264.214844 284.011719 264.976562 286.78125 265.605469 C 289.550781 266.230469 292.34375 266.722656 295.160156 267.074219 Z M 296.710938 254.953125 C 301.566406 255.582031 306.433594 255.734375 311.316406 255.398438 C 316.199219 255.066406 321.003906 254.257812 325.722656 252.972656 C 330.445312 251.6875 334.996094 249.949219 339.371094 247.765625 C 343.75 245.578125 347.867188 242.980469 351.730469 239.976562 L 354.703125 243.898438 C 353.675781 244.691406 352.628906 245.460938 351.5625 246.203125 C 350.496094 246.945312 349.414062 247.660156 348.316406 248.351562 C 347.214844 249.039062 346.097656 249.703125 344.964844 250.335938 C 343.832031 250.972656 342.683594 251.578125 341.519531 252.15625 C 340.359375 252.734375 339.183594 253.285156 337.992188 253.804688 C 336.800781 254.324219 335.601562 254.816406 334.386719 255.277344 C 333.171875 255.738281 331.949219 256.171875 330.714844 256.570312 C 329.476562 256.972656 328.234375 257.34375 326.980469 257.683594 C 325.726562 258.023438 324.464844 258.335938 323.199219 258.613281 C 321.929688 258.890625 320.65625 259.140625 319.375 259.355469 C 318.09375 259.570312 316.808594 259.753906 315.519531 259.910156 C 314.226562 260.0625 312.933594 260.183594 311.640625 260.273438 C 310.34375 260.363281 309.046875 260.417969 307.746094 260.445312 C 306.449219 260.472656 305.148438 260.464844 303.851562 260.425781 C 302.554688 260.390625 301.257812 260.320312 299.960938 260.21875 C 298.667969 260.117188 297.375 259.984375 296.085938 259.820312 C 294.796875 259.65625 293.515625 259.457031 292.234375 259.230469 C 290.957031 259.003906 289.683594 258.742188 288.417969 258.453125 C 287.152344 258.164062 285.894531 257.84375 284.644531 257.492188 C 283.394531 257.136719 282.152344 256.757812 280.921875 256.34375 C 279.6875 255.929688 278.46875 255.488281 277.257812 255.015625 C 276.046875 254.542969 274.851562 254.039062 273.664062 253.507812 C 272.480469 252.976562 271.308594 252.417969 270.152344 251.828125 C 268.992188 251.238281 267.851562 250.621094 266.722656 249.976562 C 265.597656 249.332031 264.484375 248.660156 263.390625 247.960938 C 262.296875 247.261719 261.21875 246.535156 260.160156 245.785156 C 259.101562 245.03125 258.0625 244.253906 257.042969 243.449219 C 256.023438 242.648438 255.023438 241.820312 254.042969 240.96875 C 253.0625 240.113281 252.105469 239.238281 251.167969 238.339844 C 250.230469 237.441406 249.316406 236.519531 248.425781 235.574219 C 247.535156 234.628906 246.667969 233.664062 245.824219 232.679688 C 244.976562 231.691406 244.160156 230.683594 243.363281 229.660156 L 141.257812 97.734375 L 142.132812 90.90625 L 247.234375 226.710938 C 250.21875 230.582031 253.550781 234.125 257.238281 237.339844 C 260.925781 240.550781 264.890625 243.371094 269.136719 245.800781 C 273.382812 248.226562 277.824219 250.214844 282.464844 251.761719 C 287.105469 253.3125 291.851562 254.390625 296.707031 254.996094 Z M 344.261719 230.417969 L 347.242188 234.269531 C 346.375 234.9375 345.488281 235.585938 344.585938 236.214844 C 343.683594 236.839844 342.765625 237.445312 341.835938 238.027344 C 340.90625 238.609375 339.960938 239.167969 339 239.703125 C 338.042969 240.238281 337.070312 240.75 336.085938 241.238281 C 335.101562 241.726562 334.105469 242.191406 333.097656 242.628906 C 332.09375 243.070312 331.074219 243.484375 330.046875 243.871094 C 329.019531 244.261719 327.984375 244.625 326.941406 244.964844 C 325.894531 245.304688 324.84375 245.617188 323.78125 245.902344 C 322.722656 246.191406 321.65625 246.453125 320.582031 246.6875 C 319.507812 246.921875 318.429688 247.128906 317.347656 247.3125 C 316.261719 247.492188 315.175781 247.648438 314.085938 247.777344 C 312.996094 247.90625 311.902344 248.007812 310.804688 248.085938 C 309.707031 248.160156 308.609375 248.207031 307.511719 248.230469 C 306.414062 248.25 305.316406 248.246094 304.21875 248.214844 C 303.121094 248.183594 302.023438 248.121094 300.925781 248.035156 C 299.832031 247.949219 298.738281 247.839844 297.648438 247.699219 C 296.558594 247.558594 295.472656 247.394531 294.390625 247.199219 C 293.308594 247.007812 292.234375 246.789062 291.164062 246.542969 C 290.09375 246.300781 289.027344 246.027344 287.96875 245.730469 C 286.914062 245.433594 285.863281 245.109375 284.820312 244.761719 C 283.777344 244.414062 282.746094 244.039062 281.722656 243.640625 C 280.699219 243.238281 279.6875 242.816406 278.683594 242.367188 C 277.679688 241.917969 276.691406 241.445312 275.710938 240.949219 C 274.730469 240.449219 273.765625 239.929688 272.808594 239.382812 C 271.855469 238.839844 270.914062 238.269531 269.988281 237.679688 C 269.0625 237.089844 268.152344 236.476562 267.257812 235.839844 C 266.359375 235.207031 265.480469 234.550781 264.617188 233.871094 C 263.753906 233.191406 262.90625 232.492188 262.078125 231.773438 C 261.246094 231.054688 260.433594 230.3125 259.640625 229.554688 C 258.847656 228.792969 258.074219 228.015625 257.320312 227.21875 C 256.5625 226.421875 255.828125 225.605469 255.113281 224.769531 C 254.398438 223.9375 253.703125 223.085938 253.03125 222.21875 L 143.480469 80.667969 L 144.355469 73.839844 L 256.859375 219.238281 C 258.109375 220.851562 259.433594 222.398438 260.835938 223.878906 C 262.238281 225.363281 263.707031 226.773438 265.246094 228.109375 C 266.785156 229.449219 268.386719 230.707031 270.050781 231.886719 C 271.714844 233.066406 273.433594 234.164062 275.203125 235.175781 C 276.972656 236.191406 278.789062 237.113281 280.652344 237.945312 C 282.515625 238.78125 284.414062 239.523438 286.347656 240.171875 C 288.28125 240.816406 290.242188 241.371094 292.230469 241.824219 C 294.21875 242.28125 296.226562 242.636719 298.25 242.898438 C 300.273438 243.15625 302.304688 243.316406 304.34375 243.375 C 306.386719 243.433594 308.421875 243.394531 310.457031 243.253906 C 312.492188 243.113281 314.515625 242.875 316.527344 242.535156 C 318.539062 242.195312 320.53125 241.761719 322.5 241.226562 C 324.46875 240.691406 326.40625 240.0625 328.3125 239.339844 C 330.21875 238.613281 332.085938 237.800781 333.914062 236.890625 C 335.742188 235.984375 337.519531 234.992188 339.246094 233.910156 C 340.976562 232.828125 342.648438 231.664062 344.261719 230.417969 Z M 344.261719 230.417969 " clip-rule="nonzero"/></clipPath><linearGradient x1="-38.556671" gradientTransform="matrix(0.0814688, -0.636986, -0.637564, -0.0815428, 365.764736, 293.285792)" y1="0.983197" x2="344.804384" gradientUnits="userSpaceOnUse" y2="467.533373" id="5504ba4f23"><stop stop-opacity="1" stop-color="rgb(0%, 76.098633%, 100%)" offset="0"/><stop stop-opacity="1" stop-color="rgb(0%, 76.098633%, 100%)" offset="0.25"/><stop stop-opacity="1" stop-color="rgb(0%, 76.098633%, 100%)" offset="0.3125"/><stop stop-opacity="1" stop-color="rgb(0%, 76.098633%, 100%)" offset="0.320312"/><stop stop-opacity="1" stop-color="rgb(0%, 75.846863%, 100%)" offset="0.324219"/><stop stop-opacity="1" stop-color="rgb(0%, 75.595093%, 100%)" offset="0.328125"/><stop stop-opacity="1" stop-color="rgb(0%, 75.091553%, 100%)" offset="0.332031"/><stop stop-opacity="1" stop-color="rgb(0%, 74.589539%, 100%)" offset="0.335938"/><stop stop-opacity="1" stop-color="rgb(0%, 74.087524%, 100%)" offset="0.339844"/><stop stop-opacity="1" stop-color="rgb(0%, 73.58551%, 100%)" offset="0.34375"/><stop stop-opacity="1" stop-color="rgb(0%, 73.083496%, 100%)" offset="0.347656"/><stop stop-opacity="1" stop-color="rgb(0%, 72.581482%, 100%)" offset="0.351562"/><stop stop-opacity="1" stop-color="rgb(0%, 72.077942%, 100%)" offset="0.355469"/><stop stop-opacity="1" stop-color="rgb(0%, 71.575928%, 100%)" offset="0.359375"/><stop stop-opacity="1" stop-color="rgb(0%, 71.073914%, 100%)" offset="0.363281"/><stop stop-opacity="1" stop-color="rgb(0%, 70.571899%, 100%)" offset="0.367188"/><stop stop-opacity="1" stop-color="rgb(0%, 70.069885%, 100%)" offset="0.371094"/><stop stop-opacity="1" stop-color="rgb(0%, 69.567871%, 100%)" offset="0.375"/><stop stop-opacity="1" stop-color="rgb(0%, 69.064331%, 100%)" offset="0.378906"/><stop stop-opacity="1" stop-color="rgb(0%, 68.562317%, 100%)" offset="0.382812"/><stop stop-opacity="1" stop-color="rgb(0%, 68.060303%, 100%)" offset="0.386719"/><stop stop-opacity="1" stop-color="rgb(0%, 67.558289%, 100%)" offset="0.390625"/><stop stop-opacity="1" stop-color="rgb(0%, 67.056274%, 100%)" offset="0.394531"/><stop stop-opacity="1" stop-color="rgb(0%, 66.55426%, 100%)" offset="0.398438"/><stop stop-opacity="1" stop-color="rgb(0%, 66.05072%, 100%)" offset="0.402344"/><stop stop-opacity="1" stop-color="rgb(0%, 65.548706%, 100%)" offset="0.40625"/><stop stop-opacity="1" stop-color="rgb(0%, 65.046692%, 100%)" offset="0.410156"/><stop stop-opacity="1" stop-color="rgb(0%, 64.544678%, 100%)" offset="0.414062"/><stop stop-opacity="1" stop-color="rgb(0%, 64.041138%, 100%)" offset="0.417969"/><stop stop-opacity="1" stop-color="rgb(0%, 63.539124%, 100%)" offset="0.421875"/><stop stop-opacity="1" stop-color="rgb(0%, 63.037109%, 100%)" offset="0.425781"/><stop stop-opacity="1" stop-color="rgb(0%, 62.535095%, 100%)" offset="0.429688"/><stop stop-opacity="1" stop-color="rgb(0%, 62.033081%, 100%)" offset="0.433594"/><stop stop-opacity="1" stop-color="rgb(0%, 61.531067%, 100%)" offset="0.4375"/><stop stop-opacity="1" stop-color="rgb(0%, 61.027527%, 100%)" offset="0.441406"/><stop stop-opacity="1" stop-color="rgb(0%, 60.525513%, 100%)" offset="0.445312"/><stop stop-opacity="1" stop-color="rgb(0%, 60.023499%, 100%)" offset="0.449219"/><stop stop-opacity="1" stop-color="rgb(0%, 59.521484%, 100%)" offset="0.453125"/><stop stop-opacity="1" stop-color="rgb(0%, 59.01947%, 100%)" offset="0.457031"/><stop stop-opacity="1" stop-color="rgb(0%, 58.517456%, 100%)" offset="0.460938"/><stop stop-opacity="1" stop-color="rgb(0%, 58.013916%, 100%)" offset="0.464844"/><stop stop-opacity="1" stop-color="rgb(0%, 57.511902%, 100%)" offset="0.46875"/><stop stop-opacity="1" stop-color="rgb(0%, 57.009888%, 100%)" offset="0.472656"/><stop stop-opacity="1" stop-color="rgb(0%, 56.507874%, 100%)" offset="0.476562"/><stop stop-opacity="1" stop-color="rgb(0%, 56.005859%, 100%)" offset="0.480469"/><stop stop-opacity="1" stop-color="rgb(0%, 55.503845%, 100%)" offset="0.484375"/><stop stop-opacity="1" stop-color="rgb(0%, 55.000305%, 100%)" offset="0.488281"/><stop stop-opacity="1" stop-color="rgb(0%, 54.498291%, 100%)" offset="0.492188"/><stop stop-opacity="1" stop-color="rgb(0%, 53.996277%, 100%)" offset="0.496094"/><stop stop-opacity="1" stop-color="rgb(0%, 53.494263%, 100%)" offset="0.5"/><stop stop-opacity="1" stop-color="rgb(0%, 52.990723%, 100%)" offset="0.503906"/><stop stop-opacity="1" stop-color="rgb(0%, 52.488708%, 100%)" offset="0.507812"/><stop stop-opacity="1" stop-color="rgb(0%, 51.986694%, 100%)" offset="0.511719"/><stop stop-opacity="1" stop-color="rgb(0%, 51.48468%, 100%)" offset="0.515625"/><stop stop-opacity="1" stop-color="rgb(0%, 50.982666%, 100%)" offset="0.519531"/><stop stop-opacity="1" stop-color="rgb(0%, 50.480652%, 100%)" offset="0.523438"/><stop stop-opacity="1" stop-color="rgb(0%, 49.977112%, 100%)" offset="0.527344"/><stop stop-opacity="1" stop-color="rgb(0%, 49.475098%, 100%)" offset="0.53125"/><stop stop-opacity="1" stop-color="rgb(0%, 48.973083%, 100%)" offset="0.535156"/><stop stop-opacity="1" stop-color="rgb(0%, 48.471069%, 100%)" offset="0.539062"/><stop stop-opacity="1" stop-color="rgb(0%, 47.969055%, 100%)" offset="0.542969"/><stop stop-opacity="1" stop-color="rgb(0%, 47.467041%, 100%)" offset="0.546875"/><stop stop-opacity="1" stop-color="rgb(0%, 46.963501%, 100%)" offset="0.550781"/><stop stop-opacity="1" stop-color="rgb(0%, 46.461487%, 100%)" offset="0.554688"/><stop stop-opacity="1" stop-color="rgb(0%, 45.959473%, 100%)" offset="0.558594"/><stop stop-opacity="1" stop-color="rgb(0%, 45.457458%, 100%)" offset="0.5625"/><stop stop-opacity="1" stop-color="rgb(0%, 44.953918%, 100%)" offset="0.566406"/><stop stop-opacity="1" stop-color="rgb(0%, 44.451904%, 100%)" offset="0.570312"/><stop stop-opacity="1" stop-color="rgb(0%, 43.94989%, 100%)" offset="0.574219"/><stop stop-opacity="1" stop-color="rgb(0%, 43.447876%, 100%)" offset="0.578125"/><stop stop-opacity="1" stop-color="rgb(0%, 42.945862%, 100%)" offset="0.582031"/><stop stop-opacity="1" stop-color="rgb(0%, 42.443848%, 100%)" offset="0.585938"/><stop stop-opacity="1" stop-color="rgb(0%, 41.940308%, 100%)" offset="0.589844"/><stop stop-opacity="1" stop-color="rgb(0%, 41.438293%, 100%)" offset="0.59375"/><stop stop-opacity="1" stop-color="rgb(0%, 40.936279%, 100%)" offset="0.597656"/><stop stop-opacity="1" stop-color="rgb(0%, 40.434265%, 100%)" offset="0.601562"/><stop stop-opacity="1" stop-color="rgb(0%, 39.932251%, 100%)" offset="0.605469"/><stop stop-opacity="1" stop-color="rgb(0%, 39.430237%, 100%)" offset="0.609375"/><stop stop-opacity="1" stop-color="rgb(0%, 38.926697%, 100%)" offset="0.613281"/><stop stop-opacity="1" stop-color="rgb(0%, 38.424683%, 100%)" offset="0.617188"/><stop stop-opacity="1" stop-color="rgb(0%, 37.922668%, 100%)" offset="0.621094"/><stop stop-opacity="1" stop-color="rgb(0%, 37.420654%, 100%)" offset="0.625"/><stop stop-opacity="1" stop-color="rgb(0%, 36.91864%, 100%)" offset="0.628906"/><stop stop-opacity="1" stop-color="rgb(0%, 36.416626%, 100%)" offset="0.632812"/><stop stop-opacity="1" stop-color="rgb(0%, 35.913086%, 100%)" offset="0.636719"/><stop stop-opacity="1" stop-color="rgb(0%, 35.411072%, 100%)" offset="0.640625"/><stop stop-opacity="1" stop-color="rgb(0%, 34.909058%, 100%)" offset="0.644531"/><stop stop-opacity="1" stop-color="rgb(0%, 34.407043%, 100%)" offset="0.648438"/><stop stop-opacity="1" stop-color="rgb(0%, 33.903503%, 100%)" offset="0.652344"/><stop stop-opacity="1" stop-color="rgb(0%, 33.401489%, 100%)" offset="0.65625"/><stop stop-opacity="1" stop-color="rgb(0%, 32.899475%, 100%)" offset="0.660156"/><stop stop-opacity="1" stop-color="rgb(0%, 32.397461%, 100%)" offset="0.664062"/><stop stop-opacity="1" stop-color="rgb(0%, 31.895447%, 100%)" offset="0.667969"/><stop stop-opacity="1" stop-color="rgb(0%, 31.393433%, 100%)" offset="0.671875"/><stop stop-opacity="1" stop-color="rgb(0%, 30.889893%, 100%)" offset="0.675781"/><stop stop-opacity="1" stop-color="rgb(0%, 30.387878%, 100%)" offset="0.679688"/><stop stop-opacity="1" stop-color="rgb(0%, 29.885864%, 100%)" offset="0.683594"/><stop stop-opacity="1" stop-color="rgb(0%, 29.38385%, 100%)" offset="0.6875"/><stop stop-opacity="1" stop-color="rgb(0%, 28.881836%, 100%)" offset="0.691406"/><stop stop-opacity="1" stop-color="rgb(0%, 28.379822%, 100%)" offset="0.695312"/><stop stop-opacity="1" stop-color="rgb(0%, 27.876282%, 100%)" offset="0.699219"/><stop stop-opacity="1" stop-color="rgb(0%, 27.374268%, 100%)" offset="0.703125"/><stop stop-opacity="1" stop-color="rgb(0%, 26.872253%, 100%)" offset="0.707031"/><stop stop-opacity="1" stop-color="rgb(0%, 26.370239%, 100%)" offset="0.710938"/><stop stop-opacity="1" stop-color="rgb(0%, 25.866699%, 100%)" offset="0.714844"/><stop stop-opacity="1" stop-color="rgb(0%, 25.364685%, 100%)" offset="0.71875"/><stop stop-opacity="1" stop-color="rgb(0%, 24.862671%, 100%)" offset="0.722656"/><stop stop-opacity="1" stop-color="rgb(0%, 24.360657%, 100%)" offset="0.726562"/><stop stop-opacity="1" stop-color="rgb(0%, 23.858643%, 100%)" offset="0.730469"/><stop stop-opacity="1" stop-color="rgb(0%, 23.356628%, 100%)" offset="0.734375"/><stop stop-opacity="1" stop-color="rgb(0%, 22.853088%, 100%)" offset="0.738281"/><stop stop-opacity="1" stop-color="rgb(0%, 22.351074%, 100%)" offset="0.742188"/><stop stop-opacity="1" stop-color="rgb(0%, 21.84906%, 100%)" offset="0.746094"/><stop stop-opacity="1" stop-color="rgb(0%, 21.347046%, 100%)" offset="0.75"/><stop stop-opacity="1" stop-color="rgb(0%, 20.845032%, 100%)" offset="0.753906"/><stop stop-opacity="1" stop-color="rgb(0%, 20.343018%, 100%)" offset="0.757812"/><stop stop-opacity="1" stop-color="rgb(0%, 19.839478%, 100%)" offset="0.761719"/><stop stop-opacity="1" stop-color="rgb(0%, 19.337463%, 100%)" offset="0.765625"/><stop stop-opacity="1" stop-color="rgb(0%, 19.067383%, 100%)" offset="0.769531"/><stop stop-opacity="1" stop-color="rgb(0%, 18.798828%, 100%)" offset="0.773438"/><stop stop-opacity="1" stop-color="rgb(0%, 18.798828%, 100%)" offset="0.78125"/><stop stop-opacity="1" stop-color="rgb(0%, 18.798828%, 100%)" offset="0.8125"/><stop stop-opacity="1" stop-color="rgb(0%, 18.798828%, 100%)" offset="0.875"/><stop stop-opacity="1" stop-color="rgb(0%, 18.798828%, 100%)" offset="1"/></linearGradient><clipPath id="0ea9bfc3db"><path d="M 5 28 L 196 28 L 196 302 L 5 302 Z M 5 28 " clip-rule="nonzero"/></clipPath><clipPath id="2752184ed0"><path d="M -45.597656 72.03125 L 178.460938 22.34375 L 229.28125 251.527344 L 5.226562 301.210938 Z M -45.597656 72.03125 " clip-rule="nonzero"/></clipPath><clipPath id="1211f6e6eb"><path d="M 178.171875 22.40625 L -45.882812 72.09375 L 4.941406 301.277344 L 228.996094 251.589844 Z M 178.171875 22.40625 " clip-rule="nonzero"/></clipPath><clipPath id="875fc3fe42"><path d="M 116.316406 81.339844 L 118.804688 77.441406 C 119.925781 78.15625 121.007812 78.925781 122.054688 79.746094 C 123.097656 80.570312 124.101562 81.4375 125.0625 82.359375 C 126.023438 83.277344 126.933594 84.242188 127.800781 85.253906 C 128.664062 86.261719 129.480469 87.3125 130.242188 88.398438 C 131.003906 89.488281 131.710938 90.613281 132.363281 91.769531 C 133.015625 92.929688 133.609375 94.117188 134.144531 95.332031 C 134.679688 96.550781 135.152344 97.789062 135.566406 99.054688 C 135.980469 100.316406 136.332031 101.597656 136.617188 102.894531 C 136.90625 104.191406 137.128906 105.5 137.289062 106.820312 C 137.449219 108.140625 137.542969 109.464844 137.570312 110.792969 C 137.601562 112.121094 137.566406 113.449219 137.464844 114.773438 C 137.363281 116.097656 137.195312 117.417969 136.964844 118.726562 C 136.734375 120.035156 136.441406 121.328125 136.085938 122.609375 C 135.726562 123.890625 135.308594 125.148438 134.828125 126.390625 C 134.34375 127.628906 133.804688 128.84375 133.203125 130.027344 C 132.605469 131.214844 131.945312 132.367188 131.234375 133.492188 L 27.414062 296.292969 L 21.027344 297.707031 L 127.332031 131.007812 C 127.964844 130.015625 128.546875 128.992188 129.078125 127.941406 C 129.613281 126.890625 130.089844 125.816406 130.519531 124.714844 C 130.945312 123.617188 131.316406 122.5 131.632812 121.367188 C 131.949219 120.230469 132.210938 119.085938 132.414062 117.925781 C 132.621094 116.765625 132.765625 115.597656 132.855469 114.421875 C 132.945312 113.246094 132.976562 112.070312 132.953125 110.894531 C 132.925781 109.714844 132.84375 108.542969 132.703125 107.375 C 132.558594 106.203125 132.363281 105.042969 132.105469 103.894531 C 131.851562 102.746094 131.542969 101.609375 131.175781 100.492188 C 130.808594 99.371094 130.386719 98.273438 129.914062 97.195312 C 129.4375 96.117188 128.914062 95.0625 128.335938 94.039062 C 127.757812 93.011719 127.132812 92.015625 126.457031 91.050781 C 125.78125 90.085938 125.058594 89.15625 124.292969 88.261719 C 123.523438 87.367188 122.714844 86.511719 121.863281 85.695312 C 121.015625 84.882812 120.125 84.109375 119.199219 83.382812 C 118.273438 82.65625 117.3125 81.972656 116.316406 81.339844 Z M 117.566406 124.777344 C 117.996094 124.101562 118.390625 123.40625 118.753906 122.691406 C 119.113281 121.980469 119.4375 121.25 119.730469 120.503906 C 120.019531 119.761719 120.269531 119.003906 120.484375 118.230469 C 120.699219 117.460938 120.878906 116.683594 121.015625 115.894531 C 121.15625 115.109375 121.253906 114.316406 121.316406 113.519531 C 121.375 112.722656 121.398438 111.925781 121.378906 111.125 C 121.363281 110.328125 121.304688 109.53125 121.210938 108.738281 C 121.113281 107.941406 120.980469 107.15625 120.804688 106.375 C 120.632812 105.59375 120.421875 104.824219 120.175781 104.066406 C 119.925781 103.304688 119.640625 102.5625 119.316406 101.828125 C 118.996094 101.097656 118.640625 100.382812 118.246094 99.6875 C 117.855469 98.988281 117.429688 98.3125 116.972656 97.660156 C 116.511719 97.003906 116.023438 96.375 115.503906 95.765625 C 114.984375 95.160156 114.433594 94.578125 113.855469 94.027344 C 113.28125 93.472656 112.675781 92.949219 112.046875 92.457031 C 111.417969 91.960938 110.765625 91.5 110.09375 91.070312 L 112.578125 87.171875 C 113.378906 87.683594 114.15625 88.234375 114.902344 88.820312 C 115.652344 89.40625 116.367188 90.03125 117.054688 90.6875 C 117.742188 91.347656 118.394531 92.035156 119.011719 92.757812 C 119.632812 93.480469 120.210938 94.230469 120.757812 95.007812 C 121.304688 95.789062 121.808594 96.59375 122.273438 97.421875 C 122.742188 98.25 123.164062 99.097656 123.546875 99.96875 C 123.929688 100.839844 124.269531 101.726562 124.566406 102.628906 C 124.863281 103.53125 125.113281 104.449219 125.316406 105.375 C 125.523438 106.304688 125.683594 107.238281 125.796875 108.183594 C 125.910156 109.125 125.980469 110.074219 126 111.023438 C 126.019531 111.972656 125.996094 112.921875 125.921875 113.871094 C 125.851562 114.820312 125.730469 115.761719 125.566406 116.699219 C 125.402344 117.632812 125.191406 118.558594 124.9375 119.476562 C 124.679688 120.390625 124.382812 121.292969 124.039062 122.179688 C 123.691406 123.066406 123.308594 123.933594 122.878906 124.78125 C 122.449219 125.628906 121.980469 126.453125 121.46875 127.257812 L 11.421875 299.839844 L 5.046875 301.253906 Z M 143.421875 101.382812 C 142.753906 98.332031 141.792969 95.378906 140.539062 92.519531 C 139.285156 89.660156 137.761719 86.949219 135.96875 84.394531 C 134.175781 81.835938 132.148438 79.480469 129.890625 77.324219 C 127.628906 75.167969 125.179688 73.257812 122.539062 71.585938 L 125.023438 67.6875 C 126.464844 68.605469 127.859375 69.59375 129.203125 70.648438 C 130.546875 71.703125 131.839844 72.820312 133.074219 74 C 134.308594 75.183594 135.484375 76.421875 136.59375 77.71875 C 137.707031 79.011719 138.753906 80.359375 139.734375 81.761719 C 140.714844 83.160156 141.625 84.605469 142.464844 86.09375 C 143.304688 87.582031 144.066406 89.105469 144.753906 90.671875 C 145.441406 92.234375 146.054688 93.828125 146.585938 95.449219 C 147.117188 97.074219 147.566406 98.71875 147.9375 100.386719 C 148.308594 102.054688 148.59375 103.738281 148.796875 105.433594 C 149.003906 107.128906 149.125 108.832031 149.160156 110.539062 C 149.199219 112.246094 149.152344 113.953125 149.019531 115.65625 C 148.890625 117.359375 148.675781 119.050781 148.378906 120.734375 C 148.082031 122.417969 147.703125 124.082031 147.242188 125.726562 C 146.78125 127.371094 146.242188 128.992188 145.621094 130.582031 C 145 132.175781 144.304688 133.734375 143.53125 135.257812 C 142.757812 136.78125 141.914062 138.265625 140.996094 139.707031 L 43.394531 292.75 L 37.007812 294.164062 L 137.09375 137.21875 C 138.777344 134.589844 140.191406 131.820312 141.328125 128.910156 C 142.464844 126 143.308594 123.007812 143.851562 119.933594 C 144.394531 116.855469 144.628906 113.757812 144.558594 110.636719 C 144.484375 107.515625 144.105469 104.429688 143.421875 101.382812 Z M 188.621094 91.359375 C 187.960938 88.359375 187.160156 85.394531 186.207031 82.476562 C 185.257812 79.554688 184.164062 76.683594 182.929688 73.871094 C 181.695312 71.058594 180.324219 68.3125 178.820312 65.632812 C 177.3125 62.957031 175.675781 60.359375 173.914062 57.839844 C 172.148438 55.324219 170.265625 52.902344 168.261719 50.570312 C 166.257812 48.242188 164.144531 46.015625 161.917969 43.894531 C 159.695312 41.773438 157.371094 39.769531 154.949219 37.875 C 152.523438 35.984375 150.015625 34.21875 147.417969 32.574219 L 149.894531 28.675781 C 151.257812 29.542969 152.59375 30.441406 153.910156 31.371094 C 155.222656 32.300781 156.515625 33.261719 157.785156 34.257812 C 159.050781 35.25 160.292969 36.277344 161.511719 37.332031 C 162.730469 38.386719 163.921875 39.46875 165.085938 40.582031 C 166.25 41.695312 167.386719 42.835938 168.496094 44.007812 C 169.601562 45.175781 170.683594 46.371094 171.730469 47.59375 C 172.78125 48.816406 173.800781 50.0625 174.789062 51.335938 C 175.777344 52.605469 176.730469 53.902344 177.65625 55.222656 C 178.582031 56.539062 179.472656 57.878906 180.332031 59.242188 C 181.191406 60.605469 182.015625 61.988281 182.804688 63.394531 C 183.59375 64.796875 184.351562 66.21875 185.070312 67.65625 C 185.792969 69.097656 186.476562 70.554688 187.125 72.03125 C 187.777344 73.503906 188.386719 74.992188 188.964844 76.496094 C 189.539062 78 190.078125 79.519531 190.578125 81.046875 C 191.082031 82.578125 191.542969 84.121094 191.96875 85.675781 C 192.394531 87.226562 192.78125 88.789062 193.128906 90.363281 C 193.480469 91.933594 193.789062 93.515625 194.058594 95.101562 C 194.332031 96.6875 194.5625 98.28125 194.757812 99.882812 C 194.949219 101.480469 195.101562 103.082031 195.214844 104.691406 C 195.328125 106.296875 195.402344 107.90625 195.4375 109.515625 C 195.472656 111.125 195.46875 112.734375 195.425781 114.34375 C 195.378906 115.953125 195.296875 117.5625 195.171875 119.167969 C 195.050781 120.773438 194.886719 122.375 194.6875 123.972656 C 194.484375 125.574219 194.242188 127.164062 193.960938 128.75 C 193.683594 130.335938 193.363281 131.914062 193.003906 133.484375 C 192.648438 135.054688 192.25 136.617188 191.816406 138.167969 C 191.382812 139.71875 190.910156 141.257812 190.398438 142.785156 C 189.890625 144.316406 189.34375 145.828125 188.757812 147.332031 C 188.171875 148.832031 187.550781 150.316406 186.894531 151.789062 C 186.238281 153.257812 185.542969 154.714844 184.816406 156.148438 C 184.085938 157.585938 183.320312 159.003906 182.523438 160.402344 C 181.722656 161.804688 180.890625 163.183594 180.023438 164.539062 L 107.304688 278.574219 L 100.921875 279.992188 L 176.128906 162.058594 C 177.789062 159.46875 179.320312 156.804688 180.714844 154.066406 C 182.113281 151.328125 183.367188 148.527344 184.488281 145.664062 C 185.605469 142.804688 186.582031 139.890625 187.414062 136.933594 C 188.246094 133.972656 188.925781 130.980469 189.460938 127.953125 C 189.996094 124.929688 190.378906 121.882812 190.613281 118.820312 C 190.847656 115.753906 190.925781 112.6875 190.855469 109.613281 C 190.785156 106.542969 190.5625 103.480469 190.191406 100.433594 C 189.816406 97.382812 189.292969 94.359375 188.621094 91.359375 Z M 177.300781 93.871094 C 176.722656 91.238281 176.019531 88.644531 175.191406 86.082031 C 174.359375 83.519531 173.402344 81.007812 172.320312 78.539062 C 171.242188 76.074219 170.042969 73.664062 168.722656 71.316406 C 167.402344 68.96875 165.972656 66.691406 164.425781 64.484375 C 162.882812 62.277344 161.234375 60.152344 159.476562 58.109375 C 157.722656 56.066406 155.871094 54.113281 153.925781 52.253906 C 151.976562 50.394531 149.941406 48.632812 147.816406 46.972656 C 145.695312 45.316406 143.496094 43.765625 141.21875 42.324219 L 143.699219 38.425781 C 144.902344 39.1875 146.082031 39.980469 147.242188 40.800781 C 148.402344 41.625 149.542969 42.472656 150.660156 43.347656 C 151.78125 44.226562 152.878906 45.128906 153.953125 46.0625 C 155.027344 46.992188 156.078125 47.949219 157.105469 48.929688 C 158.132812 49.914062 159.136719 50.921875 160.113281 51.953125 C 161.09375 52.984375 162.042969 54.039062 162.972656 55.117188 C 163.898438 56.195312 164.796875 57.296875 165.667969 58.417969 C 166.539062 59.542969 167.382812 60.6875 168.199219 61.851562 C 169.015625 63.015625 169.804688 64.195312 170.5625 65.398438 C 171.320312 66.601562 172.046875 67.824219 172.742188 69.0625 C 173.441406 70.300781 174.109375 71.554688 174.746094 72.824219 C 175.378906 74.097656 175.984375 75.382812 176.558594 76.683594 C 177.128906 77.984375 177.671875 79.296875 178.179688 80.625 C 178.6875 81.953125 179.164062 83.292969 179.605469 84.644531 C 180.046875 85.992188 180.457031 87.355469 180.832031 88.726562 C 181.207031 90.09375 181.550781 91.476562 181.855469 92.863281 C 182.164062 94.25 182.4375 95.644531 182.675781 97.046875 C 182.917969 98.445312 183.121094 99.851562 183.292969 101.261719 C 183.460938 102.675781 183.597656 104.089844 183.695312 105.507812 C 183.796875 106.925781 183.863281 108.34375 183.894531 109.765625 C 183.925781 111.1875 183.921875 112.605469 183.882812 114.027344 C 183.84375 115.449219 183.769531 116.867188 183.660156 118.285156 C 183.550781 119.703125 183.40625 121.117188 183.230469 122.527344 C 183.050781 123.9375 182.835938 125.339844 182.589844 126.742188 C 182.34375 128.140625 182.0625 129.535156 181.746094 130.917969 C 181.429688 132.304688 181.082031 133.683594 180.695312 135.050781 C 180.3125 136.421875 179.898438 137.78125 179.445312 139.128906 C 178.996094 140.476562 178.511719 141.8125 177.996094 143.136719 C 177.480469 144.460938 176.933594 145.773438 176.351562 147.070312 C 175.773438 148.371094 175.160156 149.652344 174.515625 150.921875 C 173.875 152.1875 173.199219 153.441406 172.492188 154.675781 C 171.789062 155.910156 171.054688 157.125 170.289062 158.324219 L 91.347656 282.113281 L 84.945312 283.535156 L 166.394531 155.84375 C 167.847656 153.574219 169.1875 151.238281 170.410156 148.835938 C 171.632812 146.4375 172.734375 143.980469 173.714844 141.472656 C 174.695312 138.960938 175.546875 136.410156 176.273438 133.816406 C 177.003906 131.222656 177.601562 128.597656 178.066406 125.945312 C 178.535156 123.292969 178.871094 120.621094 179.074219 117.9375 C 179.277344 115.25 179.347656 112.558594 179.285156 109.867188 C 179.222656 107.175781 179.027344 104.492188 178.695312 101.816406 C 178.367188 99.144531 177.910156 96.492188 177.316406 93.867188 Z M 165.980469 96.378906 C 164.984375 91.847656 163.554688 87.453125 161.6875 83.203125 C 159.820312 78.953125 157.550781 74.925781 154.886719 71.125 C 152.21875 67.324219 149.203125 63.824219 145.839844 60.621094 C 142.476562 57.417969 138.832031 54.578125 134.90625 52.097656 L 137.457031 48.183594 C 138.496094 48.84375 139.519531 49.53125 140.527344 50.246094 C 141.53125 50.957031 142.519531 51.691406 143.492188 52.453125 C 144.460938 53.210938 145.414062 53.996094 146.34375 54.804688 C 147.273438 55.609375 148.1875 56.441406 149.078125 57.292969 C 149.96875 58.144531 150.835938 59.015625 151.683594 59.910156 C 152.53125 60.804688 153.359375 61.71875 154.160156 62.65625 C 154.964844 63.589844 155.742188 64.542969 156.5 65.515625 C 157.253906 66.488281 157.988281 67.480469 158.695312 68.488281 C 159.402344 69.5 160.082031 70.523438 160.742188 71.566406 C 161.398438 72.609375 162.027344 73.667969 162.632812 74.742188 C 163.238281 75.816406 163.816406 76.902344 164.367188 78.003906 C 164.917969 79.105469 165.441406 80.222656 165.9375 81.347656 C 166.4375 82.476562 166.90625 83.617188 167.34375 84.765625 C 167.785156 85.917969 168.199219 87.078125 168.582031 88.25 C 168.964844 89.417969 169.320312 90.597656 169.644531 91.785156 C 169.96875 92.976562 170.265625 94.171875 170.53125 95.375 C 170.800781 96.578125 171.035156 97.785156 171.242188 99 C 171.453125 100.214844 171.628906 101.433594 171.777344 102.65625 C 171.921875 103.878906 172.039062 105.105469 172.128906 106.335938 C 172.214844 107.5625 172.273438 108.792969 172.296875 110.027344 C 172.324219 111.257812 172.320312 112.488281 172.289062 113.722656 C 172.253906 114.953125 172.191406 116.183594 172.09375 117.410156 C 172 118.640625 171.875 119.863281 171.722656 121.085938 C 171.566406 122.308594 171.382812 123.527344 171.167969 124.742188 C 170.953125 125.953125 170.710938 127.164062 170.4375 128.363281 C 170.164062 129.566406 169.859375 130.757812 169.527344 131.945312 C 169.195312 133.132812 168.832031 134.308594 168.445312 135.480469 C 168.054688 136.648438 167.632812 137.808594 167.1875 138.957031 C 166.738281 140.105469 166.265625 141.242188 165.761719 142.367188 C 165.257812 143.492188 164.726562 144.601562 164.171875 145.703125 C 163.613281 146.800781 163.027344 147.886719 162.417969 148.957031 C 161.804688 150.027344 161.167969 151.082031 160.507812 152.121094 L 75.351562 285.660156 L 68.964844 287.078125 L 156.625 149.617188 C 159.128906 145.707031 161.226562 141.59375 162.914062 137.269531 C 164.605469 132.945312 165.851562 128.5 166.65625 123.929688 C 167.464844 119.363281 167.8125 114.757812 167.707031 110.117188 C 167.597656 105.480469 167.039062 100.898438 166.019531 96.371094 Z M 128.757812 61.835938 L 131.242188 57.9375 C 133.003906 59.058594 134.703125 60.265625 136.34375 61.554688 C 137.984375 62.84375 139.554688 64.210938 141.0625 65.652344 C 142.566406 67.097656 144 68.609375 145.355469 70.191406 C 146.714844 71.777344 147.992188 73.421875 149.1875 75.132812 C 150.382812 76.839844 151.492188 78.605469 152.515625 80.421875 C 153.539062 82.238281 154.46875 84.101562 155.308594 86.011719 C 156.148438 87.921875 156.894531 89.867188 157.542969 91.847656 C 158.191406 93.832031 158.742188 95.839844 159.191406 97.875 C 159.644531 99.910156 159.996094 101.964844 160.246094 104.035156 C 160.496094 106.105469 160.640625 108.183594 160.6875 110.269531 C 160.734375 112.355469 160.679688 114.4375 160.519531 116.515625 C 160.359375 118.59375 160.101562 120.664062 159.738281 122.714844 C 159.378906 124.769531 158.917969 126.800781 158.355469 128.8125 C 157.796875 130.820312 157.136719 132.796875 156.382812 134.742188 C 155.628906 136.6875 154.78125 138.589844 153.839844 140.453125 C 152.898438 142.3125 151.867188 144.125 150.746094 145.886719 L 59.375 289.167969 L 52.988281 290.582031 L 146.851562 143.429688 C 147.890625 141.796875 148.847656 140.113281 149.722656 138.386719 C 150.597656 136.660156 151.386719 134.894531 152.089844 133.089844 C 152.789062 131.289062 153.402344 129.453125 153.921875 127.589844 C 154.445312 125.726562 154.871094 123.839844 155.207031 121.933594 C 155.542969 120.027344 155.785156 118.109375 155.933594 116.179688 C 156.082031 114.25 156.132812 112.316406 156.09375 110.382812 C 156.050781 108.449219 155.914062 106.519531 155.679688 104.597656 C 155.449219 102.679688 155.125 100.773438 154.703125 98.882812 C 154.285156 96.996094 153.777344 95.128906 153.171875 93.289062 C 152.570312 91.453125 151.878906 89.648438 151.101562 87.875 C 150.320312 86.105469 149.457031 84.375 148.507812 82.6875 C 147.558594 81.003906 146.527344 79.367188 145.417969 77.78125 C 144.308594 76.195312 143.121094 74.667969 141.863281 73.199219 C 140.601562 71.730469 139.273438 70.328125 137.875 68.988281 C 136.476562 67.648438 135.015625 66.382812 133.492188 65.1875 C 131.96875 63.992188 130.390625 62.875 128.757812 61.835938 Z M 128.757812 61.835938 " clip-rule="nonzero"/></clipPath><linearGradient x1="-59.061403" gradientTransform="matrix(-0.595798, 0.132124, 0.131988, 0.595186, 178.06581, 22.430789)" y1="-23.97105" x2="349.936797" gradientUnits="userSpaceOnUse" y2="473.779516" id="6857b0644d"><stop stop-opacity="1" stop-color="rgb(0%, 18.798828%, 100%)" offset="0"/><stop stop-opacity="1" stop-color="rgb(0%, 18.798828%, 100%)" offset="0.25"/><stop stop-opacity="1" stop-color="rgb(0%, 18.798828%, 100%)" offset="0.3125"/><stop stop-opacity="1" stop-color="rgb(0%, 18.798828%, 100%)" offset="0.34375"/><stop stop-opacity="1" stop-color="rgb(0%, 18.798828%, 100%)" offset="0.351563"/><stop stop-opacity="1" stop-color="rgb(0%, 19.166565%, 100%)" offset="0.355469"/><stop stop-opacity="1" stop-color="rgb(0%, 19.534302%, 100%)" offset="0.359375"/><stop stop-opacity="1" stop-color="rgb(0%, 20.069885%, 100%)" offset="0.363281"/><stop stop-opacity="1" stop-color="rgb(0%, 20.606995%, 100%)" offset="0.367188"/><stop stop-opacity="1" stop-color="rgb(0%, 21.142578%, 100%)" offset="0.371094"/><stop stop-opacity="1" stop-color="rgb(0%, 21.678162%, 100%)" offset="0.375"/><stop stop-opacity="1" stop-color="rgb(0%, 22.213745%, 100%)" offset="0.378906"/><stop stop-opacity="1" stop-color="rgb(0%, 22.749329%, 100%)" offset="0.382813"/><stop stop-opacity="1" stop-color="rgb(0%, 23.284912%, 100%)" offset="0.386719"/><stop stop-opacity="1" stop-color="rgb(0%, 23.822021%, 100%)" offset="0.390625"/><stop stop-opacity="1" stop-color="rgb(0%, 24.357605%, 100%)" offset="0.394531"/><stop stop-opacity="1" stop-color="rgb(0%, 24.893188%, 100%)" offset="0.398438"/><stop stop-opacity="1" stop-color="rgb(0%, 25.428772%, 100%)" offset="0.402344"/><stop stop-opacity="1" stop-color="rgb(0%, 25.965881%, 100%)" offset="0.40625"/><stop stop-opacity="1" stop-color="rgb(0%, 26.501465%, 100%)" offset="0.410156"/><stop stop-opacity="1" stop-color="rgb(0%, 27.037048%, 100%)" offset="0.414062"/><stop stop-opacity="1" stop-color="rgb(0%, 27.572632%, 100%)" offset="0.417969"/><stop stop-opacity="1" stop-color="rgb(0%, 28.108215%, 100%)" offset="0.421875"/><stop stop-opacity="1" stop-color="rgb(0%, 28.643799%, 100%)" offset="0.425781"/><stop stop-opacity="1" stop-color="rgb(0%, 29.180908%, 100%)" offset="0.429688"/><stop stop-opacity="1" stop-color="rgb(0%, 29.716492%, 100%)" offset="0.433594"/><stop stop-opacity="1" stop-color="rgb(0%, 30.252075%, 100%)" offset="0.4375"/><stop stop-opacity="1" stop-color="rgb(0%, 30.787659%, 100%)" offset="0.441406"/><stop stop-opacity="1" stop-color="rgb(0%, 31.324768%, 100%)" offset="0.445312"/><stop stop-opacity="1" stop-color="rgb(0%, 31.860352%, 100%)" offset="0.449219"/><stop stop-opacity="1" stop-color="rgb(0%, 32.395935%, 100%)" offset="0.453125"/><stop stop-opacity="1" stop-color="rgb(0%, 32.931519%, 100%)" offset="0.457031"/><stop stop-opacity="1" stop-color="rgb(0%, 33.467102%, 100%)" offset="0.460938"/><stop stop-opacity="1" stop-color="rgb(0%, 34.002686%, 100%)" offset="0.464844"/><stop stop-opacity="1" stop-color="rgb(0%, 34.539795%, 100%)" offset="0.46875"/><stop stop-opacity="1" stop-color="rgb(0%, 35.075378%, 100%)" offset="0.472656"/><stop stop-opacity="1" stop-color="rgb(0%, 35.610962%, 100%)" offset="0.476563"/><stop stop-opacity="1" stop-color="rgb(0%, 36.146545%, 100%)" offset="0.480469"/><stop stop-opacity="1" stop-color="rgb(0%, 36.683655%, 100%)" offset="0.484375"/><stop stop-opacity="1" stop-color="rgb(0%, 37.219238%, 100%)" offset="0.488281"/><stop stop-opacity="1" stop-color="rgb(0%, 37.754822%, 100%)" offset="0.492188"/><stop stop-opacity="1" stop-color="rgb(0%, 38.290405%, 100%)" offset="0.496094"/><stop stop-opacity="1" stop-color="rgb(0%, 38.825989%, 100%)" offset="0.5"/><stop stop-opacity="1" stop-color="rgb(0%, 39.361572%, 100%)" offset="0.503906"/><stop stop-opacity="1" stop-color="rgb(0%, 39.898682%, 100%)" offset="0.507813"/><stop stop-opacity="1" stop-color="rgb(0%, 40.434265%, 100%)" offset="0.511719"/><stop stop-opacity="1" stop-color="rgb(0%, 40.969849%, 100%)" offset="0.515625"/><stop stop-opacity="1" stop-color="rgb(0%, 41.505432%, 100%)" offset="0.519531"/><stop stop-opacity="1" stop-color="rgb(0%, 42.041016%, 100%)" offset="0.523438"/><stop stop-opacity="1" stop-color="rgb(0%, 42.576599%, 100%)" offset="0.527344"/><stop stop-opacity="1" stop-color="rgb(0%, 43.113708%, 100%)" offset="0.53125"/><stop stop-opacity="1" stop-color="rgb(0%, 43.649292%, 100%)" offset="0.535156"/><stop stop-opacity="1" stop-color="rgb(0%, 44.184875%, 100%)" offset="0.539063"/><stop stop-opacity="1" stop-color="rgb(0%, 44.720459%, 100%)" offset="0.542969"/><stop stop-opacity="1" stop-color="rgb(0%, 45.257568%, 100%)" offset="0.546875"/><stop stop-opacity="1" stop-color="rgb(0%, 45.793152%, 100%)" offset="0.550781"/><stop stop-opacity="1" stop-color="rgb(0%, 46.328735%, 100%)" offset="0.554688"/><stop stop-opacity="1" stop-color="rgb(0%, 46.864319%, 100%)" offset="0.558594"/><stop stop-opacity="1" stop-color="rgb(0%, 47.399902%, 100%)" offset="0.5625"/><stop stop-opacity="1" stop-color="rgb(0%, 47.935486%, 100%)" offset="0.566406"/><stop stop-opacity="1" stop-color="rgb(0%, 48.472595%, 100%)" offset="0.570312"/><stop stop-opacity="1" stop-color="rgb(0%, 49.008179%, 100%)" offset="0.574219"/><stop stop-opacity="1" stop-color="rgb(0%, 49.543762%, 100%)" offset="0.578125"/><stop stop-opacity="1" stop-color="rgb(0%, 50.079346%, 100%)" offset="0.582031"/><stop stop-opacity="1" stop-color="rgb(0%, 50.616455%, 100%)" offset="0.585938"/><stop stop-opacity="1" stop-color="rgb(0%, 51.152039%, 100%)" offset="0.589844"/><stop stop-opacity="1" stop-color="rgb(0%, 51.687622%, 100%)" offset="0.59375"/><stop stop-opacity="1" stop-color="rgb(0%, 52.223206%, 100%)" offset="0.597656"/><stop stop-opacity="1" stop-color="rgb(0%, 52.758789%, 100%)" offset="0.601562"/><stop stop-opacity="1" stop-color="rgb(0%, 53.294373%, 100%)" offset="0.605469"/><stop stop-opacity="1" stop-color="rgb(0%, 53.831482%, 100%)" offset="0.609375"/><stop stop-opacity="1" stop-color="rgb(0%, 54.367065%, 100%)" offset="0.613281"/><stop stop-opacity="1" stop-color="rgb(0%, 54.902649%, 100%)" offset="0.617188"/><stop stop-opacity="1" stop-color="rgb(0%, 55.438232%, 100%)" offset="0.621094"/><stop stop-opacity="1" stop-color="rgb(0%, 55.975342%, 100%)" offset="0.625"/><stop stop-opacity="1" stop-color="rgb(0%, 56.510925%, 100%)" offset="0.628906"/><stop stop-opacity="1" stop-color="rgb(0%, 57.046509%, 100%)" offset="0.632813"/><stop stop-opacity="1" stop-color="rgb(0%, 57.582092%, 100%)" offset="0.636719"/><stop stop-opacity="1" stop-color="rgb(0%, 58.117676%, 100%)" offset="0.640625"/><stop stop-opacity="1" stop-color="rgb(0%, 58.653259%, 100%)" offset="0.644531"/><stop stop-opacity="1" stop-color="rgb(0%, 59.190369%, 100%)" offset="0.648438"/><stop stop-opacity="1" stop-color="rgb(0%, 59.725952%, 100%)" offset="0.652344"/><stop stop-opacity="1" stop-color="rgb(0%, 60.261536%, 100%)" offset="0.65625"/><stop stop-opacity="1" stop-color="rgb(0%, 60.797119%, 100%)" offset="0.660156"/><stop stop-opacity="1" stop-color="rgb(0%, 61.334229%, 100%)" offset="0.664062"/><stop stop-opacity="1" stop-color="rgb(0%, 61.869812%, 100%)" offset="0.667969"/><stop stop-opacity="1" stop-color="rgb(0%, 62.405396%, 100%)" offset="0.671875"/><stop stop-opacity="1" stop-color="rgb(0%, 62.940979%, 100%)" offset="0.675781"/><stop stop-opacity="1" stop-color="rgb(0%, 63.476562%, 100%)" offset="0.679688"/><stop stop-opacity="1" stop-color="rgb(0%, 64.012146%, 100%)" offset="0.683594"/><stop stop-opacity="1" stop-color="rgb(0%, 64.549255%, 100%)" offset="0.6875"/><stop stop-opacity="1" stop-color="rgb(0%, 65.084839%, 100%)" offset="0.691406"/><stop stop-opacity="1" stop-color="rgb(0%, 65.620422%, 100%)" offset="0.695313"/><stop stop-opacity="1" stop-color="rgb(0%, 66.156006%, 100%)" offset="0.699219"/><stop stop-opacity="1" stop-color="rgb(0%, 66.693115%, 100%)" offset="0.703125"/><stop stop-opacity="1" stop-color="rgb(0%, 67.228699%, 100%)" offset="0.707031"/><stop stop-opacity="1" stop-color="rgb(0%, 67.764282%, 100%)" offset="0.710938"/><stop stop-opacity="1" stop-color="rgb(0%, 68.299866%, 100%)" offset="0.714844"/><stop stop-opacity="1" stop-color="rgb(0%, 68.835449%, 100%)" offset="0.71875"/><stop stop-opacity="1" stop-color="rgb(0%, 69.371033%, 100%)" offset="0.722656"/><stop stop-opacity="1" stop-color="rgb(0%, 69.908142%, 100%)" offset="0.726562"/><stop stop-opacity="1" stop-color="rgb(0%, 70.443726%, 100%)" offset="0.730469"/><stop stop-opacity="1" stop-color="rgb(0%, 70.979309%, 100%)" offset="0.734375"/><stop stop-opacity="1" stop-color="rgb(0%, 71.514893%, 100%)" offset="0.738281"/><stop stop-opacity="1" stop-color="rgb(0%, 72.052002%, 100%)" offset="0.742188"/><stop stop-opacity="1" stop-color="rgb(0%, 72.587585%, 100%)" offset="0.746094"/><stop stop-opacity="1" stop-color="rgb(0%, 73.123169%, 100%)" offset="0.75"/><stop stop-opacity="1" stop-color="rgb(0%, 73.658752%, 100%)" offset="0.753906"/><stop stop-opacity="1" stop-color="rgb(0%, 74.194336%, 100%)" offset="0.757813"/><stop stop-opacity="1" stop-color="rgb(0%, 74.729919%, 100%)" offset="0.761719"/><stop stop-opacity="1" stop-color="rgb(0%, 75.267029%, 100%)" offset="0.765625"/><stop stop-opacity="1" stop-color="rgb(0%, 75.682068%, 100%)" offset="0.769531"/><stop stop-opacity="1" stop-color="rgb(0%, 76.098633%, 100%)" offset="0.773438"/><stop stop-opacity="1" stop-color="rgb(0%, 76.098633%, 100%)" offset="0.78125"/><stop stop-opacity="1" stop-color="rgb(0%, 76.098633%, 100%)" offset="0.8125"/><stop stop-opacity="1" stop-color="rgb(0%, 76.098633%, 100%)" offset="0.875"/><stop stop-opacity="1" stop-color="rgb(0%, 76.098633%, 100%)" offset="1"/></linearGradient></defs><g clip-path="url(#5884c88745)"><g clip-path="url(#a80a4b634c)"><g clip-path="url(#b609c1de1d)"><g clip-path="url(#c59fc9d558)"><path fill="url(#5504ba4f23)" d="M 365.871094 314.117188 L 103.886719 280.609375 L 140.636719 -6.714844 L 402.621094 26.792969 Z M 365.871094 314.117188 " fill-rule="nonzero"/></g></g></g></g><g fill="#0030ff" fill-opacity="1"><g transform="translate(50.133933, 316.556931)"><g><path d="M 6.554688 0.351562 C 9.953125 0.351562 12.183594 -1.226562 12.183594 -3.695312 C 12.183594 -6.667969 9.320312 -7.113281 6.980469 -7.464844 C 5.125 -7.742188 3.433594 -8.023438 3.433594 -9.582031 C 3.433594 -10.863281 4.566406 -11.773438 6.445312 -11.773438 C 8.394531 -11.773438 9.65625 -10.753906 9.65625 -9.0625 L 11.808594 -9.0625 C 11.792969 -11.734375 9.65625 -13.519531 6.351562 -13.519531 C 3.136719 -13.519531 1.078125 -11.886719 1.078125 -9.433594 C 1.078125 -6.40625 4.03125 -6.035156 6.351562 -5.699219 C 8.171875 -5.421875 9.84375 -5.164062 9.84375 -3.566406 C 9.84375 -2.246094 8.578125 -1.394531 6.648438 -1.394531 C 4.476562 -1.394531 3.136719 -2.488281 3.136719 -4.269531 L 0.929688 -4.253906 C 0.929688 -1.484375 3.15625 0.351562 6.554688 0.351562 Z M 6.554688 0.351562 "/></g></g></g><g fill="#0030ff" fill-opacity="1"><g transform="translate(67.176307, 316.556931)"><g><path d="M 7.984375 0.351562 C 12.21875 0.351562 15.171875 -2.433594 15.171875 -6.574219 C 15.171875 -10.714844 12.21875 -13.519531 7.984375 -13.519531 C 3.75 -13.519531 0.796875 -10.714844 0.796875 -6.574219 C 0.796875 -2.433594 3.75 0.351562 7.984375 0.351562 Z M 7.984375 -1.597656 C 5.164062 -1.597656 3.15625 -3.660156 3.15625 -6.574219 C 3.15625 -9.507812 5.164062 -11.550781 7.984375 -11.550781 C 10.828125 -11.550781 12.832031 -9.507812 12.832031 -6.574219 C 12.832031 -3.640625 10.828125 -1.597656 7.984375 -1.597656 Z M 7.984375 -1.597656 "/></g></g></g><g fill="#0030ff" fill-opacity="1"><g transform="translate(87.095863, 316.556931)"><g><path d="M 1.335938 0 L 3.675781 0 L 3.675781 -5.589844 L 9.507812 -5.589844 L 9.507812 -7.390625 L 3.675781 -7.390625 L 3.675781 -11.125 L 10.417969 -11.125 L 10.417969 -13.148438 L 1.335938 -13.148438 Z M 1.335938 0 "/></g></g></g><g fill="#0030ff" fill-opacity="1"><g transform="translate(102.022111, 316.556931)"><g><path d="M 4.679688 0 L 7.019531 0 L 7.019531 -11.199219 L 11.421875 -11.199219 L 11.421875 -13.148438 L 0.296875 -13.148438 L 0.296875 -11.199219 L 4.679688 -11.199219 Z M 4.679688 0 "/></g></g></g><g fill="#0030ff" fill-opacity="1"><g transform="translate(117.653738, 316.556931)"><g><path d="M 4.179688 0 L 7.519531 0 L 10.175781 -10.121094 L 10.34375 -10.121094 L 13 0 L 16.339844 0 L 20.074219 -13.148438 L 17.734375 -13.148438 L 14.652344 -2.152344 L 14.484375 -2.152344 L 11.511719 -13.148438 L 9.007812 -13.148438 L 6.035156 -2.152344 L 5.867188 -2.152344 L 2.785156 -13.148438 L 0.425781 -13.148438 Z M 4.179688 0 "/></g></g></g><g fill="#0030ff" fill-opacity="1"><g transform="translate(142.083983, 316.556931)"><g><path d="M 0.277344 0 L 2.691406 0 L 3.675781 -2.730469 L 9.527344 -2.730469 L 10.511719 0 L 12.941406 0 L 8.339844 -13.148438 L 4.882812 -13.148438 Z M 4.179688 -4.476562 L 6.519531 -11.125 L 6.683594 -11.125 L 9.023438 -4.476562 Z M 4.179688 -4.476562 "/></g></g></g><g fill="#0030ff" fill-opacity="1"><g transform="translate(159.219169, 316.556931)"><g><path d="M 1.335938 0 L 3.675781 0 L 3.675781 -5.03125 L 5.832031 -5.03125 L 9.898438 0 L 12.554688 0 L 8.132812 -5.199219 L 8.542969 -5.21875 C 10.84375 -5.402344 12.40625 -6.890625 12.40625 -9.042969 C 12.40625 -11.550781 10.453125 -13.148438 7.429688 -13.148438 L 1.335938 -13.148438 Z M 3.675781 -6.628906 L 3.675781 -11.402344 L 7.054688 -11.402344 C 8.859375 -11.402344 10.046875 -10.527344 10.046875 -9.023438 C 10.046875 -7.558594 8.839844 -6.628906 7.054688 -6.628906 Z M 3.675781 -6.628906 "/></g></g></g><g fill="#0030ff" fill-opacity="1"><g transform="translate(176.391485, 316.556931)"><g><path d="M 1.335938 0 L 11.066406 0 L 11.066406 -1.894531 L 3.601562 -1.894531 L 3.601562 -5.941406 L 10.34375 -5.941406 L 10.34375 -7.539062 L 3.601562 -7.539062 L 3.601562 -11.273438 L 10.882812 -11.273438 L 10.882812 -13.148438 L 1.335938 -13.148438 Z M 1.335938 0 "/></g></g></g><g fill="#00c2ff" fill-opacity="1"><g transform="translate(192.10658, 316.556931)"><g/></g></g><g fill="#0030ff" fill-opacity="1"><g transform="translate(200.602677, 316.556931)"><g><path d="M 1.335938 0 L 11.066406 0 L 11.066406 -1.894531 L 3.601562 -1.894531 L 3.601562 -5.941406 L 10.34375 -5.941406 L 10.34375 -7.539062 L 3.601562 -7.539062 L 3.601562 -11.273438 L 10.882812 -11.273438 L 10.882812 -13.148438 L 1.335938 -13.148438 Z M 1.335938 0 "/></g></g></g><g fill="#0030ff" fill-opacity="1"><g transform="translate(216.327115, 316.556931)"><g><path d="M 1.320312 0 L 3.527344 0 L 3.527344 -10.121094 L 3.675781 -10.121094 L 9.75 0 L 12.347656 0 L 12.347656 -13.148438 L 10.15625 -13.148438 L 10.15625 -3.007812 L 10.007812 -3.007812 L 3.917969 -13.148438 L 1.320312 -13.148438 Z M 1.320312 0 "/></g></g></g><g fill="#0030ff" fill-opacity="1"><g transform="translate(233.944933, 316.556931)"><g><path d="M 8.003906 0.390625 C 12.257812 0.390625 15.117188 -2.691406 14.894531 -7.09375 L 6.574219 -7.09375 L 6.574219 -5.625 L 12.628906 -5.625 C 12.460938 -3.230469 10.566406 -1.558594 8.058594 -1.558594 C 5.21875 -1.558594 3.15625 -3.695312 3.15625 -6.574219 C 3.15625 -9.488281 5.199219 -11.570312 7.984375 -11.550781 C 9.953125 -11.550781 11.699219 -10.324219 12.125 -8.652344 L 14.28125 -9.0625 C 13.722656 -11.644531 11.085938 -13.519531 8.003906 -13.519531 C 3.824219 -13.519531 0.816406 -10.660156 0.816406 -6.574219 C 0.816406 -2.507812 3.824219 0.390625 8.003906 0.390625 Z M 8.003906 0.390625 "/></g></g></g><g fill="#0030ff" fill-opacity="1"><g transform="translate(253.604617, 316.556931)"><g><path d="M 1.335938 0 L 3.675781 0 L 3.675781 -13.148438 L 1.335938 -13.148438 Z M 1.335938 0 "/></g></g></g><g fill="#0030ff" fill-opacity="1"><g transform="translate(262.553742, 316.556931)"><g><path d="M 1.320312 0 L 3.527344 0 L 3.527344 -10.121094 L 3.675781 -10.121094 L 9.75 0 L 12.347656 0 L 12.347656 -13.148438 L 10.15625 -13.148438 L 10.15625 -3.007812 L 10.007812 -3.007812 L 3.917969 -13.148438 L 1.320312 -13.148438 Z M 1.320312 0 "/></g></g></g><g fill="#0030ff" fill-opacity="1"><g transform="translate(280.171559, 316.556931)"><g><path d="M 1.335938 0 L 11.066406 0 L 11.066406 -1.894531 L 3.601562 -1.894531 L 3.601562 -5.941406 L 10.34375 -5.941406 L 10.34375 -7.539062 L 3.601562 -7.539062 L 3.601562 -11.273438 L 10.882812 -11.273438 L 10.882812 -13.148438 L 1.335938 -13.148438 Z M 1.335938 0 "/></g></g></g><g fill="#0030ff" fill-opacity="1"><g transform="translate(295.895998, 316.556931)"><g><path d="M 1.335938 0 L 11.066406 0 L 11.066406 -1.894531 L 3.601562 -1.894531 L 3.601562 -5.941406 L 10.34375 -5.941406 L 10.34375 -7.539062 L 3.601562 -7.539062 L 3.601562 -11.273438 L 10.882812 -11.273438 L 10.882812 -13.148438 L 1.335938 -13.148438 Z M 1.335938 0 "/></g></g></g><g fill="#0030ff" fill-opacity="1"><g transform="translate(311.620431, 316.556931)"><g><path d="M 1.335938 0 L 3.675781 0 L 3.675781 -5.03125 L 5.832031 -5.03125 L 9.898438 0 L 12.554688 0 L 8.132812 -5.199219 L 8.542969 -5.21875 C 10.84375 -5.402344 12.40625 -6.890625 12.40625 -9.042969 C 12.40625 -11.550781 10.453125 -13.148438 7.429688 -13.148438 L 1.335938 -13.148438 Z M 3.675781 -6.628906 L 3.675781 -11.402344 L 7.054688 -11.402344 C 8.859375 -11.402344 10.046875 -10.527344 10.046875 -9.023438 C 10.046875 -7.558594 8.839844 -6.628906 7.054688 -6.628906 Z M 3.675781 -6.628906 "/></g></g></g><g clip-path="url(#0ea9bfc3db)"><g clip-path="url(#2752184ed0)"><g clip-path="url(#1211f6e6eb)"><g clip-path="url(#875fc3fe42)"><path fill="url(#6857b0644d)" d="M 186.546875 -11.570312 L 253.078125 288.4375 L 13.972656 341.460938 L -52.554688 41.453125 Z M 186.546875 -11.570312 " fill-rule="nonzero"/></g></g></g></g><g fill="#00c2ff" fill-opacity="1"><g transform="translate(78.7396, 340.779119)"><g><path d="M 0.261719 0 L 2.511719 0 L 3.433594 -2.546875 L 8.890625 -2.546875 L 9.808594 0 L 12.082031 0 L 7.78125 -12.269531 L 4.558594 -12.269531 Z M 3.898438 -4.175781 L 6.082031 -10.382812 L 6.238281 -10.382812 L 8.421875 -4.175781 Z M 3.898438 -4.175781 "/></g></g></g><g fill="#00c2ff" fill-opacity="1"><g transform="translate(94.738648, 340.779119)"><g><path d="M 1.230469 0 L 3.292969 0 L 3.292969 -9.445312 L 3.433594 -9.445312 L 9.097656 0 L 11.527344 0 L 11.527344 -12.269531 L 9.480469 -12.269531 L 9.480469 -2.808594 L 9.34375 -2.808594 L 3.65625 -12.269531 L 1.230469 -12.269531 Z M 1.230469 0 "/></g></g></g><g fill="#00c2ff" fill-opacity="1"><g transform="translate(111.18833, 340.779119)"><g><path d="M 7.46875 0.363281 C 11.4375 0.363281 14.109375 -2.511719 13.902344 -6.621094 L 6.136719 -6.621094 L 6.136719 -5.25 L 11.785156 -5.25 C 11.628906 -3.015625 9.863281 -1.457031 7.523438 -1.457031 C 4.871094 -1.457031 2.945312 -3.449219 2.945312 -6.136719 C 2.945312 -8.855469 4.851562 -10.796875 7.453125 -10.78125 C 9.289062 -10.78125 10.917969 -9.636719 11.316406 -8.078125 L 13.328125 -8.457031 C 12.808594 -10.867188 10.347656 -12.617188 7.46875 -12.617188 C 3.570312 -12.617188 0.761719 -9.949219 0.761719 -6.136719 C 0.761719 -2.339844 3.570312 0.363281 7.46875 0.363281 Z M 7.46875 0.363281 "/></g></g></g><g fill="#00c2ff" fill-opacity="1"><g transform="translate(129.544544, 340.779119)"><g><path d="M 1.230469 0 L 3.414062 0 L 3.414062 -5.476562 L 9.34375 -5.476562 L 9.34375 0 L 11.527344 0 L 11.527344 -12.269531 L 9.34375 -12.269531 L 9.34375 -7.246094 L 3.414062 -7.246094 L 3.414062 -12.269531 L 1.230469 -12.269531 Z M 1.230469 0 "/></g></g></g><g fill="#00c2ff" fill-opacity="1"><g transform="translate(145.976885, 340.779119)"><g><path d="M 1.246094 0 L 10.332031 0 L 10.332031 -1.769531 L 3.363281 -1.769531 L 3.363281 -5.546875 L 9.652344 -5.546875 L 9.652344 -7.035156 L 3.363281 -7.035156 L 3.363281 -10.519531 L 10.15625 -10.519531 L 10.15625 -12.269531 L 1.246094 -12.269531 Z M 1.246094 0 "/></g></g></g><g fill="#00c2ff" fill-opacity="1"><g transform="translate(160.658693, 340.779119)"><g><path d="M 1.246094 0 L 9.53125 0 L 9.53125 -1.890625 L 3.433594 -1.890625 L 3.433594 -12.269531 L 1.246094 -12.269531 Z M 1.246094 0 "/></g></g></g><g fill="#00c2ff" fill-opacity="1"><g transform="translate(174.33524, 340.779119)"><g><path d="M 7.453125 0.328125 C 11.40625 0.328125 14.160156 -2.269531 14.160156 -6.136719 C 14.160156 -10 11.40625 -12.617188 7.453125 -12.617188 C 3.5 -12.617188 0.746094 -10 0.746094 -6.136719 C 0.746094 -2.269531 3.5 0.328125 7.453125 0.328125 Z M 7.453125 -1.492188 C 4.820312 -1.492188 2.945312 -3.414062 2.945312 -6.136719 C 2.945312 -8.875 4.820312 -10.78125 7.453125 -10.78125 C 10.105469 -10.78125 11.976562 -8.875 11.976562 -6.136719 C 11.976562 -3.398438 10.105469 -1.492188 7.453125 -1.492188 Z M 7.453125 -1.492188 "/></g></g></g><g fill="#0030ff" fill-opacity="1"><g transform="translate(192.927092, 340.779119)"><g/></g></g><g fill="#00c2ff" fill-opacity="1"><g transform="translate(200.860685, 340.779119)"><g><path d="M 0.261719 0 L 2.511719 0 L 3.433594 -2.546875 L 8.890625 -2.546875 L 9.808594 0 L 12.082031 0 L 7.78125 -12.269531 L 4.558594 -12.269531 Z M 3.898438 -4.175781 L 6.082031 -10.382812 L 6.238281 -10.382812 L 8.421875 -4.175781 Z M 3.898438 -4.175781 "/></g></g></g><g fill="#00c2ff" fill-opacity="1"><g transform="translate(216.859734, 340.779119)"><g><path d="M 1.246094 0 L 9.53125 0 L 9.53125 -1.890625 L 3.433594 -1.890625 L 3.433594 -12.269531 L 1.246094 -12.269531 Z M 1.246094 0 "/></g></g></g><g fill="#00c2ff" fill-opacity="1"><g transform="translate(230.536284, 340.779119)"><g><path d="M 0.261719 0 L 2.511719 0 L 3.433594 -2.546875 L 8.890625 -2.546875 L 9.808594 0 L 12.082031 0 L 7.78125 -12.269531 L 4.558594 -12.269531 Z M 3.898438 -4.175781 L 6.082031 -10.382812 L 6.238281 -10.382812 L 8.421875 -4.175781 Z M 3.898438 -4.175781 "/></g></g></g><g fill="#00c2ff" fill-opacity="1"><g transform="translate(246.535332, 340.779119)"><g><path d="M 7.46875 0.363281 C 11.4375 0.363281 14.109375 -2.511719 13.902344 -6.621094 L 6.136719 -6.621094 L 6.136719 -5.25 L 11.785156 -5.25 C 11.628906 -3.015625 9.863281 -1.457031 7.523438 -1.457031 C 4.871094 -1.457031 2.945312 -3.449219 2.945312 -6.136719 C 2.945312 -8.855469 4.851562 -10.796875 7.453125 -10.78125 C 9.289062 -10.78125 10.917969 -9.636719 11.316406 -8.078125 L 13.328125 -8.457031 C 12.808594 -10.867188 10.347656 -12.617188 7.46875 -12.617188 C 3.570312 -12.617188 0.761719 -9.949219 0.761719 -6.136719 C 0.761719 -2.339844 3.570312 0.363281 7.46875 0.363281 Z M 7.46875 0.363281 "/></g></g></g><g fill="#00c2ff" fill-opacity="1"><g transform="translate(264.891543, 340.779119)"><g><path d="M 7.453125 0.328125 C 11.40625 0.328125 14.160156 -2.269531 14.160156 -6.136719 C 14.160156 -10 11.40625 -12.617188 7.453125 -12.617188 C 3.5 -12.617188 0.746094 -10 0.746094 -6.136719 C 0.746094 -2.269531 3.5 0.328125 7.453125 0.328125 Z M 7.453125 -1.492188 C 4.820312 -1.492188 2.945312 -3.414062 2.945312 -6.136719 C 2.945312 -8.875 4.820312 -10.78125 7.453125 -10.78125 C 10.105469 -10.78125 11.976562 -8.875 11.976562 -6.136719 C 11.976562 -3.398438 10.105469 -1.492188 7.453125 -1.492188 Z M 7.453125 -1.492188 "/></g></g></g><g fill="#00c2ff" fill-opacity="1"><g transform="translate(283.490399, 340.779119)"><g><path d="M 1.230469 0 L 3.292969 0 L 3.292969 -9.445312 L 3.433594 -9.445312 L 9.097656 0 L 11.527344 0 L 11.527344 -12.269531 L 9.480469 -12.269531 L 9.480469 -2.808594 L 9.34375 -2.808594 L 3.65625 -12.269531 L 1.230469 -12.269531 Z M 1.230469 0 "/></g></g></g></svg>