<svg xmlns="http://www.w3.org/2000/svg" xmlns:xlink="http://www.w3.org/1999/xlink" width="500" zoomAndPan="magnify" viewBox="0 0 375 374.999991" height="500" preserveAspectRatio="xMidYMid meet" version="1.0"><defs><g/><clipPath id="4dc8b84450"><path d="M 139 29 L 372 29 L 372 292 L 139 292 Z M 139 29 " clip-rule="nonzero"/></clipPath><clipPath id="483edc24eb"><path d="M 398.636719 60.992188 L 368 300.542969 L 122.5 269.144531 L 153.136719 29.59375 Z M 398.636719 60.992188 " clip-rule="nonzero"/></clipPath><clipPath id="95b21c451a"><path d="M 368.011719 300.449219 L 398.648438 60.898438 L 153.148438 29.5 L 122.511719 269.050781 Z M 368.011719 300.449219 " clip-rule="nonzero"/></clipPath><clipPath id="da6f04b74c"><path d="M 331.609375 218.195312 L 334.589844 222.046875 C 333.480469 222.902344 332.332031 223.699219 331.144531 224.441406 C 329.957031 225.1875 328.734375 225.867188 327.480469 226.492188 C 326.222656 227.113281 324.941406 227.671875 323.632812 228.171875 C 322.320312 228.667969 320.992188 229.097656 319.636719 229.464844 C 318.285156 229.832031 316.917969 230.128906 315.539062 230.363281 C 314.15625 230.59375 312.765625 230.757812 311.367188 230.855469 C 309.96875 230.953125 308.570312 230.980469 307.167969 230.9375 C 305.769531 230.898438 304.375 230.789062 302.984375 230.609375 C 301.59375 230.433594 300.214844 230.1875 298.851562 229.875 C 297.484375 229.5625 296.136719 229.183594 294.808594 228.738281 C 293.480469 228.292969 292.175781 227.785156 290.898438 227.210938 C 289.617188 226.640625 288.371094 226.003906 287.152344 225.308594 C 285.9375 224.613281 284.757812 223.863281 283.613281 223.050781 C 282.472656 222.242188 281.371094 221.375 280.3125 220.457031 C 279.257812 219.539062 278.246094 218.570312 277.28125 217.554688 C 276.320312 216.539062 275.410156 215.476562 274.550781 214.367188 L 150.074219 53.523438 L 150.949219 46.695312 L 278.40625 211.390625 C 279.164062 212.371094 279.972656 213.3125 280.824219 214.214844 C 281.679688 215.117188 282.574219 215.976562 283.511719 216.789062 C 284.449219 217.601562 285.421875 218.367188 286.4375 219.085938 C 287.449219 219.804688 288.492188 220.472656 289.570312 221.089844 C 290.648438 221.703125 291.757812 222.265625 292.890625 222.773438 C 294.023438 223.28125 295.179688 223.734375 296.355469 224.128906 C 297.53125 224.523438 298.726562 224.855469 299.9375 225.132812 C 301.148438 225.410156 302.367188 225.628906 303.601562 225.785156 C 304.832031 225.945312 306.070312 226.042969 307.308594 226.078125 C 308.550781 226.113281 309.792969 226.089844 311.03125 226.003906 C 312.269531 225.917969 313.5 225.773438 314.726562 225.566406 C 315.949219 225.359375 317.160156 225.097656 318.359375 224.769531 C 319.558594 224.445312 320.738281 224.0625 321.898438 223.625 C 323.058594 223.183594 324.195312 222.6875 325.308594 222.132812 C 326.421875 221.582031 327.503906 220.976562 328.554688 220.320312 C 329.609375 219.660156 330.625 218.953125 331.609375 218.195312 Z M 288.070312 203.945312 C 288.589844 204.609375 289.136719 205.25 289.714844 205.863281 C 290.292969 206.472656 290.902344 207.054688 291.539062 207.609375 C 292.175781 208.160156 292.835938 208.679688 293.523438 209.167969 C 294.210938 209.65625 294.917969 210.109375 295.652344 210.527344 C 296.382812 210.945312 297.132812 211.324219 297.902344 211.667969 C 298.671875 212.011719 299.457031 212.320312 300.253906 212.585938 C 301.054688 212.855469 301.863281 213.082031 302.683594 213.269531 C 303.507812 213.457031 304.335938 213.605469 305.171875 213.714844 C 306.007812 213.820312 306.847656 213.886719 307.6875 213.910156 C 308.53125 213.933594 309.371094 213.917969 310.210938 213.859375 C 311.054688 213.804688 311.890625 213.703125 312.71875 213.5625 C 313.550781 213.425781 314.375 213.246094 315.1875 213.023438 C 316 212.804688 316.800781 212.542969 317.589844 212.246094 C 318.375 211.945312 319.148438 211.609375 319.902344 211.234375 C 320.65625 210.859375 321.390625 210.449219 322.105469 210.003906 C 322.820312 209.558594 323.511719 209.078125 324.175781 208.5625 L 327.15625 212.414062 C 326.363281 213.027344 325.542969 213.597656 324.691406 214.128906 C 323.84375 214.660156 322.96875 215.144531 322.074219 215.589844 C 321.175781 216.035156 320.257812 216.4375 319.320312 216.792969 C 318.382812 217.148438 317.433594 217.457031 316.464844 217.71875 C 315.496094 217.980469 314.519531 218.195312 313.53125 218.359375 C 312.542969 218.527344 311.550781 218.644531 310.550781 218.710938 C 309.550781 218.78125 308.550781 218.800781 307.546875 218.773438 C 306.546875 218.742188 305.546875 218.664062 304.554688 218.535156 C 303.558594 218.410156 302.574219 218.234375 301.597656 218.011719 C 300.621094 217.785156 299.65625 217.515625 298.707031 217.199219 C 297.757812 216.878906 296.824219 216.515625 295.910156 216.105469 C 294.996094 215.695312 294.101562 215.242188 293.234375 214.746094 C 292.363281 214.25 291.519531 213.710938 290.703125 213.132812 C 289.882812 212.550781 289.097656 211.933594 288.339844 211.277344 C 287.582031 210.621094 286.859375 209.929688 286.171875 209.199219 C 285.484375 208.472656 284.832031 207.714844 284.21875 206.921875 L 152.261719 36.425781 L 153.132812 29.609375 Z M 302.054688 237.886719 C 305.320312 238.3125 308.59375 238.414062 311.878906 238.191406 C 315.164062 237.96875 318.394531 237.425781 321.570312 236.5625 C 324.746094 235.703125 327.808594 234.535156 330.753906 233.066406 C 333.695312 231.59375 336.46875 229.851562 339.066406 227.832031 L 342.046875 231.683594 C 340.621094 232.785156 339.148438 233.8125 337.621094 234.765625 C 336.09375 235.722656 334.527344 236.601562 332.914062 237.402344 C 331.300781 238.203125 329.652344 238.925781 327.96875 239.566406 C 326.285156 240.207031 324.578125 240.761719 322.839844 241.234375 C 321.101562 241.703125 319.34375 242.089844 317.566406 242.390625 C 315.792969 242.6875 314.003906 242.902344 312.207031 243.023438 C 310.410156 243.148438 308.613281 243.183594 306.8125 243.132812 C 305.011719 243.082031 303.21875 242.941406 301.433594 242.710938 C 299.644531 242.484375 297.875 242.167969 296.121094 241.765625 C 294.363281 241.363281 292.632812 240.875 290.925781 240.304688 C 289.21875 239.730469 287.542969 239.078125 285.898438 238.339844 C 284.253906 237.601562 282.652344 236.789062 281.089844 235.894531 C 279.527344 235 278.011719 234.03125 276.542969 232.988281 C 275.074219 231.945312 273.660156 230.832031 272.300781 229.652344 C 270.941406 228.46875 269.644531 227.222656 268.410156 225.914062 C 267.171875 224.605469 266.003906 223.242188 264.902344 221.816406 L 147.890625 70.609375 L 148.761719 63.78125 L 268.761719 218.839844 C 270.769531 221.449219 273.011719 223.835938 275.492188 225.996094 C 277.972656 228.160156 280.644531 230.0625 283.5 231.695312 C 286.359375 233.328125 289.347656 234.667969 292.472656 235.710938 C 295.59375 236.753906 298.789062 237.476562 302.054688 237.886719 Z M 295.875 286.210938 C 299.089844 286.628906 302.3125 286.890625 305.550781 286.992188 C 308.789062 287.09375 312.023438 287.03125 315.253906 286.8125 C 318.488281 286.59375 321.699219 286.214844 324.894531 285.679688 C 328.089844 285.144531 331.25 284.449219 334.375 283.601562 C 337.5 282.753906 340.578125 281.75 343.605469 280.597656 C 346.628906 279.445312 349.59375 278.144531 352.492188 276.699219 C 355.386719 275.253906 358.207031 273.667969 360.949219 271.941406 C 363.6875 270.21875 366.339844 268.363281 368.894531 266.375 L 371.875 270.222656 C 370.535156 271.257812 369.164062 272.261719 367.773438 273.234375 C 366.378906 274.203125 364.964844 275.140625 363.527344 276.039062 C 362.089844 276.941406 360.628906 277.808594 359.148438 278.636719 C 357.667969 279.464844 356.167969 280.257812 354.648438 281.015625 C 353.125 281.769531 351.589844 282.488281 350.035156 283.167969 C 348.480469 283.851562 346.90625 284.492188 345.320312 285.09375 C 343.734375 285.699219 342.132812 286.261719 340.519531 286.789062 C 338.90625 287.3125 337.277344 287.796875 335.640625 288.242188 C 334 288.6875 332.351562 289.09375 330.695312 289.457031 C 329.035156 289.820312 327.371094 290.144531 325.695312 290.425781 C 324.023438 290.707031 322.339844 290.949219 320.65625 291.148438 C 318.96875 291.347656 317.28125 291.507812 315.585938 291.625 C 313.890625 291.742188 312.195312 291.816406 310.5 291.851562 C 308.800781 291.886719 307.105469 291.878906 305.40625 291.828125 C 303.710938 291.777344 302.015625 291.6875 300.320312 291.554688 C 298.628906 291.421875 296.941406 291.25 295.257812 291.035156 C 293.570312 290.816406 291.894531 290.5625 290.222656 290.261719 C 288.550781 289.964844 286.886719 289.628906 285.230469 289.246094 C 283.578125 288.867188 281.933594 288.449219 280.296875 287.988281 C 278.664062 287.527344 277.042969 287.027344 275.429688 286.488281 C 273.820312 285.949219 272.226562 285.371094 270.644531 284.753906 C 269.0625 284.136719 267.496094 283.480469 265.949219 282.785156 C 264.398438 282.089844 262.867188 281.359375 261.355469 280.585938 C 259.839844 279.816406 258.347656 279.011719 256.875 278.167969 C 255.402344 277.324219 253.949219 276.445312 252.519531 275.53125 C 251.089844 274.617188 249.679688 273.667969 248.296875 272.6875 C 246.914062 271.703125 245.554688 270.6875 244.21875 269.636719 C 242.886719 268.585938 241.578125 267.503906 240.296875 266.390625 C 239.015625 265.277344 237.765625 264.132812 236.539062 262.957031 C 235.316406 261.78125 234.121094 260.574219 232.957031 259.339844 C 231.789062 258.105469 230.65625 256.84375 229.550781 255.554688 C 228.449219 254.265625 227.378906 252.949219 226.339844 251.605469 L 139.152344 138.941406 L 140.023438 132.121094 L 230.191406 248.636719 C 232.167969 251.203125 234.265625 253.664062 236.484375 256.023438 C 238.703125 258.382812 241.03125 260.628906 243.472656 262.757812 C 245.914062 264.886719 248.453125 266.886719 251.09375 268.765625 C 253.734375 270.644531 256.457031 272.386719 259.269531 273.996094 C 262.082031 275.605469 264.964844 277.070312 267.921875 278.394531 C 270.878906 279.71875 273.894531 280.890625 276.96875 281.917969 C 280.039062 282.941406 283.15625 283.8125 286.316406 284.53125 C 289.472656 285.25 292.660156 285.808594 295.875 286.210938 Z M 297.425781 274.105469 C 300.238281 274.476562 303.066406 274.707031 305.902344 274.796875 C 308.742188 274.886719 311.578125 274.835938 314.410156 274.644531 C 317.242188 274.453125 320.058594 274.125 322.859375 273.65625 C 325.65625 273.1875 328.429688 272.582031 331.167969 271.839844 C 333.910156 271.097656 336.605469 270.222656 339.257812 269.214844 C 341.910156 268.203125 344.507812 267.066406 347.050781 265.800781 C 349.589844 264.535156 352.0625 263.148438 354.464844 261.640625 C 356.867188 260.128906 359.191406 258.503906 361.433594 256.765625 L 364.414062 260.609375 C 363.230469 261.527344 362.023438 262.414062 360.796875 263.269531 C 359.566406 264.125 358.316406 264.953125 357.046875 265.746094 C 355.777344 266.542969 354.488281 267.304688 353.183594 268.039062 C 351.875 268.769531 350.550781 269.46875 349.210938 270.136719 C 347.871094 270.804688 346.511719 271.4375 345.140625 272.039062 C 343.765625 272.640625 342.382812 273.207031 340.980469 273.738281 C 339.582031 274.269531 338.167969 274.769531 336.742188 275.230469 C 335.316406 275.695312 333.882812 276.121094 332.4375 276.515625 C 330.992188 276.910156 329.535156 277.265625 328.074219 277.585938 C 326.609375 277.910156 325.140625 278.195312 323.660156 278.441406 C 322.183594 278.691406 320.703125 278.90625 319.214844 279.082031 C 317.726562 279.257812 316.234375 279.398438 314.738281 279.5 C 313.246094 279.605469 311.746094 279.671875 310.25 279.703125 C 308.75 279.730469 307.253906 279.722656 305.753906 279.679688 C 304.257812 279.636719 302.761719 279.558594 301.269531 279.441406 C 299.773438 279.324219 298.285156 279.167969 296.796875 278.980469 C 295.3125 278.789062 293.832031 278.5625 292.355469 278.300781 C 290.878906 278.039062 289.410156 277.738281 287.953125 277.402344 C 286.492188 277.070312 285.039062 276.699219 283.597656 276.292969 C 282.15625 275.886719 280.722656 275.445312 279.300781 274.96875 C 277.882812 274.492188 276.472656 273.980469 275.078125 273.4375 C 273.683594 272.890625 272.300781 272.3125 270.933594 271.699219 C 269.566406 271.085938 268.214844 270.441406 266.878906 269.761719 C 265.542969 269.082031 264.226562 268.371094 262.925781 267.625 C 261.625 266.882812 260.34375 266.105469 259.082031 265.300781 C 257.820312 264.492188 256.578125 263.65625 255.355469 262.785156 C 254.132812 261.917969 252.933594 261.023438 251.757812 260.09375 C 250.582031 259.167969 249.425781 258.214844 248.296875 257.230469 C 247.167969 256.246094 246.0625 255.238281 244.980469 254.199219 C 243.898438 253.160156 242.84375 252.097656 241.816406 251.007812 C 240.789062 249.921875 239.789062 248.804688 238.8125 247.667969 C 237.839844 246.53125 236.894531 245.367188 235.980469 244.183594 L 141.332031 121.882812 L 142.207031 115.035156 L 239.832031 241.210938 C 241.5625 243.460938 243.402344 245.621094 245.347656 247.6875 C 247.292969 249.753906 249.339844 251.71875 251.476562 253.585938 C 253.617188 255.449219 255.847656 257.203125 258.160156 258.851562 C 260.472656 260.496094 262.863281 262.023438 265.328125 263.429688 C 267.792969 264.839844 270.324219 266.125 272.914062 267.28125 C 275.507812 268.441406 278.152344 269.46875 280.84375 270.367188 C 283.539062 271.265625 286.269531 272.027344 289.039062 272.65625 C 291.808594 273.285156 294.605469 273.773438 297.421875 274.125 Z M 298.972656 262.003906 C 303.824219 262.636719 308.695312 262.785156 313.578125 262.453125 C 318.460938 262.117188 323.261719 261.308594 327.984375 260.023438 C 332.707031 258.738281 337.253906 257.003906 341.632812 254.816406 C 346.011719 252.628906 350.128906 250.03125 353.992188 247.027344 L 356.960938 250.949219 C 355.933594 251.742188 354.886719 252.511719 353.824219 253.253906 C 352.757812 253.996094 351.675781 254.710938 350.574219 255.402344 C 349.472656 256.089844 348.359375 256.753906 347.226562 257.386719 C 346.089844 258.023438 344.945312 258.628906 343.78125 259.207031 C 342.617188 259.785156 341.441406 260.335938 340.253906 260.855469 C 339.0625 261.375 337.859375 261.867188 336.648438 262.328125 C 335.433594 262.789062 334.207031 263.222656 332.972656 263.625 C 331.738281 264.023438 330.492188 264.394531 329.242188 264.734375 C 327.988281 265.078125 326.726562 265.386719 325.457031 265.664062 C 324.1875 265.945312 322.914062 266.191406 321.632812 266.40625 C 320.351562 266.621094 319.066406 266.808594 317.777344 266.960938 C 316.488281 267.113281 315.195312 267.234375 313.898438 267.324219 C 312.601562 267.414062 311.304688 267.472656 310.007812 267.496094 C 308.707031 267.523438 307.410156 267.515625 306.113281 267.480469 C 304.8125 267.441406 303.515625 267.371094 302.222656 267.269531 C 300.925781 267.167969 299.632812 267.035156 298.347656 266.871094 C 297.058594 266.707031 295.773438 266.511719 294.496094 266.28125 C 293.214844 266.054688 291.945312 265.796875 290.675781 265.503906 C 289.410156 265.214844 288.152344 264.894531 286.902344 264.542969 C 285.652344 264.191406 284.410156 263.808594 283.179688 263.394531 C 281.949219 262.984375 280.726562 262.539062 279.519531 262.066406 C 278.308594 261.59375 277.109375 261.09375 275.925781 260.5625 C 274.742188 260.03125 273.570312 259.46875 272.410156 258.878906 C 271.253906 258.292969 270.109375 257.675781 268.984375 257.03125 C 267.855469 256.382812 266.746094 255.710938 265.652344 255.011719 C 264.558594 254.3125 263.480469 253.585938 262.421875 252.835938 C 261.363281 252.082031 260.324219 251.304688 259.304688 250.503906 C 258.28125 249.699219 257.28125 248.871094 256.300781 248.019531 C 255.324219 247.167969 254.363281 246.289062 253.429688 245.390625 C 252.492188 244.492188 251.578125 243.570312 250.683594 242.625 C 249.792969 241.683594 248.925781 240.714844 248.082031 239.730469 C 247.238281 238.742188 246.417969 237.734375 245.625 236.710938 L 143.519531 104.777344 L 144.394531 97.949219 L 249.496094 233.757812 C 252.476562 237.632812 255.8125 241.175781 259.5 244.390625 C 263.183594 247.605469 267.152344 250.425781 271.398438 252.851562 C 275.644531 255.28125 280.085938 257.269531 284.726562 258.816406 C 289.367188 260.363281 294.113281 261.441406 298.964844 262.046875 Z M 346.523438 237.46875 L 349.503906 241.320312 C 348.632812 241.988281 347.746094 242.636719 346.847656 243.265625 C 345.945312 243.890625 345.027344 244.496094 344.097656 245.078125 C 343.164062 245.660156 342.21875 246.21875 341.261719 246.753906 C 340.300781 247.289062 339.328125 247.800781 338.347656 248.289062 C 337.363281 248.777344 336.367188 249.242188 335.359375 249.679688 C 334.351562 250.121094 333.335938 250.535156 332.308594 250.921875 C 331.28125 251.3125 330.246094 251.675781 329.199219 252.015625 C 328.15625 252.355469 327.101562 252.667969 326.042969 252.953125 C 324.980469 253.242188 323.914062 253.503906 322.84375 253.738281 C 321.769531 253.972656 320.691406 254.179688 319.605469 254.363281 C 318.523438 254.546875 317.4375 254.699219 316.34375 254.828125 C 315.253906 254.957031 314.160156 255.0625 313.0625 255.136719 C 311.96875 255.210938 310.871094 255.261719 309.773438 255.28125 C 308.675781 255.304688 307.574219 255.296875 306.476562 255.265625 C 305.378906 255.234375 304.28125 255.175781 303.1875 255.089844 C 302.089844 255.003906 301 254.890625 299.910156 254.75 C 298.820312 254.609375 297.734375 254.445312 296.652344 254.253906 C 295.570312 254.058594 294.492188 253.839844 293.421875 253.597656 C 292.351562 253.351562 291.289062 253.078125 290.230469 252.78125 C 289.171875 252.484375 288.121094 252.160156 287.082031 251.8125 C 286.039062 251.464844 285.007812 251.089844 283.984375 250.691406 C 282.960938 250.292969 281.945312 249.867188 280.941406 249.417969 C 279.941406 248.96875 278.949219 248.496094 277.96875 248 C 276.992188 247.5 276.023438 246.980469 275.070312 246.433594 C 274.117188 245.890625 273.175781 245.324219 272.25 244.730469 C 271.324219 244.140625 270.414062 243.527344 269.515625 242.890625 C 268.621094 242.257812 267.742188 241.601562 266.875 240.921875 C 266.011719 240.242188 265.164062 239.542969 264.335938 238.824219 C 263.507812 238.105469 262.695312 237.363281 261.902344 236.605469 C 261.109375 235.84375 260.335938 235.066406 259.578125 234.269531 C 258.824219 233.46875 258.089844 232.65625 257.375 231.820312 C 256.660156 230.988281 255.964844 230.136719 255.292969 229.269531 L 145.742188 87.710938 L 146.613281 80.882812 L 259.121094 226.289062 C 260.367188 227.902344 261.695312 229.449219 263.09375 230.929688 C 264.496094 232.414062 265.96875 233.824219 267.507812 235.160156 C 269.046875 236.5 270.648438 237.757812 272.3125 238.9375 C 273.976562 240.117188 275.691406 241.214844 277.464844 242.226562 C 279.234375 243.242188 281.050781 244.164062 282.914062 244.996094 C 284.773438 245.832031 286.671875 246.574219 288.605469 247.222656 C 290.542969 247.871094 292.503906 248.421875 294.492188 248.875 C 296.480469 249.332031 298.488281 249.691406 300.511719 249.949219 C 302.535156 250.207031 304.566406 250.367188 306.605469 250.425781 C 308.644531 250.484375 310.683594 250.445312 312.71875 250.304688 C 314.753906 250.164062 316.777344 249.925781 318.789062 249.585938 C 320.800781 249.246094 322.789062 248.8125 324.757812 248.277344 C 326.726562 247.742188 328.667969 247.113281 330.574219 246.390625 C 332.480469 245.664062 334.347656 244.851562 336.175781 243.941406 C 338 243.035156 339.777344 242.039062 341.507812 240.960938 C 343.238281 239.878906 344.910156 238.714844 346.523438 237.46875 Z M 346.523438 237.46875 " clip-rule="nonzero"/></clipPath><linearGradient x1="-38.555917" gradientTransform="matrix(0.081474, -0.637026, -0.637564, -0.0815428, 368.024316, 300.339564)" y1="0.984114" x2="344.803808" gradientUnits="userSpaceOnUse" y2="467.532672" id="b76067b0b5"><stop stop-opacity="1" stop-color="rgb(0%, 76.098633%, 100%)" offset="0"/><stop stop-opacity="1" stop-color="rgb(0%, 76.098633%, 100%)" offset="0.25"/><stop stop-opacity="1" stop-color="rgb(0%, 76.098633%, 100%)" offset="0.3125"/><stop stop-opacity="1" stop-color="rgb(0%, 76.098633%, 100%)" offset="0.320312"/><stop stop-opacity="1" stop-color="rgb(0%, 75.846863%, 100%)" offset="0.324219"/><stop stop-opacity="1" stop-color="rgb(0%, 75.595093%, 100%)" offset="0.328125"/><stop stop-opacity="1" stop-color="rgb(0%, 75.091553%, 100%)" offset="0.332031"/><stop stop-opacity="1" stop-color="rgb(0%, 74.589539%, 100%)" offset="0.335938"/><stop stop-opacity="1" stop-color="rgb(0%, 74.087524%, 100%)" offset="0.339844"/><stop stop-opacity="1" stop-color="rgb(0%, 73.58551%, 100%)" offset="0.34375"/><stop stop-opacity="1" stop-color="rgb(0%, 73.083496%, 100%)" offset="0.347656"/><stop stop-opacity="1" stop-color="rgb(0%, 72.581482%, 100%)" offset="0.351563"/><stop stop-opacity="1" stop-color="rgb(0%, 72.077942%, 100%)" offset="0.355469"/><stop stop-opacity="1" stop-color="rgb(0%, 71.575928%, 100%)" offset="0.359375"/><stop stop-opacity="1" stop-color="rgb(0%, 71.073914%, 100%)" offset="0.363281"/><stop stop-opacity="1" stop-color="rgb(0%, 70.571899%, 100%)" offset="0.367188"/><stop stop-opacity="1" stop-color="rgb(0%, 70.069885%, 100%)" offset="0.371094"/><stop stop-opacity="1" stop-color="rgb(0%, 69.567871%, 100%)" offset="0.375"/><stop stop-opacity="1" stop-color="rgb(0%, 69.064331%, 100%)" offset="0.378906"/><stop stop-opacity="1" stop-color="rgb(0%, 68.562317%, 100%)" offset="0.382812"/><stop stop-opacity="1" stop-color="rgb(0%, 68.060303%, 100%)" offset="0.386719"/><stop stop-opacity="1" stop-color="rgb(0%, 67.558289%, 100%)" offset="0.390625"/><stop stop-opacity="1" stop-color="rgb(0%, 67.054749%, 100%)" offset="0.394531"/><stop stop-opacity="1" stop-color="rgb(0%, 66.552734%, 100%)" offset="0.398438"/><stop stop-opacity="1" stop-color="rgb(0%, 66.05072%, 100%)" offset="0.402344"/><stop stop-opacity="1" stop-color="rgb(0%, 65.548706%, 100%)" offset="0.40625"/><stop stop-opacity="1" stop-color="rgb(0%, 65.046692%, 100%)" offset="0.410156"/><stop stop-opacity="1" stop-color="rgb(0%, 64.544678%, 100%)" offset="0.414063"/><stop stop-opacity="1" stop-color="rgb(0%, 64.041138%, 100%)" offset="0.417969"/><stop stop-opacity="1" stop-color="rgb(0%, 63.539124%, 100%)" offset="0.421875"/><stop stop-opacity="1" stop-color="rgb(0%, 63.037109%, 100%)" offset="0.425781"/><stop stop-opacity="1" stop-color="rgb(0%, 62.535095%, 100%)" offset="0.429688"/><stop stop-opacity="1" stop-color="rgb(0%, 62.033081%, 100%)" offset="0.433594"/><stop stop-opacity="1" stop-color="rgb(0%, 61.531067%, 100%)" offset="0.4375"/><stop stop-opacity="1" stop-color="rgb(0%, 61.027527%, 100%)" offset="0.441406"/><stop stop-opacity="1" stop-color="rgb(0%, 60.525513%, 100%)" offset="0.445313"/><stop stop-opacity="1" stop-color="rgb(0%, 60.023499%, 100%)" offset="0.449219"/><stop stop-opacity="1" stop-color="rgb(0%, 59.521484%, 100%)" offset="0.453125"/><stop stop-opacity="1" stop-color="rgb(0%, 59.01947%, 100%)" offset="0.457031"/><stop stop-opacity="1" stop-color="rgb(0%, 58.517456%, 100%)" offset="0.460938"/><stop stop-opacity="1" stop-color="rgb(0%, 58.013916%, 100%)" offset="0.464844"/><stop stop-opacity="1" stop-color="rgb(0%, 57.511902%, 100%)" offset="0.46875"/><stop stop-opacity="1" stop-color="rgb(0%, 57.009888%, 100%)" offset="0.472656"/><stop stop-opacity="1" stop-color="rgb(0%, 56.507874%, 100%)" offset="0.476563"/><stop stop-opacity="1" stop-color="rgb(0%, 56.004333%, 100%)" offset="0.480469"/><stop stop-opacity="1" stop-color="rgb(0%, 55.502319%, 100%)" offset="0.484375"/><stop stop-opacity="1" stop-color="rgb(0%, 55.000305%, 100%)" offset="0.488281"/><stop stop-opacity="1" stop-color="rgb(0%, 54.498291%, 100%)" offset="0.492188"/><stop stop-opacity="1" stop-color="rgb(0%, 53.996277%, 100%)" offset="0.496094"/><stop stop-opacity="1" stop-color="rgb(0%, 53.494263%, 100%)" offset="0.5"/><stop stop-opacity="1" stop-color="rgb(0%, 52.990723%, 100%)" offset="0.503906"/><stop stop-opacity="1" stop-color="rgb(0%, 52.488708%, 100%)" offset="0.507813"/><stop stop-opacity="1" stop-color="rgb(0%, 51.986694%, 100%)" offset="0.511719"/><stop stop-opacity="1" stop-color="rgb(0%, 51.48468%, 100%)" offset="0.515625"/><stop stop-opacity="1" stop-color="rgb(0%, 50.982666%, 100%)" offset="0.519531"/><stop stop-opacity="1" stop-color="rgb(0%, 50.480652%, 100%)" offset="0.523438"/><stop stop-opacity="1" stop-color="rgb(0%, 49.977112%, 100%)" offset="0.527344"/><stop stop-opacity="1" stop-color="rgb(0%, 49.475098%, 100%)" offset="0.53125"/><stop stop-opacity="1" stop-color="rgb(0%, 48.973083%, 100%)" offset="0.535156"/><stop stop-opacity="1" stop-color="rgb(0%, 48.471069%, 100%)" offset="0.539063"/><stop stop-opacity="1" stop-color="rgb(0%, 47.969055%, 100%)" offset="0.542969"/><stop stop-opacity="1" stop-color="rgb(0%, 47.467041%, 100%)" offset="0.546875"/><stop stop-opacity="1" stop-color="rgb(0%, 46.963501%, 100%)" offset="0.550781"/><stop stop-opacity="1" stop-color="rgb(0%, 46.461487%, 100%)" offset="0.554688"/><stop stop-opacity="1" stop-color="rgb(0%, 45.959473%, 100%)" offset="0.558594"/><stop stop-opacity="1" stop-color="rgb(0%, 45.457458%, 100%)" offset="0.5625"/><stop stop-opacity="1" stop-color="rgb(0%, 44.953918%, 100%)" offset="0.566406"/><stop stop-opacity="1" stop-color="rgb(0%, 44.451904%, 100%)" offset="0.570313"/><stop stop-opacity="1" stop-color="rgb(0%, 43.94989%, 100%)" offset="0.574219"/><stop stop-opacity="1" stop-color="rgb(0%, 43.447876%, 100%)" offset="0.578125"/><stop stop-opacity="1" stop-color="rgb(0%, 42.945862%, 100%)" offset="0.582031"/><stop stop-opacity="1" stop-color="rgb(0%, 42.443848%, 100%)" offset="0.585938"/><stop stop-opacity="1" stop-color="rgb(0%, 41.940308%, 100%)" offset="0.589844"/><stop stop-opacity="1" stop-color="rgb(0%, 41.438293%, 100%)" offset="0.59375"/><stop stop-opacity="1" stop-color="rgb(0%, 40.936279%, 100%)" offset="0.597656"/><stop stop-opacity="1" stop-color="rgb(0%, 40.434265%, 100%)" offset="0.601563"/><stop stop-opacity="1" stop-color="rgb(0%, 39.932251%, 100%)" offset="0.605469"/><stop stop-opacity="1" stop-color="rgb(0%, 39.430237%, 100%)" offset="0.609375"/><stop stop-opacity="1" stop-color="rgb(0%, 38.926697%, 100%)" offset="0.613281"/><stop stop-opacity="1" stop-color="rgb(0%, 38.424683%, 100%)" offset="0.617188"/><stop stop-opacity="1" stop-color="rgb(0%, 37.922668%, 100%)" offset="0.621094"/><stop stop-opacity="1" stop-color="rgb(0%, 37.420654%, 100%)" offset="0.625"/><stop stop-opacity="1" stop-color="rgb(0%, 36.91864%, 100%)" offset="0.628906"/><stop stop-opacity="1" stop-color="rgb(0%, 36.416626%, 100%)" offset="0.632813"/><stop stop-opacity="1" stop-color="rgb(0%, 35.913086%, 100%)" offset="0.636719"/><stop stop-opacity="1" stop-color="rgb(0%, 35.411072%, 100%)" offset="0.640625"/><stop stop-opacity="1" stop-color="rgb(0%, 34.909058%, 100%)" offset="0.644531"/><stop stop-opacity="1" stop-color="rgb(0%, 34.407043%, 100%)" offset="0.648438"/><stop stop-opacity="1" stop-color="rgb(0%, 33.903503%, 100%)" offset="0.652344"/><stop stop-opacity="1" stop-color="rgb(0%, 33.401489%, 100%)" offset="0.65625"/><stop stop-opacity="1" stop-color="rgb(0%, 32.899475%, 100%)" offset="0.660156"/><stop stop-opacity="1" stop-color="rgb(0%, 32.397461%, 100%)" offset="0.664063"/><stop stop-opacity="1" stop-color="rgb(0%, 31.895447%, 100%)" offset="0.667969"/><stop stop-opacity="1" stop-color="rgb(0%, 31.393433%, 100%)" offset="0.671875"/><stop stop-opacity="1" stop-color="rgb(0%, 30.889893%, 100%)" offset="0.675781"/><stop stop-opacity="1" stop-color="rgb(0%, 30.387878%, 100%)" offset="0.679688"/><stop stop-opacity="1" stop-color="rgb(0%, 29.885864%, 100%)" offset="0.683594"/><stop stop-opacity="1" stop-color="rgb(0%, 29.38385%, 100%)" offset="0.6875"/><stop stop-opacity="1" stop-color="rgb(0%, 28.881836%, 100%)" offset="0.691406"/><stop stop-opacity="1" stop-color="rgb(0%, 28.379822%, 100%)" offset="0.695313"/><stop stop-opacity="1" stop-color="rgb(0%, 27.876282%, 100%)" offset="0.699219"/><stop stop-opacity="1" stop-color="rgb(0%, 27.374268%, 100%)" offset="0.703125"/><stop stop-opacity="1" stop-color="rgb(0%, 26.872253%, 100%)" offset="0.707031"/><stop stop-opacity="1" stop-color="rgb(0%, 26.370239%, 100%)" offset="0.710938"/><stop stop-opacity="1" stop-color="rgb(0%, 25.868225%, 100%)" offset="0.714844"/><stop stop-opacity="1" stop-color="rgb(0%, 25.366211%, 100%)" offset="0.71875"/><stop stop-opacity="1" stop-color="rgb(0%, 24.862671%, 100%)" offset="0.722656"/><stop stop-opacity="1" stop-color="rgb(0%, 24.360657%, 100%)" offset="0.726563"/><stop stop-opacity="1" stop-color="rgb(0%, 23.858643%, 100%)" offset="0.730469"/><stop stop-opacity="1" stop-color="rgb(0%, 23.356628%, 100%)" offset="0.734375"/><stop stop-opacity="1" stop-color="rgb(0%, 22.853088%, 100%)" offset="0.738281"/><stop stop-opacity="1" stop-color="rgb(0%, 22.351074%, 100%)" offset="0.742188"/><stop stop-opacity="1" stop-color="rgb(0%, 21.84906%, 100%)" offset="0.746094"/><stop stop-opacity="1" stop-color="rgb(0%, 21.347046%, 100%)" offset="0.75"/><stop stop-opacity="1" stop-color="rgb(0%, 20.845032%, 100%)" offset="0.753906"/><stop stop-opacity="1" stop-color="rgb(0%, 20.343018%, 100%)" offset="0.757813"/><stop stop-opacity="1" stop-color="rgb(0%, 19.839478%, 100%)" offset="0.761719"/><stop stop-opacity="1" stop-color="rgb(0%, 19.337463%, 100%)" offset="0.765625"/><stop stop-opacity="1" stop-color="rgb(0%, 19.067383%, 100%)" offset="0.769531"/><stop stop-opacity="1" stop-color="rgb(0%, 18.798828%, 100%)" offset="0.773438"/><stop stop-opacity="1" stop-color="rgb(0%, 18.798828%, 100%)" offset="0.78125"/><stop stop-opacity="1" stop-color="rgb(0%, 18.798828%, 100%)" offset="0.8125"/><stop stop-opacity="1" stop-color="rgb(0%, 18.798828%, 100%)" offset="0.875"/><stop stop-opacity="1" stop-color="rgb(0%, 18.798828%, 100%)" offset="1"/></linearGradient><clipPath id="d417d67932"><path d="M 8 35 L 198 35 L 198 309 L 8 309 Z M 8 35 " clip-rule="nonzero"/></clipPath><clipPath id="6dbcbbce07"><path d="M -43.070312 79.21875 L 180.253906 29.695312 L 231.078125 258.875 L 7.753906 308.402344 Z M -43.070312 79.21875 " clip-rule="nonzero"/></clipPath><clipPath id="98730417c1"><path d="M 180.550781 29.628906 L -42.773438 79.152344 L 8.050781 308.335938 L 231.375 258.8125 Z M 180.550781 29.628906 " clip-rule="nonzero"/></clipPath><clipPath id="a33520a0b9"><path d="M 118.929688 88.511719 L 121.40625 84.613281 C 122.523438 85.332031 123.605469 86.097656 124.648438 86.921875 C 125.691406 87.742188 126.691406 88.613281 127.648438 89.535156 C 128.605469 90.453125 129.515625 91.417969 130.378906 92.429688 C 131.242188 93.4375 132.054688 94.488281 132.816406 95.578125 C 133.578125 96.667969 134.28125 97.792969 134.933594 98.949219 C 135.582031 100.109375 136.175781 101.296875 136.710938 102.511719 C 137.246094 103.730469 137.71875 104.96875 138.132812 106.234375 C 138.546875 107.496094 138.894531 108.777344 139.183594 110.074219 C 139.472656 111.371094 139.695312 112.679688 139.855469 114 C 140.015625 115.320312 140.109375 116.644531 140.140625 117.972656 C 140.167969 119.300781 140.132812 120.628906 140.035156 121.953125 C 139.933594 123.277344 139.769531 124.59375 139.542969 125.902344 C 139.3125 127.210938 139.019531 128.507812 138.664062 129.785156 C 138.308594 131.066406 137.890625 132.328125 137.414062 133.566406 C 136.933594 134.804688 136.394531 136.015625 135.796875 137.203125 C 135.199219 138.386719 134.546875 139.542969 133.835938 140.664062 L 30.449219 303.367188 L 24.082031 304.78125 L 129.945312 138.179688 C 130.574219 137.183594 131.15625 136.164062 131.683594 135.113281 C 132.214844 134.0625 132.691406 132.988281 133.117188 131.890625 C 133.539062 130.792969 133.910156 129.675781 134.226562 128.539062 C 134.542969 127.40625 134.800781 126.257812 135.003906 125.097656 C 135.207031 123.941406 135.351562 122.773438 135.441406 121.597656 C 135.527344 120.425781 135.558594 119.25 135.53125 118.070312 C 135.507812 116.894531 135.421875 115.71875 135.28125 114.550781 C 135.140625 113.382812 134.941406 112.222656 134.6875 111.070312 C 134.429688 109.921875 134.121094 108.785156 133.753906 107.667969 C 133.386719 106.546875 132.96875 105.449219 132.496094 104.371094 C 132.019531 103.292969 131.496094 102.238281 130.917969 101.214844 C 130.34375 100.1875 129.71875 99.191406 129.042969 98.226562 C 128.371094 97.257812 127.648438 96.328125 126.882812 95.433594 C 126.121094 94.539062 125.3125 93.683594 124.464844 92.871094 C 123.613281 92.054688 122.726562 91.28125 121.804688 90.554688 C 120.878906 89.824219 119.921875 89.144531 118.929688 88.511719 Z M 120.207031 131.9375 C 120.632812 131.265625 121.027344 130.570312 121.386719 129.859375 C 121.746094 129.144531 122.070312 128.414062 122.359375 127.671875 C 122.644531 126.925781 122.898438 126.167969 123.109375 125.398438 C 123.324219 124.628906 123.5 123.851562 123.636719 123.0625 C 123.773438 122.277344 123.875 121.484375 123.933594 120.6875 C 123.996094 119.890625 124.015625 119.09375 123.996094 118.292969 C 123.980469 117.496094 123.921875 116.699219 123.828125 115.90625 C 123.730469 115.113281 123.59375 114.324219 123.421875 113.542969 C 123.25 112.765625 123.039062 111.996094 122.789062 111.234375 C 122.542969 110.476562 122.257812 109.730469 121.9375 108.996094 C 121.613281 108.265625 121.257812 107.550781 120.867188 106.855469 C 120.476562 106.15625 120.050781 105.480469 119.59375 104.828125 C 119.136719 104.171875 118.648438 103.539062 118.128906 102.933594 C 117.609375 102.328125 117.0625 101.746094 116.484375 101.191406 C 115.910156 100.640625 115.308594 100.117188 114.679688 99.621094 C 114.054688 99.125 113.402344 98.664062 112.730469 98.234375 L 115.207031 94.335938 C 116.007812 94.851562 116.78125 95.398438 117.523438 95.988281 C 118.269531 96.574219 118.984375 97.199219 119.671875 97.855469 C 120.355469 98.515625 121.007812 99.207031 121.625 99.929688 C 122.242188 100.648438 122.824219 101.402344 123.367188 102.179688 C 123.910156 102.957031 124.414062 103.761719 124.878906 104.589844 C 125.34375 105.421875 125.769531 106.269531 126.152344 107.140625 C 126.535156 108.011719 126.871094 108.898438 127.167969 109.800781 C 127.464844 110.703125 127.714844 111.621094 127.917969 112.546875 C 128.125 113.476562 128.285156 114.410156 128.398438 115.355469 C 128.511719 116.296875 128.582031 117.246094 128.601562 118.195312 C 128.625 119.144531 128.597656 120.09375 128.527344 121.042969 C 128.457031 121.988281 128.339844 122.933594 128.175781 123.867188 C 128.011719 124.804688 127.804688 125.730469 127.550781 126.644531 C 127.296875 127.558594 126.996094 128.460938 126.652344 129.347656 C 126.3125 130.234375 125.925781 131.101562 125.5 131.949219 C 125.074219 132.796875 124.605469 133.621094 124.097656 134.421875 L 14.511719 306.902344 L 8.15625 308.3125 Z M 145.964844 108.566406 C 145.296875 105.515625 144.335938 102.5625 143.085938 99.703125 C 141.832031 96.84375 140.3125 94.132812 138.523438 91.574219 C 136.734375 89.019531 134.710938 86.660156 132.457031 84.503906 C 130.203125 82.347656 127.757812 80.433594 125.125 78.761719 L 127.601562 74.867188 C 129.039062 75.785156 130.429688 76.773438 131.769531 77.828125 C 133.109375 78.882812 134.398438 80 135.628906 81.183594 C 136.859375 82.363281 138.03125 83.605469 139.144531 84.902344 C 140.253906 86.199219 141.296875 87.546875 142.277344 88.945312 C 143.253906 90.34375 144.164062 91.789062 145 93.277344 C 145.835938 94.769531 146.597656 96.292969 147.285156 97.859375 C 147.972656 99.421875 148.582031 101.015625 149.113281 102.640625 C 149.644531 104.261719 150.09375 105.90625 150.464844 107.574219 C 150.835938 109.242188 151.121094 110.925781 151.328125 112.621094 C 151.53125 114.316406 151.652344 116.019531 151.691406 117.726562 C 151.730469 119.433594 151.683594 121.140625 151.554688 122.84375 C 151.425781 124.546875 151.214844 126.238281 150.917969 127.921875 C 150.625 129.601562 150.246094 131.265625 149.789062 132.910156 C 149.332031 134.554688 148.792969 136.175781 148.175781 137.765625 C 147.558594 139.359375 146.867188 140.914062 146.097656 142.4375 C 145.328125 143.960938 144.484375 145.445312 143.570312 146.882812 L 46.378906 299.835938 L 40.011719 301.246094 L 139.679688 144.394531 C 141.359375 141.765625 142.765625 138.996094 143.898438 136.089844 C 145.027344 133.179688 145.863281 130.191406 146.402344 127.113281 C 146.945312 124.039062 147.175781 120.941406 147.101562 117.820312 C 147.027344 114.699219 146.648438 111.613281 145.964844 108.566406 Z M 191.015625 98.578125 C 190.359375 95.574219 189.554688 92.613281 188.605469 89.691406 C 187.65625 86.769531 186.5625 83.902344 185.332031 81.085938 C 184.097656 78.273438 182.730469 75.527344 181.226562 72.847656 C 179.722656 70.167969 178.089844 67.570312 176.332031 65.054688 C 174.570312 62.535156 172.691406 60.113281 170.691406 57.78125 C 168.691406 55.449219 166.582031 53.222656 164.363281 51.101562 C 162.144531 48.980469 159.828125 46.972656 157.410156 45.078125 C 154.996094 43.1875 152.492188 41.417969 149.898438 39.773438 L 152.367188 35.878906 C 153.726562 36.742188 155.058594 37.640625 156.371094 38.574219 C 157.683594 39.503906 158.972656 40.46875 160.234375 41.460938 C 161.5 42.457031 162.742188 43.480469 163.953125 44.539062 C 165.167969 45.59375 166.359375 46.679688 167.519531 47.792969 C 168.679688 48.90625 169.8125 50.046875 170.921875 51.21875 C 172.027344 52.386719 173.101562 53.582031 174.148438 54.804688 C 175.195312 56.027344 176.210938 57.277344 177.199219 58.546875 C 178.183594 59.820312 179.140625 61.117188 180.0625 62.4375 C 180.984375 63.757812 181.875 65.097656 182.730469 66.460938 C 183.585938 67.824219 184.410156 69.207031 185.199219 70.609375 C 185.988281 72.015625 186.742188 73.4375 187.460938 74.875 C 188.179688 76.316406 188.863281 77.773438 189.511719 79.25 C 190.160156 80.722656 190.773438 82.210938 191.347656 83.714844 C 191.921875 85.222656 192.460938 86.738281 192.960938 88.269531 C 193.460938 89.800781 193.925781 91.339844 194.351562 92.894531 C 194.777344 94.449219 195.164062 96.011719 195.511719 97.582031 C 195.859375 99.15625 196.171875 100.734375 196.441406 102.324219 C 196.710938 103.910156 196.945312 105.503906 197.136719 107.101562 C 197.332031 108.699219 197.484375 110.304688 197.601562 111.910156 C 197.714844 113.515625 197.789062 115.125 197.824219 116.734375 C 197.863281 118.34375 197.859375 119.953125 197.816406 121.5625 C 197.773438 123.171875 197.691406 124.78125 197.566406 126.386719 C 197.445312 127.992188 197.285156 129.59375 197.085938 131.191406 C 196.886719 132.789062 196.644531 134.378906 196.367188 135.964844 C 196.089844 137.550781 195.773438 139.128906 195.417969 140.699219 C 195.0625 142.269531 194.667969 143.832031 194.234375 145.382812 C 193.804688 146.929688 193.332031 148.46875 192.824219 149.996094 C 192.316406 151.523438 191.773438 153.039062 191.191406 154.539062 C 190.609375 156.039062 189.992188 157.527344 189.335938 158.996094 C 188.683594 160.464844 187.992188 161.917969 187.265625 163.355469 C 186.539062 164.792969 185.78125 166.207031 184.984375 167.605469 C 184.191406 169.003906 183.359375 170.382812 182.496094 171.742188 L 110.082031 285.707031 L 103.71875 287.121094 L 178.613281 169.253906 C 180.265625 166.667969 181.789062 164.007812 183.179688 161.269531 C 184.566406 158.535156 185.820312 155.734375 186.933594 152.871094 C 188.046875 150.011719 189.015625 147.101562 189.84375 144.144531 C 190.671875 141.183594 191.347656 138.191406 191.878906 135.167969 C 192.410156 132.140625 192.792969 129.097656 193.019531 126.035156 C 193.25 122.96875 193.332031 119.902344 193.257812 116.832031 C 193.183594 113.757812 192.960938 110.699219 192.585938 107.648438 C 192.210938 104.597656 191.6875 101.574219 191.015625 98.578125 Z M 179.730469 101.078125 C 179.15625 98.449219 178.453125 95.851562 177.625 93.289062 C 176.792969 90.730469 175.835938 88.214844 174.757812 85.746094 C 173.679688 83.28125 172.480469 80.871094 171.164062 78.523438 C 169.847656 76.175781 168.421875 73.898438 166.878906 71.691406 C 165.339844 69.484375 163.691406 67.355469 161.941406 65.3125 C 160.191406 63.269531 158.34375 61.316406 156.398438 59.453125 C 154.457031 57.59375 152.425781 55.832031 150.308594 54.171875 C 148.191406 52.511719 146 50.957031 143.730469 49.515625 L 146.199219 45.621094 C 147.394531 46.382812 148.574219 47.175781 149.730469 48 C 150.886719 48.820312 152.027344 49.671875 153.140625 50.546875 C 154.257812 51.425781 155.351562 52.332031 156.425781 53.261719 C 157.496094 54.195312 158.542969 55.152344 159.570312 56.132812 C 160.59375 57.117188 161.59375 58.125 162.570312 59.15625 C 163.546875 60.1875 164.496094 61.246094 165.421875 62.324219 C 166.34375 63.402344 167.242188 64.503906 168.113281 65.625 C 168.984375 66.75 169.824219 67.894531 170.640625 69.058594 C 171.453125 70.222656 172.238281 71.40625 172.996094 72.609375 C 173.75 73.8125 174.476562 75.03125 175.171875 76.269531 C 175.871094 77.511719 176.535156 78.765625 177.171875 80.035156 C 177.804688 81.308594 178.410156 82.59375 178.980469 83.894531 C 179.550781 85.195312 180.09375 86.511719 180.601562 87.835938 C 181.105469 89.164062 181.582031 90.503906 182.023438 91.855469 C 182.464844 93.207031 182.875 94.566406 183.25 95.9375 C 183.625 97.308594 183.964844 98.6875 184.273438 100.074219 C 184.582031 101.460938 184.855469 102.855469 185.09375 104.257812 C 185.335938 105.660156 185.539062 107.066406 185.710938 108.476562 C 185.878906 109.886719 186.015625 111.300781 186.117188 112.71875 C 186.21875 114.136719 186.285156 115.554688 186.316406 116.976562 C 186.347656 118.398438 186.34375 119.816406 186.308594 121.238281 C 186.269531 122.660156 186.195312 124.078125 186.089844 125.496094 C 185.980469 126.910156 185.839844 128.324219 185.664062 129.734375 C 185.484375 131.144531 185.273438 132.550781 185.027344 133.949219 C 184.785156 135.347656 184.503906 136.742188 184.191406 138.125 C 183.875 139.511719 183.527344 140.890625 183.148438 142.257812 C 182.765625 143.625 182.351562 144.984375 181.902344 146.332031 C 181.453125 147.679688 180.972656 149.015625 180.460938 150.339844 C 179.949219 151.664062 179.402344 152.976562 178.824219 154.273438 C 178.246094 155.570312 177.636719 156.851562 176.996094 158.121094 C 176.355469 159.386719 175.683594 160.636719 174.984375 161.871094 C 174.28125 163.105469 173.550781 164.324219 172.789062 165.519531 L 94.175781 289.234375 L 87.792969 290.652344 L 168.902344 163.035156 C 170.351562 160.765625 171.683594 158.433594 172.902344 156.035156 C 174.121094 153.632812 175.214844 151.179688 176.191406 148.671875 C 177.164062 146.160156 178.015625 143.609375 178.738281 141.019531 C 179.460938 138.425781 180.054688 135.800781 180.519531 133.148438 C 180.984375 130.496094 181.316406 127.828125 181.515625 125.144531 C 181.71875 122.457031 181.785156 119.769531 181.722656 117.074219 C 181.65625 114.382812 181.460938 111.699219 181.128906 109.027344 C 180.800781 106.355469 180.339844 103.703125 179.75 101.074219 Z M 168.449219 103.582031 C 167.453125 99.046875 166.023438 94.65625 164.160156 90.402344 C 162.296875 86.152344 160.03125 82.125 157.371094 78.324219 C 154.710938 74.523438 151.703125 71.019531 148.347656 67.8125 C 144.992188 64.609375 141.355469 61.765625 137.441406 59.285156 L 139.980469 55.375 C 141.019531 56.035156 142.039062 56.722656 143.042969 57.433594 C 144.046875 58.148438 145.03125 58.882812 146 59.644531 C 146.96875 60.40625 147.914062 61.191406 148.84375 61.996094 C 149.773438 62.804688 150.683594 63.636719 151.570312 64.488281 C 152.460938 65.339844 153.328125 66.210938 154.171875 67.109375 C 155.019531 68.003906 155.84375 68.917969 156.644531 69.851562 C 157.445312 70.789062 158.222656 71.742188 158.976562 72.714844 C 159.730469 73.691406 160.460938 74.679688 161.167969 75.691406 C 161.871094 76.699219 162.554688 77.726562 163.210938 78.769531 C 163.863281 79.8125 164.496094 80.871094 165.097656 81.945312 C 165.703125 83.015625 166.277344 84.105469 166.828125 85.207031 C 167.378906 86.308594 167.902344 87.425781 168.398438 88.550781 C 168.894531 89.679688 169.363281 90.820312 169.800781 91.96875 C 170.242188 93.121094 170.652344 94.28125 171.035156 95.453125 C 171.417969 96.625 171.773438 97.804688 172.097656 98.992188 C 172.425781 100.179688 172.71875 101.375 172.988281 102.578125 C 173.253906 103.78125 173.492188 104.988281 173.699219 106.203125 C 173.90625 107.417969 174.082031 108.636719 174.230469 109.859375 C 174.378906 111.082031 174.496094 112.308594 174.585938 113.539062 C 174.671875 114.765625 174.730469 115.996094 174.757812 117.230469 C 174.785156 118.460938 174.78125 119.691406 174.75 120.921875 C 174.714844 122.15625 174.652344 123.386719 174.558594 124.613281 C 174.46875 125.839844 174.34375 127.066406 174.191406 128.289062 C 174.039062 129.511719 173.855469 130.730469 173.640625 131.941406 C 173.429688 133.15625 173.1875 134.363281 172.914062 135.5625 C 172.640625 136.765625 172.339844 137.957031 172.011719 139.144531 C 171.679688 140.332031 171.320312 141.507812 170.933594 142.675781 C 170.542969 143.84375 170.125 145.003906 169.683594 146.152344 C 169.238281 147.300781 168.765625 148.433594 168.261719 149.558594 C 167.761719 150.683594 167.234375 151.796875 166.679688 152.894531 C 166.125 153.992188 165.542969 155.078125 164.933594 156.148438 C 164.324219 157.21875 163.691406 158.273438 163.03125 159.308594 L 78.230469 292.773438 L 71.867188 294.183594 L 159.160156 156.804688 C 161.65625 152.898438 163.742188 148.785156 165.421875 144.460938 C 167.101562 140.140625 168.34375 135.695312 169.144531 131.128906 C 169.945312 126.558594 170.289062 121.957031 170.179688 117.320312 C 170.070312 112.679688 169.507812 108.097656 168.488281 103.574219 Z M 131.316406 69.015625 L 133.792969 65.121094 C 135.546875 66.242188 137.242188 67.449219 138.878906 68.738281 C 140.515625 70.03125 142.085938 71.398438 143.585938 72.839844 C 145.089844 74.285156 146.519531 75.800781 147.871094 77.382812 C 149.226562 78.96875 150.5 80.617188 151.695312 82.324219 C 152.886719 84.035156 153.996094 85.796875 155.015625 87.617188 C 156.035156 89.433594 156.964844 91.296875 157.804688 93.207031 C 158.640625 95.117188 159.386719 97.0625 160.035156 99.046875 C 160.683594 101.027344 161.230469 103.035156 161.683594 105.074219 C 162.136719 107.109375 162.484375 109.160156 162.738281 111.230469 C 162.988281 113.300781 163.136719 115.378906 163.183594 117.464844 C 163.230469 119.550781 163.175781 121.632812 163.019531 123.710938 C 162.863281 125.789062 162.605469 127.855469 162.246094 129.910156 C 161.886719 131.964844 161.429688 133.996094 160.871094 136.003906 C 160.3125 138.011719 159.660156 139.988281 158.910156 141.933594 C 158.15625 143.875 157.3125 145.777344 156.375 147.640625 C 155.4375 149.5 154.414062 151.308594 153.296875 153.070312 L 62.308594 296.265625 L 55.941406 297.675781 L 149.414062 150.609375 C 150.449219 148.976562 151.402344 147.296875 152.273438 145.570312 C 153.144531 143.847656 153.929688 142.082031 154.625 140.277344 C 155.324219 138.472656 155.933594 136.640625 156.449219 134.777344 C 156.96875 132.914062 157.394531 131.03125 157.730469 129.125 C 158.0625 127.21875 158.300781 125.300781 158.449219 123.371094 C 158.59375 121.441406 158.644531 119.511719 158.601562 117.574219 C 158.558594 115.640625 158.421875 113.714844 158.1875 111.792969 C 157.957031 109.871094 157.628906 107.964844 157.210938 106.078125 C 156.792969 104.1875 156.28125 102.324219 155.679688 100.484375 C 155.078125 98.644531 154.386719 96.839844 153.609375 95.066406 C 152.832031 93.296875 151.96875 91.566406 151.019531 89.878906 C 150.074219 88.195312 149.046875 86.558594 147.9375 84.972656 C 146.828125 83.386719 145.648438 81.859375 144.390625 80.386719 C 143.132812 78.917969 141.804688 77.515625 140.410156 76.175781 C 139.015625 74.835938 137.558594 73.566406 136.039062 72.371094 C 134.519531 71.175781 132.945312 70.058594 131.316406 69.015625 Z M 131.316406 69.015625 " clip-rule="nonzero"/></clipPath><linearGradient x1="-58.991699" gradientTransform="matrix(-0.59386, 0.131694, 0.131988, 0.595186, 180.44666, 29.651739)" y1="-23.886221" x2="349.847896" gradientUnits="userSpaceOnUse" y2="473.671324" id="ffdbc1d2b4"><stop stop-opacity="1" stop-color="rgb(0%, 18.798828%, 100%)" offset="0"/><stop stop-opacity="1" stop-color="rgb(0%, 18.798828%, 100%)" offset="0.25"/><stop stop-opacity="1" stop-color="rgb(0%, 18.798828%, 100%)" offset="0.3125"/><stop stop-opacity="1" stop-color="rgb(0%, 18.798828%, 100%)" offset="0.34375"/><stop stop-opacity="1" stop-color="rgb(0%, 18.798828%, 100%)" offset="0.351562"/><stop stop-opacity="1" stop-color="rgb(0%, 19.168091%, 100%)" offset="0.355469"/><stop stop-opacity="1" stop-color="rgb(0%, 19.538879%, 100%)" offset="0.359375"/><stop stop-opacity="1" stop-color="rgb(0%, 20.074463%, 100%)" offset="0.363281"/><stop stop-opacity="1" stop-color="rgb(0%, 20.610046%, 100%)" offset="0.367187"/><stop stop-opacity="1" stop-color="rgb(0%, 21.14563%, 100%)" offset="0.371094"/><stop stop-opacity="1" stop-color="rgb(0%, 21.681213%, 100%)" offset="0.375"/><stop stop-opacity="1" stop-color="rgb(0%, 22.216797%, 100%)" offset="0.378906"/><stop stop-opacity="1" stop-color="rgb(0%, 22.75238%, 100%)" offset="0.382812"/><stop stop-opacity="1" stop-color="rgb(0%, 23.287964%, 100%)" offset="0.386719"/><stop stop-opacity="1" stop-color="rgb(0%, 23.823547%, 100%)" offset="0.390625"/><stop stop-opacity="1" stop-color="rgb(0%, 24.359131%, 100%)" offset="0.394531"/><stop stop-opacity="1" stop-color="rgb(0%, 24.89624%, 100%)" offset="0.398437"/><stop stop-opacity="1" stop-color="rgb(0%, 25.431824%, 100%)" offset="0.402344"/><stop stop-opacity="1" stop-color="rgb(0%, 25.967407%, 100%)" offset="0.40625"/><stop stop-opacity="1" stop-color="rgb(0%, 26.502991%, 100%)" offset="0.410156"/><stop stop-opacity="1" stop-color="rgb(0%, 27.038574%, 100%)" offset="0.414062"/><stop stop-opacity="1" stop-color="rgb(0%, 27.574158%, 100%)" offset="0.417969"/><stop stop-opacity="1" stop-color="rgb(0%, 28.109741%, 100%)" offset="0.421875"/><stop stop-opacity="1" stop-color="rgb(0%, 28.645325%, 100%)" offset="0.425781"/><stop stop-opacity="1" stop-color="rgb(0%, 29.180908%, 100%)" offset="0.429687"/><stop stop-opacity="1" stop-color="rgb(0%, 29.716492%, 100%)" offset="0.433594"/><stop stop-opacity="1" stop-color="rgb(0%, 30.252075%, 100%)" offset="0.4375"/><stop stop-opacity="1" stop-color="rgb(0%, 30.787659%, 100%)" offset="0.441406"/><stop stop-opacity="1" stop-color="rgb(0%, 31.323242%, 100%)" offset="0.445312"/><stop stop-opacity="1" stop-color="rgb(0%, 31.858826%, 100%)" offset="0.449219"/><stop stop-opacity="1" stop-color="rgb(0%, 32.394409%, 100%)" offset="0.453125"/><stop stop-opacity="1" stop-color="rgb(0%, 32.929993%, 100%)" offset="0.457031"/><stop stop-opacity="1" stop-color="rgb(0%, 33.467102%, 100%)" offset="0.460937"/><stop stop-opacity="1" stop-color="rgb(0%, 34.002686%, 100%)" offset="0.464844"/><stop stop-opacity="1" stop-color="rgb(0%, 34.538269%, 100%)" offset="0.46875"/><stop stop-opacity="1" stop-color="rgb(0%, 35.073853%, 100%)" offset="0.472656"/><stop stop-opacity="1" stop-color="rgb(0%, 35.609436%, 100%)" offset="0.476562"/><stop stop-opacity="1" stop-color="rgb(0%, 36.14502%, 100%)" offset="0.480469"/><stop stop-opacity="1" stop-color="rgb(0%, 36.680603%, 100%)" offset="0.484375"/><stop stop-opacity="1" stop-color="rgb(0%, 37.216187%, 100%)" offset="0.488281"/><stop stop-opacity="1" stop-color="rgb(0%, 37.75177%, 100%)" offset="0.492187"/><stop stop-opacity="1" stop-color="rgb(0%, 38.287354%, 100%)" offset="0.496094"/><stop stop-opacity="1" stop-color="rgb(0%, 38.822937%, 100%)" offset="0.5"/><stop stop-opacity="1" stop-color="rgb(0%, 39.358521%, 100%)" offset="0.503906"/><stop stop-opacity="1" stop-color="rgb(0%, 39.894104%, 100%)" offset="0.507812"/><stop stop-opacity="1" stop-color="rgb(0%, 40.429688%, 100%)" offset="0.511719"/><stop stop-opacity="1" stop-color="rgb(0%, 40.965271%, 100%)" offset="0.515625"/><stop stop-opacity="1" stop-color="rgb(0%, 41.500854%, 100%)" offset="0.519531"/><stop stop-opacity="1" stop-color="rgb(0%, 42.037964%, 100%)" offset="0.523437"/><stop stop-opacity="1" stop-color="rgb(0%, 42.573547%, 100%)" offset="0.527344"/><stop stop-opacity="1" stop-color="rgb(0%, 43.109131%, 100%)" offset="0.53125"/><stop stop-opacity="1" stop-color="rgb(0%, 43.644714%, 100%)" offset="0.535156"/><stop stop-opacity="1" stop-color="rgb(0%, 44.180298%, 100%)" offset="0.539062"/><stop stop-opacity="1" stop-color="rgb(0%, 44.715881%, 100%)" offset="0.542969"/><stop stop-opacity="1" stop-color="rgb(0%, 45.251465%, 100%)" offset="0.546875"/><stop stop-opacity="1" stop-color="rgb(0%, 45.787048%, 100%)" offset="0.550781"/><stop stop-opacity="1" stop-color="rgb(0%, 46.322632%, 100%)" offset="0.554688"/><stop stop-opacity="1" stop-color="rgb(0%, 46.858215%, 100%)" offset="0.558594"/><stop stop-opacity="1" stop-color="rgb(0%, 47.393799%, 100%)" offset="0.5625"/><stop stop-opacity="1" stop-color="rgb(0%, 47.929382%, 100%)" offset="0.566406"/><stop stop-opacity="1" stop-color="rgb(0%, 48.464966%, 100%)" offset="0.570312"/><stop stop-opacity="1" stop-color="rgb(0%, 49.000549%, 100%)" offset="0.574219"/><stop stop-opacity="1" stop-color="rgb(0%, 49.536133%, 100%)" offset="0.578125"/><stop stop-opacity="1" stop-color="rgb(0%, 50.071716%, 100%)" offset="0.582031"/><stop stop-opacity="1" stop-color="rgb(0%, 50.608826%, 100%)" offset="0.585938"/><stop stop-opacity="1" stop-color="rgb(0%, 51.144409%, 100%)" offset="0.589844"/><stop stop-opacity="1" stop-color="rgb(0%, 51.679993%, 100%)" offset="0.59375"/><stop stop-opacity="1" stop-color="rgb(0%, 52.215576%, 100%)" offset="0.597656"/><stop stop-opacity="1" stop-color="rgb(0%, 52.75116%, 100%)" offset="0.601562"/><stop stop-opacity="1" stop-color="rgb(0%, 53.286743%, 100%)" offset="0.605469"/><stop stop-opacity="1" stop-color="rgb(0%, 53.822327%, 100%)" offset="0.609375"/><stop stop-opacity="1" stop-color="rgb(0%, 54.35791%, 100%)" offset="0.613281"/><stop stop-opacity="1" stop-color="rgb(0%, 54.893494%, 100%)" offset="0.617187"/><stop stop-opacity="1" stop-color="rgb(0%, 55.429077%, 100%)" offset="0.621094"/><stop stop-opacity="1" stop-color="rgb(0%, 55.964661%, 100%)" offset="0.625"/><stop stop-opacity="1" stop-color="rgb(0%, 56.500244%, 100%)" offset="0.628906"/><stop stop-opacity="1" stop-color="rgb(0%, 57.035828%, 100%)" offset="0.632812"/><stop stop-opacity="1" stop-color="rgb(0%, 57.571411%, 100%)" offset="0.636719"/><stop stop-opacity="1" stop-color="rgb(0%, 58.106995%, 100%)" offset="0.640625"/><stop stop-opacity="1" stop-color="rgb(0%, 58.642578%, 100%)" offset="0.644531"/><stop stop-opacity="1" stop-color="rgb(0%, 59.179688%, 100%)" offset="0.648437"/><stop stop-opacity="1" stop-color="rgb(0%, 59.715271%, 100%)" offset="0.652344"/><stop stop-opacity="1" stop-color="rgb(0%, 60.250854%, 100%)" offset="0.65625"/><stop stop-opacity="1" stop-color="rgb(0%, 60.786438%, 100%)" offset="0.660156"/><stop stop-opacity="1" stop-color="rgb(0%, 61.322021%, 100%)" offset="0.664062"/><stop stop-opacity="1" stop-color="rgb(0%, 61.857605%, 100%)" offset="0.667969"/><stop stop-opacity="1" stop-color="rgb(0%, 62.393188%, 100%)" offset="0.671875"/><stop stop-opacity="1" stop-color="rgb(0%, 62.928772%, 100%)" offset="0.675781"/><stop stop-opacity="1" stop-color="rgb(0%, 63.464355%, 100%)" offset="0.679688"/><stop stop-opacity="1" stop-color="rgb(0%, 63.999939%, 100%)" offset="0.683594"/><stop stop-opacity="1" stop-color="rgb(0%, 64.535522%, 100%)" offset="0.6875"/><stop stop-opacity="1" stop-color="rgb(0%, 65.071106%, 100%)" offset="0.691406"/><stop stop-opacity="1" stop-color="rgb(0%, 65.606689%, 100%)" offset="0.695312"/><stop stop-opacity="1" stop-color="rgb(0%, 66.142273%, 100%)" offset="0.699219"/><stop stop-opacity="1" stop-color="rgb(0%, 66.677856%, 100%)" offset="0.703125"/><stop stop-opacity="1" stop-color="rgb(0%, 67.21344%, 100%)" offset="0.707031"/><stop stop-opacity="1" stop-color="rgb(0%, 67.750549%, 100%)" offset="0.710937"/><stop stop-opacity="1" stop-color="rgb(0%, 68.286133%, 100%)" offset="0.714844"/><stop stop-opacity="1" stop-color="rgb(0%, 68.821716%, 100%)" offset="0.71875"/><stop stop-opacity="1" stop-color="rgb(0%, 69.3573%, 100%)" offset="0.722656"/><stop stop-opacity="1" stop-color="rgb(0%, 69.892883%, 100%)" offset="0.726562"/><stop stop-opacity="1" stop-color="rgb(0%, 70.428467%, 100%)" offset="0.730469"/><stop stop-opacity="1" stop-color="rgb(0%, 70.96405%, 100%)" offset="0.734375"/><stop stop-opacity="1" stop-color="rgb(0%, 71.499634%, 100%)" offset="0.738281"/><stop stop-opacity="1" stop-color="rgb(0%, 72.035217%, 100%)" offset="0.742187"/><stop stop-opacity="1" stop-color="rgb(0%, 72.570801%, 100%)" offset="0.746094"/><stop stop-opacity="1" stop-color="rgb(0%, 73.106384%, 100%)" offset="0.75"/><stop stop-opacity="1" stop-color="rgb(0%, 73.641968%, 100%)" offset="0.753906"/><stop stop-opacity="1" stop-color="rgb(0%, 74.177551%, 100%)" offset="0.757812"/><stop stop-opacity="1" stop-color="rgb(0%, 74.713135%, 100%)" offset="0.761719"/><stop stop-opacity="1" stop-color="rgb(0%, 75.248718%, 100%)" offset="0.765625"/><stop stop-opacity="1" stop-color="rgb(0%, 75.672913%, 100%)" offset="0.769531"/><stop stop-opacity="1" stop-color="rgb(0%, 76.098633%, 100%)" offset="0.773437"/><stop stop-opacity="1" stop-color="rgb(0%, 76.098633%, 100%)" offset="0.78125"/><stop stop-opacity="1" stop-color="rgb(0%, 76.098633%, 100%)" offset="0.8125"/><stop stop-opacity="1" stop-color="rgb(0%, 76.098633%, 100%)" offset="0.875"/><stop stop-opacity="1" stop-color="rgb(0%, 76.098633%, 100%)" offset="1"/></linearGradient></defs><g clip-path="url(#4dc8b84450)"><g clip-path="url(#483edc24eb)"><g clip-path="url(#95b21c451a)"><g clip-path="url(#da6f04b74c)"><path fill="url(#b76067b0b5)" d="M 368.128906 321.171875 L 106.144531 287.664062 L 142.894531 0.324219 L 404.882812 33.832031 Z M 368.128906 321.171875 " fill-rule="nonzero"/></g></g></g></g><g fill="#ffffff" fill-opacity="1"><g transform="translate(50.213259, 337.484666)"><g><path d="M 6.550781 0.351562 C 9.945312 0.351562 12.171875 -1.226562 12.171875 -3.691406 C 12.171875 -6.660156 9.316406 -7.105469 6.976562 -7.460938 C 5.121094 -7.738281 3.433594 -8.015625 3.433594 -9.574219 C 3.433594 -10.855469 4.566406 -11.765625 6.4375 -11.765625 C 8.386719 -11.765625 9.648438 -10.742188 9.648438 -9.054688 L 11.800781 -9.054688 C 11.78125 -11.726562 9.648438 -13.507812 6.347656 -13.507812 C 3.136719 -13.507812 1.078125 -11.875 1.078125 -9.425781 C 1.078125 -6.402344 4.027344 -6.03125 6.347656 -5.695312 C 8.164062 -5.417969 9.835938 -5.160156 9.835938 -3.5625 C 9.835938 -2.246094 8.574219 -1.390625 6.644531 -1.390625 C 4.472656 -1.390625 3.136719 -2.488281 3.136719 -4.269531 L 0.929688 -4.25 C 0.929688 -1.484375 3.15625 0.351562 6.550781 0.351562 Z M 6.550781 0.351562 "/></g></g></g><g fill="#ffffff" fill-opacity="1"><g transform="translate(67.24589, 337.484666)"><g><path d="M 7.980469 0.351562 C 12.210938 0.351562 15.160156 -2.429688 15.160156 -6.570312 C 15.160156 -10.707031 12.210938 -13.507812 7.980469 -13.507812 C 3.75 -13.507812 0.796875 -10.707031 0.796875 -6.570312 C 0.796875 -2.429688 3.75 0.351562 7.980469 0.351562 Z M 7.980469 -1.597656 C 5.160156 -1.597656 3.15625 -3.65625 3.15625 -6.570312 C 3.15625 -9.5 5.160156 -11.542969 7.980469 -11.542969 C 10.816406 -11.542969 12.820312 -9.5 12.820312 -6.570312 C 12.820312 -3.636719 10.816406 -1.597656 7.980469 -1.597656 Z M 7.980469 -1.597656 "/></g></g></g><g fill="#ffffff" fill-opacity="1"><g transform="translate(87.154143, 337.484666)"><g><path d="M 1.335938 0 L 3.675781 0 L 3.675781 -5.585938 L 9.5 -5.585938 L 9.5 -7.386719 L 3.675781 -7.386719 L 3.675781 -11.113281 L 10.410156 -11.113281 L 10.410156 -13.136719 L 1.335938 -13.136719 Z M 1.335938 0 "/></g></g></g><g fill="#ffffff" fill-opacity="1"><g transform="translate(102.071813, 337.484666)"><g><path d="M 4.675781 0 L 7.015625 0 L 7.015625 -11.1875 L 11.410156 -11.1875 L 11.410156 -13.136719 L 0.296875 -13.136719 L 0.296875 -11.1875 L 4.675781 -11.1875 Z M 4.675781 0 "/></g></g></g><g fill="#ffffff" fill-opacity="1"><g transform="translate(117.69446, 337.484666)"><g><path d="M 4.175781 0 L 7.515625 0 L 10.167969 -10.113281 L 10.335938 -10.113281 L 12.988281 0 L 16.328125 0 L 20.058594 -13.136719 L 17.71875 -13.136719 L 14.640625 -2.152344 L 14.472656 -2.152344 L 11.503906 -13.136719 L 9 -13.136719 L 6.03125 -2.152344 L 5.863281 -2.152344 L 2.785156 -13.136719 L 0.425781 -13.136719 Z M 4.175781 0 "/></g></g></g><g fill="#ffffff" fill-opacity="1"><g transform="translate(142.110939, 337.484666)"><g><path d="M 0.277344 0 L 2.691406 0 L 3.675781 -2.726562 L 9.519531 -2.726562 L 10.503906 0 L 12.933594 0 L 8.332031 -13.136719 L 4.878906 -13.136719 Z M 4.175781 -4.472656 L 6.511719 -11.113281 L 6.679688 -11.113281 L 9.019531 -4.472656 Z M 4.175781 -4.472656 "/></g></g></g><g fill="#ffffff" fill-opacity="1"><g transform="translate(159.236328, 337.484666)"><g><path d="M 1.335938 0 L 3.675781 0 L 3.675781 -5.027344 L 5.828125 -5.027344 L 9.890625 0 L 12.542969 0 L 8.128906 -5.195312 L 8.535156 -5.214844 C 10.835938 -5.398438 12.394531 -6.882812 12.394531 -9.035156 C 12.394531 -11.542969 10.445312 -13.136719 7.421875 -13.136719 L 1.335938 -13.136719 Z M 3.675781 -6.625 L 3.675781 -11.394531 L 7.050781 -11.394531 C 8.851562 -11.394531 10.039062 -10.519531 10.039062 -9.019531 C 10.039062 -7.550781 8.832031 -6.625 7.050781 -6.625 Z M 3.675781 -6.625 "/></g></g></g><g fill="#ffffff" fill-opacity="1"><g transform="translate(176.398822, 337.484666)"><g><path d="M 1.335938 0 L 11.058594 0 L 11.058594 -1.894531 L 3.601562 -1.894531 L 3.601562 -5.9375 L 10.335938 -5.9375 L 10.335938 -7.535156 L 3.601562 -7.535156 L 3.601562 -11.261719 L 10.875 -11.261719 L 10.875 -13.136719 L 1.335938 -13.136719 Z M 1.335938 0 "/></g></g></g><g fill="#ffffff" fill-opacity="1"><g transform="translate(192.114245, 337.484666)"><g/></g></g><g fill="#00c2ff" fill-opacity="1"><g transform="translate(200.611833, 337.484666)"><g><path d="M 1.335938 0 L 11.058594 0 L 11.058594 -1.894531 L 3.601562 -1.894531 L 3.601562 -5.9375 L 10.335938 -5.9375 L 10.335938 -7.535156 L 3.601562 -7.535156 L 3.601562 -11.261719 L 10.875 -11.261719 L 10.875 -13.136719 L 1.335938 -13.136719 Z M 1.335938 0 "/></g></g></g><g fill="#00c2ff" fill-opacity="1"><g transform="translate(216.327254, 337.484666)"><g><path d="M 1.316406 0 L 3.527344 0 L 3.527344 -10.113281 L 3.675781 -10.113281 L 9.742188 0 L 12.339844 0 L 12.339844 -13.136719 L 10.148438 -13.136719 L 10.148438 -3.007812 L 10 -3.007812 L 3.914062 -13.136719 L 1.316406 -13.136719 Z M 1.316406 0 "/></g></g></g><g fill="#00c2ff" fill-opacity="1"><g transform="translate(233.934997, 337.484666)"><g><path d="M 7.996094 0.390625 C 12.246094 0.390625 15.105469 -2.691406 14.882812 -7.089844 L 6.570312 -7.089844 L 6.570312 -5.621094 L 12.617188 -5.621094 C 12.449219 -3.230469 10.558594 -1.558594 8.054688 -1.558594 C 5.214844 -1.558594 3.15625 -3.691406 3.15625 -6.570312 C 3.15625 -9.480469 5.195312 -11.558594 7.980469 -11.542969 C 9.945312 -11.542969 11.691406 -10.316406 12.117188 -8.648438 L 14.269531 -9.054688 C 13.710938 -11.632812 11.078125 -13.507812 7.996094 -13.507812 C 3.824219 -13.507812 0.816406 -10.652344 0.816406 -6.570312 C 0.816406 -2.503906 3.824219 0.390625 7.996094 0.390625 Z M 7.996094 0.390625 "/></g></g></g><g fill="#00c2ff" fill-opacity="1"><g transform="translate(253.583505, 337.484666)"><g><path d="M 1.335938 0 L 3.675781 0 L 3.675781 -13.136719 L 1.335938 -13.136719 Z M 1.335938 0 "/></g></g></g><g fill="#00c2ff" fill-opacity="1"><g transform="translate(262.527316, 337.484666)"><g><path d="M 1.316406 0 L 3.527344 0 L 3.527344 -10.113281 L 3.675781 -10.113281 L 9.742188 0 L 12.339844 0 L 12.339844 -13.136719 L 10.148438 -13.136719 L 10.148438 -3.007812 L 10 -3.007812 L 3.914062 -13.136719 L 1.316406 -13.136719 Z M 1.316406 0 "/></g></g></g><g fill="#00c2ff" fill-opacity="1"><g transform="translate(280.135056, 337.484666)"><g><path d="M 1.335938 0 L 11.058594 0 L 11.058594 -1.894531 L 3.601562 -1.894531 L 3.601562 -5.9375 L 10.335938 -5.9375 L 10.335938 -7.535156 L 3.601562 -7.535156 L 3.601562 -11.261719 L 10.875 -11.261719 L 10.875 -13.136719 L 1.335938 -13.136719 Z M 1.335938 0 "/></g></g></g><g fill="#00c2ff" fill-opacity="1"><g transform="translate(295.850479, 337.484666)"><g><path d="M 1.335938 0 L 11.058594 0 L 11.058594 -1.894531 L 3.601562 -1.894531 L 3.601562 -5.9375 L 10.335938 -5.9375 L 10.335938 -7.535156 L 3.601562 -7.535156 L 3.601562 -11.261719 L 10.875 -11.261719 L 10.875 -13.136719 L 1.335938 -13.136719 Z M 1.335938 0 "/></g></g></g><g fill="#00c2ff" fill-opacity="1"><g transform="translate(311.565902, 337.484666)"><g><path d="M 1.335938 0 L 3.675781 0 L 3.675781 -5.027344 L 5.828125 -5.027344 L 9.890625 0 L 12.542969 0 L 8.128906 -5.195312 L 8.535156 -5.214844 C 10.835938 -5.398438 12.394531 -6.882812 12.394531 -9.035156 C 12.394531 -11.542969 10.445312 -13.136719 7.421875 -13.136719 L 1.335938 -13.136719 Z M 3.675781 -6.625 L 3.675781 -11.394531 L 7.050781 -11.394531 C 8.851562 -11.394531 10.039062 -10.519531 10.039062 -9.019531 C 10.039062 -7.550781 8.832031 -6.625 7.050781 -6.625 Z M 3.675781 -6.625 "/></g></g></g><g clip-path="url(#d417d67932)"><g clip-path="url(#6dbcbbce07)"><g clip-path="url(#98730417c1)"><g clip-path="url(#a33520a0b9)"><path fill="url(#ffdbc1d2b4)" d="M 188.96875 -4.21875 L 255.445312 295.542969 L 17.046875 348.410156 L -49.425781 48.648438 Z M 188.96875 -4.21875 " fill-rule="nonzero"/></g></g></g></g></svg>